<ttFont>
<head>
    <!-- Most of this table will be recalculated by the compiler -->
    <tableVersion value="1.0"/>
    <fontRevision value="1.00099"/>
    <checkSumAdjustment value="0xacf9304e"/>
    <magicNumber value="0x5f0f3cf5"/>
    <flags value="00000000 00000011"/>
    <unitsPerEm value="1000"/>
    <created value="Mon Jun 11 07:39:38 2012"/>
    <modified value="Tue Oct  4 16:07:47 2016"/>
    <xMin value="-467"/>
    <yMin value="-339"/>
    <xMax value="1849"/>
    <yMax value="1037"/>
    <macStyle value="00000000 00000011"/>
    <lowestRecPPEM value="7"/>
    <fontDirectionHint value="2"/>
    <indexToLocFormat value="1"/>
    <glyphDataFormat value="0"/>
  </head>
    <TTGlyph name=".notdef" xMin="95" yMin="28" xMax="629" yMax="506">
      <contour>
        <pt x="318" y="418" on="1"/>
        <pt x="240" y="418" on="1"/>
        <pt x="229" y="328" on="1"/>
        <pt x="132" y="328" on="1"/>
        <pt x="154" y="506" on="1"/>
        <pt x="329" y="506" on="1"/>
      </contour>
      <contour>
        <pt x="454" y="506" on="1"/>
        <pt x="629" y="506" on="1"/>
        <pt x="607" y="328" on="1"/>
        <pt x="511" y="328" on="1"/>
        <pt x="521" y="418" on="1"/>
        <pt x="443" y="418" on="1"/>
      </contour>
      <contour>
        <pt x="203" y="116" on="1"/>
        <pt x="281" y="116" on="1"/>
        <pt x="270" y="28" on="1"/>
        <pt x="95" y="28" on="1"/>
        <pt x="118" y="206" on="1"/>
        <pt x="214" y="206" on="1"/>
      </contour>
      <contour>
        <pt x="406" y="116" on="1"/>
        <pt x="485" y="116" on="1"/>
        <pt x="496" y="206" on="1"/>
        <pt x="593" y="206" on="1"/>
        <pt x="570" y="28" on="1"/>
        <pt x="395" y="28" on="1"/>
      </contour>
    </TTGlyph>
    <TTGlyph name="A" xMin="19" yMin="0" xMax="590" yMax="650">
      <contour>
        <pt x="479" y="650" on="1"/>
        <pt x="590" y="0" on="1"/>
        <pt x="444" y="0" on="1"/>
        <pt x="414" y="182" on="1"/>
        <pt x="188" y="182" on="1"/>
        <pt x="103" y="0" on="1"/>
        <pt x="19" y="0" on="1"/>
        <pt x="326" y="650" on="1"/>
      </contour>
      <contour>
        <pt x="356" y="551" on="1"/>
        <pt x="216" y="245" on="1"/>
        <pt x="404" y="245" on="1"/>
        <pt x="357" y="551" on="1"/>
      </contour>
    </TTGlyph>
    <TTGlyph name="A.swsh" xMin="37" yMin="-120" xMax="733" yMax="665">
      <contour>
        <pt x="733" y="0" on="1"/>
        <pt x="587" y="0" on="1"/>
        <pt x="565" y="182" on="1"/>
        <pt x="342" y="182" on="1"/>
        <pt x="269" y="30" on="0"/>
        <pt x="141" y="-101" on="0"/>
        <pt x="67" y="-120" on="1"/>
        <pt x="37" y="-54" on="1"/>
        <pt x="95" y="-37" on="0"/>
        <pt x="208" y="75" on="0"/>
        <pt x="274" y="210" on="1"/>
        <pt x="458" y="584" on="1"/>
        <pt x="361" y="578" on="0"/>
        <pt x="227" y="515" on="0"/>
        <pt x="159" y="417" on="0"/>
        <pt x="159" y="360" on="1"/>
        <pt x="159" y="339" on="0"/>
        <pt x="166" y="309" on="1"/>
        <pt x="89" y="289" on="1"/>
        <pt x="80" y="324" on="0"/>
        <pt x="80" y="357" on="1"/>
        <pt x="80" y="437" on="0"/>
        <pt x="178" y="569" on="0"/>
        <pt x="364" y="649" on="0"/>
        <pt x="490" y="650" on="1"/>
        <pt x="520" y="650" on="1"/>
        <pt x="601" y="652" on="0"/>
        <pt x="632" y="665" on="1"/>
        <pt x="635" y="608" on="1"/>
      </contour>
      <contour>
        <pt x="519" y="551" on="1"/>
        <pt x="372" y="245" on="1"/>
        <pt x="557" y="245" on="1"/>
        <pt x="521" y="551" on="1"/>
      </contour>
    </TTGlyph>
    <TTGlyph name="AE" xMin="-14" yMin="0" xMax="865" yMax="650">
      <contour>
        <pt x="865" y="650" on="1"/>
        <pt x="856" y="578" on="1"/>
        <pt x="604" y="578" on="1"/>
        <pt x="574" y="364" on="1"/>
        <pt x="796" y="364" on="1"/>
        <pt x="786" y="294" on="1"/>
        <pt x="564" y="294" on="1"/>
        <pt x="533" y="72" on="1"/>
        <pt x="799" y="72" on="1"/>
        <pt x="788" y="0" on="1"/>
        <pt x="385" y="0" on="1"/>
        <pt x="411" y="188" on="1"/>
        <pt x="201" y="188" on="1"/>
        <pt x="73" y="0" on="1"/>
        <pt x="-14" y="0" on="1"/>
        <pt x="439" y="650" on="1"/>
      </contour>
      <contour>
        <pt x="420" y="252" on="1"/>
        <pt x="466" y="578" on="1"/>
        <pt x="459" y="578" on="1"/>
        <pt x="244" y="252" on="1"/>
      </contour>
    </TTGlyph>
    <TTGlyph name="Aacute" xMin="19" yMin="0" xMax="590" yMax="865">
      <contour>
        <pt x="546" y="834" on="1"/>
        <pt x="407" y="704" on="1"/>
        <pt x="351" y="713" on="1"/>
        <pt x="442" y="865" on="1"/>
      </contour>
      <contour>
        <pt x="479" y="650" on="1"/>
        <pt x="590" y="0" on="1"/>
        <pt x="444" y="0" on="1"/>
        <pt x="414" y="182" on="1"/>
        <pt x="188" y="182" on="1"/>
        <pt x="103" y="0" on="1"/>
        <pt x="19" y="0" on="1"/>
        <pt x="326" y="650" on="1"/>
      </contour>
      <contour>
        <pt x="356" y="551" on="1"/>
        <pt x="216" y="245" on="1"/>
        <pt x="404" y="245" on="1"/>
        <pt x="357" y="551" on="1"/>
      </contour>
    </TTGlyph>
    <TTGlyph name="Abreve" xMin="19" yMin="0" xMax="590" yMax="830">
      <contour>
        <pt x="447" y="771" on="0"/>
        <pt x="487" y="795" on="0"/>
        <pt x="502" y="822" on="0"/>
        <pt x="502" y="826" on="1"/>
        <pt x="503" y="830" on="1"/>
        <pt x="568" y="821" on="1"/>
        <pt x="568" y="811" on="0"/>
        <pt x="544" y="753" on="0"/>
        <pt x="469" y="698" on="0"/>
        <pt x="400" y="698" on="1"/>
        <pt x="322" y="698" on="0"/>
        <pt x="267" y="766" on="0"/>
        <pt x="267" y="805" on="1"/>
        <pt x="267" y="811" on="0"/>
        <pt x="268" y="820" on="0"/>
        <pt x="268" y="821" on="1"/>
        <pt x="335" y="830" on="1"/>
        <pt x="335" y="826" on="1"/>
        <pt x="335" y="811" on="0"/>
        <pt x="361" y="771" on="0"/>
        <pt x="411" y="771" on="1"/>
      </contour>
      <contour>
        <pt x="479" y="650" on="1"/>
        <pt x="590" y="0" on="1"/>
        <pt x="444" y="0" on="1"/>
        <pt x="414" y="182" on="1"/>
        <pt x="188" y="182" on="1"/>
        <pt x="103" y="0" on="1"/>
        <pt x="19" y="0" on="1"/>
        <pt x="326" y="650" on="1"/>
      </contour>
      <contour>
        <pt x="356" y="551" on="1"/>
        <pt x="216" y="245" on="1"/>
        <pt x="404" y="245" on="1"/>
        <pt x="357" y="551" on="1"/>
      </contour>
    </TTGlyph>
    <TTGlyph name="Acircumflex" xMin="19" yMin="0" xMax="590" yMax="888">
      <contour>
        <pt x="534" y="766" on="1"/>
        <pt x="500" y="721" on="1"/>
        <pt x="408" y="806" on="1"/>
        <pt x="291" y="721" on="1"/>
        <pt x="269" y="766" on="1"/>
        <pt x="384" y="888" on="1"/>
        <pt x="454" y="888" on="1"/>
      </contour>
      <contour>
        <pt x="479" y="650" on="1"/>
        <pt x="590" y="0" on="1"/>
        <pt x="444" y="0" on="1"/>
        <pt x="414" y="182" on="1"/>
        <pt x="188" y="182" on="1"/>
        <pt x="103" y="0" on="1"/>
        <pt x="19" y="0" on="1"/>
        <pt x="326" y="650" on="1"/>
      </contour>
      <contour>
        <pt x="356" y="551" on="1"/>
        <pt x="216" y="245" on="1"/>
        <pt x="404" y="245" on="1"/>
        <pt x="357" y="551" on="1"/>
      </contour>
    </TTGlyph>
    <TTGlyph name="Adieresis" xMin="19" yMin="0" xMax="590" yMax="856">
      <contour>
        <pt x="297" y="856" on="0"/>
        <pt x="324" y="856" on="1"/>
        <pt x="350" y="856" on="0"/>
        <pt x="367" y="839" on="1"/>
        <pt x="381" y="820" on="0"/>
        <pt x="381" y="798" on="1"/>
        <pt x="381" y="761" on="0"/>
        <pt x="352" y="735" on="1"/>
        <pt x="330" y="717" on="0"/>
        <pt x="304" y="717" on="1"/>
        <pt x="278" y="717" on="0"/>
        <pt x="261" y="735" on="1"/>
        <pt x="247" y="752" on="0"/>
        <pt x="247" y="776" on="1"/>
        <pt x="247" y="793" on="0"/>
        <pt x="262" y="826" on="0"/>
        <pt x="275" y="839" on="1"/>
      </contour>
      <contour>
        <pt x="483" y="856" on="0"/>
        <pt x="509" y="856" on="1"/>
        <pt x="534" y="856" on="0"/>
        <pt x="553" y="839" on="1"/>
        <pt x="567" y="820" on="0"/>
        <pt x="567" y="798" on="1"/>
        <pt x="567" y="761" on="0"/>
        <pt x="538" y="735" on="1"/>
        <pt x="516" y="717" on="0"/>
        <pt x="489" y="717" on="1"/>
        <pt x="462" y="717" on="0"/>
        <pt x="447" y="735" on="1"/>
        <pt x="433" y="752" on="0"/>
        <pt x="433" y="776" on="1"/>
        <pt x="433" y="793" on="0"/>
        <pt x="448" y="826" on="0"/>
        <pt x="461" y="839" on="1"/>
      </contour>
      <contour>
        <pt x="479" y="650" on="1"/>
        <pt x="590" y="0" on="1"/>
        <pt x="444" y="0" on="1"/>
        <pt x="414" y="182" on="1"/>
        <pt x="188" y="182" on="1"/>
        <pt x="103" y="0" on="1"/>
        <pt x="19" y="0" on="1"/>
        <pt x="326" y="650" on="1"/>
      </contour>
      <contour>
        <pt x="356" y="551" on="1"/>
        <pt x="216" y="245" on="1"/>
        <pt x="404" y="245" on="1"/>
        <pt x="357" y="551" on="1"/>
      </contour>
    </TTGlyph>
    <TTGlyph name="Agrave" xMin="19" yMin="0" xMax="590" yMax="873">
      <contour>
        <pt x="386" y="873" on="1"/>
        <pt x="450" y="726" on="1"/>
        <pt x="386" y="709" on="1"/>
        <pt x="275" y="838" on="1"/>
      </contour>
      <contour>
        <pt x="479" y="650" on="1"/>
        <pt x="590" y="0" on="1"/>
        <pt x="444" y="0" on="1"/>
        <pt x="414" y="182" on="1"/>
        <pt x="188" y="182" on="1"/>
        <pt x="103" y="0" on="1"/>
        <pt x="19" y="0" on="1"/>
        <pt x="326" y="650" on="1"/>
      </contour>
      <contour>
        <pt x="356" y="551" on="1"/>
        <pt x="216" y="245" on="1"/>
        <pt x="404" y="245" on="1"/>
        <pt x="357" y="551" on="1"/>
      </contour>
    </TTGlyph>
    <TTGlyph name="Amacron" xMin="19" yMin="0" xMax="590" yMax="817">
      <contour>
        <pt x="513" y="759" on="1"/>
        <pt x="298" y="759" on="1"/>
        <pt x="306" y="817" on="1"/>
        <pt x="520" y="817" on="1"/>
      </contour>
      <contour>
        <pt x="479" y="650" on="1"/>
        <pt x="590" y="0" on="1"/>
        <pt x="444" y="0" on="1"/>
        <pt x="414" y="182" on="1"/>
        <pt x="188" y="182" on="1"/>
        <pt x="103" y="0" on="1"/>
        <pt x="19" y="0" on="1"/>
        <pt x="326" y="650" on="1"/>
      </contour>
      <contour>
        <pt x="356" y="551" on="1"/>
        <pt x="216" y="245" on="1"/>
        <pt x="404" y="245" on="1"/>
        <pt x="357" y="551" on="1"/>
      </contour>
    </TTGlyph>
    <TTGlyph name="AndrijType" xMin="145" yMin="46" xMax="1849" yMax="487">
      <contour>
        <pt x="656" y="221" on="0"/>
        <pt x="687" y="306" on="0"/>
        <pt x="687" y="334" on="1"/>
        <pt x="687" y="375" on="0"/>
        <pt x="618" y="445" on="0"/>
        <pt x="553" y="467" on="1"/>
        <pt x="557" y="468" on="0"/>
        <pt x="585" y="486" on="0"/>
        <pt x="595" y="487" on="1"/>
        <pt x="606" y="487" on="0"/>
        <pt x="670" y="454" on="0"/>
        <pt x="723" y="389" on="0"/>
        <pt x="723" y="343" on="1"/>
        <pt x="723" y="314" on="0"/>
        <pt x="691" y="243" on="0"/>
        <pt x="641" y="194" on="0"/>
        <pt x="616" y="194" on="1"/>
        <pt x="595" y="194" on="0"/>
        <pt x="595" y="220" on="1"/>
        <pt x="595" y="248" on="0"/>
        <pt x="620" y="307" on="0"/>
        <pt x="636" y="331" on="1"/>
        <pt x="641" y="337" on="0"/>
        <pt x="649" y="337" on="1"/>
        <pt x="653" y="337" on="0"/>
        <pt x="671" y="332" on="0"/>
        <pt x="676" y="332" on="1"/>
        <pt x="660" y="312" on="0"/>
        <pt x="641" y="255" on="0"/>
        <pt x="641" y="225" on="1"/>
        <pt x="641" y="221" on="0"/>
        <pt x="643" y="213" on="1"/>
      </contour>
      <contour>
        <pt x="1042" y="451" on="0"/>
        <pt x="1042" y="450" on="1"/>
        <pt x="1042" y="449" on="0"/>
        <pt x="1018" y="442" on="0"/>
        <pt x="1003" y="430" on="1"/>
        <pt x="1000" y="427" on="1"/>
        <pt x="991" y="418" on="0"/>
        <pt x="970" y="409" on="0"/>
        <pt x="949" y="409" on="1"/>
        <pt x="940" y="409" on="0"/>
        <pt x="940" y="410" on="1"/>
        <pt x="943" y="413" on="0"/>
        <pt x="968" y="433" on="0"/>
        <pt x="1010" y="451" on="0"/>
        <pt x="1035" y="451" on="1"/>
      </contour>
      <contour>
        <pt x="145" y="257" on="0"/>
        <pt x="165" y="325" on="0"/>
        <pt x="217" y="355" on="0"/>
        <pt x="265" y="355" on="1"/>
        <pt x="299" y="355" on="0"/>
        <pt x="337" y="349" on="1"/>
        <pt x="341" y="353" on="0"/>
        <pt x="374" y="384" on="0"/>
        <pt x="385" y="390" on="1"/>
        <pt x="388" y="392" on="0"/>
        <pt x="420" y="399" on="0"/>
        <pt x="427" y="400" on="1"/>
        <pt x="423" y="389" on="1"/>
        <pt x="396" y="318" on="0"/>
        <pt x="366" y="217" on="0"/>
        <pt x="365" y="165" on="1"/>
        <pt x="365" y="161" on="0"/>
        <pt x="335" y="153" on="0"/>
        <pt x="323" y="153" on="1"/>
        <pt x="316" y="154" on="1"/>
        <pt x="317" y="198" on="0"/>
        <pt x="340" y="284" on="0"/>
        <pt x="361" y="343" on="1"/>
        <pt x="328" y="307" on="0"/>
        <pt x="225" y="220" on="0"/>
        <pt x="190" y="198" on="1"/>
        <pt x="184" y="195" on="0"/>
        <pt x="155" y="190" on="0"/>
        <pt x="148" y="190" on="1"/>
        <pt x="146" y="190" on="0"/>
        <pt x="145" y="191" on="1"/>
        <pt x="145" y="195" on="1"/>
      </contour>
      <contour>
        <pt x="872" y="385" on="0"/>
        <pt x="891" y="365" on="0"/>
        <pt x="893" y="357" on="1"/>
        <pt x="869" y="357" on="0"/>
        <pt x="808" y="344" on="0"/>
        <pt x="799" y="337" on="1"/>
        <pt x="786" y="328" on="0"/>
        <pt x="773" y="281" on="0"/>
        <pt x="769" y="246" on="1"/>
        <pt x="765" y="220" on="0"/>
        <pt x="762" y="208" on="1"/>
        <pt x="760" y="201" on="0"/>
        <pt x="716" y="201" on="0"/>
        <pt x="713" y="200" on="1"/>
        <pt x="716" y="212" on="1"/>
        <pt x="717" y="217" on="1"/>
        <pt x="730" y="263" on="0"/>
        <pt x="756" y="323" on="0"/>
        <pt x="778" y="339" on="1"/>
        <pt x="834" y="376" on="0"/>
        <pt x="864" y="385" on="1"/>
      </contour>
      <contour>
        <pt x="1295" y="359" on="0"/>
        <pt x="1311" y="366" on="1"/>
        <pt x="1319" y="371" on="0"/>
        <pt x="1333" y="371" on="1"/>
        <pt x="1345" y="371" on="0"/>
        <pt x="1345" y="366" on="1"/>
        <pt x="1345" y="358" on="0"/>
        <pt x="1323" y="352" on="1"/>
        <pt x="1308" y="326" on="0"/>
        <pt x="1290" y="250" on="1"/>
        <pt x="1314" y="285" on="0"/>
        <pt x="1380" y="333" on="0"/>
        <pt x="1405" y="333" on="1"/>
        <pt x="1405" y="329" on="1"/>
        <pt x="1405" y="301" on="0"/>
        <pt x="1358" y="170" on="0"/>
        <pt x="1251" y="54" on="0"/>
        <pt x="1164" y="46" on="1"/>
        <pt x="1167" y="75" on="0"/>
        <pt x="1220" y="132" on="0"/>
        <pt x="1253" y="152" on="1"/>
        <pt x="1255" y="148" on="1"/>
        <pt x="1217" y="118" on="0"/>
        <pt x="1207" y="67" on="1"/>
        <pt x="1274" y="88" on="0"/>
        <pt x="1344" y="218" on="0"/>
        <pt x="1354" y="288" on="1"/>
        <pt x="1311" y="262" on="0"/>
        <pt x="1282" y="207" on="1"/>
        <pt x="1280" y="202" on="0"/>
        <pt x="1243" y="199" on="0"/>
        <pt x="1236" y="199" on="1"/>
        <pt x="1242" y="248" on="0"/>
        <pt x="1258" y="316" on="0"/>
        <pt x="1277" y="345" on="1"/>
        <pt x="1261" y="345" on="0"/>
        <pt x="1219" y="348" on="0"/>
        <pt x="1208" y="350" on="1"/>
        <pt x="1174" y="255" on="0"/>
        <pt x="1160" y="179" on="1"/>
        <pt x="1159" y="175" on="0"/>
        <pt x="1126" y="169" on="0"/>
        <pt x="1115" y="169" on="1"/>
        <pt x="1111" y="170" on="1"/>
        <pt x="1111" y="186" on="0"/>
        <pt x="1146" y="298" on="0"/>
        <pt x="1166" y="355" on="1"/>
        <pt x="1158" y="356" on="0"/>
        <pt x="1135" y="360" on="1"/>
        <pt x="1100" y="365" on="0"/>
        <pt x="1093" y="365" on="1"/>
        <pt x="1053" y="365" on="0"/>
        <pt x="1038" y="332" on="1"/>
        <pt x="1033" y="332" on="1"/>
        <pt x="1022" y="332" on="0"/>
        <pt x="1006" y="341" on="0"/>
        <pt x="1005" y="348" on="1"/>
        <pt x="1020" y="384" on="0"/>
        <pt x="1072" y="384" on="1"/>
        <pt x="1088" y="384" on="0"/>
        <pt x="1130" y="377" on="0"/>
        <pt x="1149" y="373" on="1"/>
        <pt x="1171" y="369" on="1"/>
        <pt x="1181" y="370" on="0"/>
        <pt x="1195" y="376" on="1"/>
        <pt x="1207" y="383" on="0"/>
        <pt x="1222" y="385" on="1"/>
        <pt x="1213" y="365" on="1"/>
        <pt x="1245" y="359" on="0"/>
        <pt x="1273" y="359" on="1"/>
      </contour>
      <contour>
        <pt x="914" y="362" on="0"/>
        <pt x="961" y="362" on="1"/>
        <pt x="943" y="217" on="0"/>
        <pt x="875" y="133" on="1"/>
        <pt x="847" y="100" on="0"/>
        <pt x="756" y="55" on="0"/>
        <pt x="722" y="55" on="1"/>
        <pt x="725" y="84" on="0"/>
        <pt x="777" y="140" on="0"/>
        <pt x="811" y="160" on="1"/>
        <pt x="814" y="157" on="1"/>
        <pt x="774" y="125" on="0"/>
        <pt x="764" y="76" on="1"/>
        <pt x="820" y="103" on="0"/>
        <pt x="882" y="194" on="0"/>
        <pt x="905" y="288" on="0"/>
        <pt x="913" y="353" on="1"/>
      </contour>
      <contour>
        <pt x="597" y="356" on="0"/>
        <pt x="597" y="352" on="1"/>
        <pt x="597" y="348" on="0"/>
        <pt x="589" y="330" on="1"/>
        <pt x="576" y="302" on="0"/>
        <pt x="559" y="243" on="0"/>
        <pt x="559" y="205" on="1"/>
        <pt x="558" y="201" on="0"/>
        <pt x="537" y="197" on="0"/>
        <pt x="525" y="197" on="1"/>
        <pt x="514" y="197" on="0"/>
        <pt x="512" y="199" on="1"/>
        <pt x="512" y="233" on="0"/>
        <pt x="522" y="273" on="0"/>
        <pt x="537" y="307" on="0"/>
        <pt x="540" y="314" on="1"/>
        <pt x="524" y="314" on="0"/>
        <pt x="468" y="244" on="0"/>
        <pt x="452" y="208" on="1"/>
        <pt x="450" y="203" on="0"/>
        <pt x="413" y="199" on="0"/>
        <pt x="406" y="199" on="1"/>
        <pt x="430" y="316" on="0"/>
        <pt x="452" y="353" on="1"/>
        <pt x="456" y="359" on="0"/>
        <pt x="484" y="359" on="1"/>
        <pt x="492" y="359" on="1"/>
        <pt x="498" y="360" on="1"/>
        <pt x="481" y="334" on="0"/>
        <pt x="461" y="252" on="1"/>
        <pt x="496" y="302" on="0"/>
        <pt x="552" y="356" on="0"/>
        <pt x="586" y="356" on="1"/>
      </contour>
      <contour>
        <pt x="1605" y="310" on="0"/>
        <pt x="1576" y="250" on="0"/>
        <pt x="1533" y="203" on="0"/>
        <pt x="1513" y="203" on="1"/>
        <pt x="1506" y="203" on="0"/>
        <pt x="1485" y="212" on="0"/>
        <pt x="1480" y="212" on="1"/>
        <pt x="1508" y="230" on="0"/>
        <pt x="1544" y="285" on="0"/>
        <pt x="1559" y="322" on="1"/>
        <pt x="1530" y="311" on="0"/>
        <pt x="1467" y="248" on="0"/>
        <pt x="1454" y="208" on="1"/>
        <pt x="1449" y="192" on="0"/>
        <pt x="1435" y="111" on="0"/>
        <pt x="1435" y="93" on="1"/>
        <pt x="1432" y="88" on="1"/>
        <pt x="1427" y="88" on="0"/>
        <pt x="1412" y="86" on="0"/>
        <pt x="1403" y="86" on="1"/>
        <pt x="1387" y="86" on="0"/>
        <pt x="1387" y="91" on="1"/>
        <pt x="1400" y="153" on="1"/>
        <pt x="1412" y="215" on="0"/>
        <pt x="1435" y="308" on="0"/>
        <pt x="1450" y="349" on="1"/>
        <pt x="1454" y="350" on="0"/>
        <pt x="1479" y="360" on="0"/>
        <pt x="1491" y="360" on="1"/>
        <pt x="1495" y="360" on="0"/>
        <pt x="1501" y="358" on="1"/>
        <pt x="1478" y="320" on="0"/>
        <pt x="1464" y="266" on="0"/>
        <pt x="1463" y="264" on="1"/>
        <pt x="1484" y="292" on="0"/>
        <pt x="1550" y="343" on="0"/>
        <pt x="1581" y="343" on="1"/>
        <pt x="1605" y="343" on="0"/>
        <pt x="1605" y="324" on="1"/>
      </contour>
      <contour>
        <pt x="1704" y="208" on="0"/>
        <pt x="1678" y="187" on="0"/>
        <pt x="1644" y="170" on="0"/>
        <pt x="1630" y="170" on="1"/>
        <pt x="1612" y="170" on="0"/>
        <pt x="1600" y="191" on="0"/>
        <pt x="1600" y="210" on="1"/>
        <pt x="1600" y="243" on="0"/>
        <pt x="1632" y="307" on="0"/>
        <pt x="1687" y="347" on="0"/>
        <pt x="1719" y="347" on="1"/>
        <pt x="1729" y="347" on="0"/>
        <pt x="1740" y="337" on="0"/>
        <pt x="1740" y="328" on="1"/>
        <pt x="1740" y="315" on="0"/>
        <pt x="1721" y="286" on="0"/>
        <pt x="1708" y="282" on="1"/>
        <pt x="1714" y="281" on="0"/>
        <pt x="1726" y="281" on="1"/>
        <pt x="1789" y="281" on="0"/>
        <pt x="1807" y="328" on="1"/>
        <pt x="1811" y="326" on="0"/>
        <pt x="1821" y="326" on="1"/>
        <pt x="1834" y="326" on="1"/>
        <pt x="1845" y="326" on="0"/>
        <pt x="1849" y="322" on="1"/>
        <pt x="1837" y="293" on="0"/>
        <pt x="1755" y="268" on="0"/>
        <pt x="1704" y="268" on="1"/>
        <pt x="1666" y="268" on="0"/>
        <pt x="1646" y="272" on="1"/>
        <pt x="1638" y="259" on="0"/>
        <pt x="1638" y="229" on="1"/>
        <pt x="1638" y="213" on="0"/>
        <pt x="1643" y="191" on="0"/>
        <pt x="1648" y="191" on="1"/>
        <pt x="1659" y="191" on="0"/>
        <pt x="1698" y="217" on="0"/>
        <pt x="1700" y="217" on="1"/>
        <pt x="1704" y="217" on="0"/>
        <pt x="1704" y="213" on="1"/>
      </contour>
      <contour>
        <pt x="305" y="336" on="0"/>
        <pt x="256" y="345" on="0"/>
        <pt x="246" y="345" on="1"/>
        <pt x="231" y="345" on="0"/>
        <pt x="226" y="337" on="1"/>
        <pt x="202" y="302" on="0"/>
        <pt x="199" y="226" on="1"/>
        <pt x="260" y="269" on="0"/>
        <pt x="321" y="332" on="1"/>
      </contour>
      <contour>
        <pt x="1684" y="330" on="0"/>
        <pt x="1660" y="303" on="0"/>
        <pt x="1654" y="288" on="1"/>
        <pt x="1669" y="286" on="1"/>
        <pt x="1679" y="293" on="0"/>
        <pt x="1695" y="316" on="0"/>
        <pt x="1695" y="324" on="1"/>
        <pt x="1695" y="330" on="0"/>
        <pt x="1690" y="330" on="1"/>
      </contour>
      <contour>
        <pt x="874" y="323" on="0"/>
        <pt x="876" y="322" on="0"/>
        <pt x="876" y="322" on="1"/>
        <pt x="861" y="273" on="0"/>
        <pt x="856" y="244" on="1"/>
        <pt x="853" y="230" on="0"/>
        <pt x="847" y="214" on="0"/>
        <pt x="841" y="210" on="0"/>
        <pt x="832" y="209" on="1"/>
        <pt x="827" y="209" on="0"/>
        <pt x="824" y="208" on="1"/>
        <pt x="823" y="208" on="0"/>
        <pt x="811" y="206" on="0"/>
        <pt x="802" y="205" on="1"/>
        <pt x="799" y="205" on="0"/>
        <pt x="799" y="206" on="1"/>
        <pt x="814" y="256" on="0"/>
        <pt x="820" y="288" on="1"/>
        <pt x="825" y="310" on="0"/>
        <pt x="831" y="318" on="0"/>
        <pt x="843" y="320" on="1"/>
        <pt x="848" y="320" on="0"/>
        <pt x="851" y="321" on="1"/>
        <pt x="852" y="321" on="0"/>
        <pt x="864" y="323" on="0"/>
        <pt x="873" y="323" on="1"/>
      </contour>
      <contour>
        <pt x="1015" y="264" on="0"/>
        <pt x="1046" y="270" on="0"/>
        <pt x="1054" y="270" on="1"/>
        <pt x="1061" y="270" on="0"/>
        <pt x="1061" y="269" on="1"/>
        <pt x="1061" y="265" on="0"/>
        <pt x="1031" y="238" on="0"/>
        <pt x="1030" y="237" on="1"/>
        <pt x="1028" y="235" on="0"/>
        <pt x="999" y="229" on="0"/>
        <pt x="988" y="229" on="1"/>
        <pt x="982" y="229" on="0"/>
        <pt x="982" y="230" on="1"/>
        <pt x="984" y="232" on="0"/>
        <pt x="1007" y="251" on="0"/>
        <pt x="1012" y="260" on="1"/>
      </contour>
    </TTGlyph>
    <TTGlyph name="Aogonek" xMin="19" yMin="-250" xMax="590" yMax="650">
      <contour>
        <pt x="590" y="0" on="1"/>
        <pt x="508" y="0" on="1"/>
        <pt x="476" y="-16" on="0"/>
        <pt x="419" y="-88" on="0"/>
        <pt x="419" y="-148" on="1"/>
        <pt x="419" y="-178" on="0"/>
        <pt x="454" y="-201" on="0"/>
        <pt x="488" y="-201" on="1"/>
        <pt x="481" y="-250" on="1"/>
        <pt x="411" y="-250" on="0"/>
        <pt x="331" y="-208" on="0"/>
        <pt x="331" y="-152" on="1"/>
        <pt x="331" y="-104" on="0"/>
        <pt x="397" y="-25" on="0"/>
        <pt x="443" y="2" on="1"/>
        <pt x="414" y="182" on="1"/>
        <pt x="188" y="182" on="1"/>
        <pt x="103" y="0" on="1"/>
        <pt x="19" y="0" on="1"/>
        <pt x="326" y="650" on="1"/>
        <pt x="479" y="650" on="1"/>
      </contour>
      <contour>
        <pt x="356" y="551" on="1"/>
        <pt x="216" y="245" on="1"/>
        <pt x="404" y="245" on="1"/>
        <pt x="357" y="551" on="1"/>
      </contour>
    </TTGlyph>
    <TTGlyph name="Aring" xMin="19" yMin="0" xMax="590" yMax="898">
      <contour>
        <pt x="514" y="751" on="0"/>
        <pt x="447" y="683" on="0"/>
        <pt x="395" y="683" on="1"/>
        <pt x="352" y="683" on="0"/>
        <pt x="302" y="731" on="0"/>
        <pt x="302" y="774" on="1"/>
        <pt x="302" y="831" on="0"/>
        <pt x="369" y="898" on="0"/>
        <pt x="421" y="898" on="1"/>
        <pt x="462" y="898" on="0"/>
        <pt x="514" y="849" on="0"/>
        <pt x="514" y="807" on="1"/>
      </contour>
      <contour>
        <pt x="469" y="829" on="0"/>
        <pt x="439" y="856" on="0"/>
        <pt x="416" y="856" on="1"/>
        <pt x="386" y="856" on="0"/>
        <pt x="348" y="817" on="0"/>
        <pt x="348" y="780" on="1"/>
        <pt x="348" y="754" on="0"/>
        <pt x="377" y="726" on="0"/>
        <pt x="401" y="726" on="1"/>
        <pt x="432" y="726" on="0"/>
        <pt x="469" y="766" on="0"/>
        <pt x="469" y="803" on="1"/>
      </contour>
      <contour>
        <pt x="479" y="650" on="1"/>
        <pt x="590" y="0" on="1"/>
        <pt x="444" y="0" on="1"/>
        <pt x="414" y="182" on="1"/>
        <pt x="188" y="182" on="1"/>
        <pt x="103" y="0" on="1"/>
        <pt x="19" y="0" on="1"/>
        <pt x="326" y="650" on="1"/>
      </contour>
      <contour>
        <pt x="356" y="551" on="1"/>
        <pt x="216" y="245" on="1"/>
        <pt x="404" y="245" on="1"/>
        <pt x="357" y="551" on="1"/>
      </contour>
    </TTGlyph>
    <TTGlyph name="Atilde" xMin="19" yMin="0" xMax="595" yMax="855">
      <contour>
        <pt x="595" y="802" on="0"/>
        <pt x="565" y="761" on="0"/>
        <pt x="511" y="726" on="0"/>
        <pt x="472" y="726" on="1"/>
        <pt x="450" y="726" on="0"/>
        <pt x="418" y="738" on="0"/>
        <pt x="393" y="751" on="1"/>
        <pt x="373" y="762" on="0"/>
        <pt x="342" y="774" on="0"/>
        <pt x="323" y="774" on="1"/>
        <pt x="307" y="774" on="0"/>
        <pt x="279" y="754" on="0"/>
        <pt x="262" y="732" on="0"/>
        <pt x="260" y="729" on="1"/>
        <pt x="229" y="765" on="1"/>
        <pt x="229" y="768" on="0"/>
        <pt x="266" y="815" on="0"/>
        <pt x="326" y="855" on="0"/>
        <pt x="364" y="855" on="1"/>
        <pt x="390" y="855" on="0"/>
        <pt x="426" y="842" on="0"/>
        <pt x="450" y="829" on="1"/>
        <pt x="469" y="818" on="0"/>
        <pt x="494" y="808" on="0"/>
        <pt x="510" y="808" on="1"/>
        <pt x="526" y="808" on="0"/>
        <pt x="550" y="822" on="0"/>
        <pt x="563" y="838" on="0"/>
        <pt x="564" y="840" on="1"/>
        <pt x="595" y="805" on="1"/>
      </contour>
      <contour>
        <pt x="479" y="650" on="1"/>
        <pt x="590" y="0" on="1"/>
        <pt x="444" y="0" on="1"/>
        <pt x="414" y="182" on="1"/>
        <pt x="188" y="182" on="1"/>
        <pt x="103" y="0" on="1"/>
        <pt x="19" y="0" on="1"/>
        <pt x="326" y="650" on="1"/>
      </contour>
      <contour>
        <pt x="356" y="551" on="1"/>
        <pt x="216" y="245" on="1"/>
        <pt x="404" y="245" on="1"/>
        <pt x="357" y="551" on="1"/>
      </contour>
    </TTGlyph>
    <TTGlyph name="B" xMin="77" yMin="0" xMax="574" yMax="650">
      <contour>
        <pt x="366" y="650" on="1"/>
        <pt x="471" y="650" on="0"/>
        <pt x="574" y="567" on="0"/>
        <pt x="574" y="503" on="1"/>
        <pt x="574" y="445" on="0"/>
        <pt x="506" y="363" on="0"/>
        <pt x="455" y="339" on="1"/>
        <pt x="504" y="323" on="0"/>
        <pt x="561" y="258" on="0"/>
        <pt x="561" y="210" on="1"/>
        <pt x="561" y="151" on="0"/>
        <pt x="497" y="55" on="0"/>
        <pt x="370" y="0" on="0"/>
        <pt x="280" y="0" on="1"/>
        <pt x="77" y="0" on="1"/>
        <pt x="168" y="650" on="1"/>
      </contour>
      <contour>
        <pt x="367" y="361" on="0"/>
        <pt x="410" y="394" on="0"/>
        <pt x="439" y="455" on="0"/>
        <pt x="439" y="497" on="1"/>
        <pt x="439" y="542" on="0"/>
        <pt x="393" y="585" on="0"/>
        <pt x="354" y="585" on="1"/>
        <pt x="298" y="585" on="1"/>
        <pt x="266" y="361" on="1"/>
        <pt x="348" y="361" on="1"/>
      </contour>
      <contour>
        <pt x="224" y="65" on="1"/>
        <pt x="286" y="65" on="1"/>
        <pt x="347" y="65" on="0"/>
        <pt x="423" y="150" on="0"/>
        <pt x="423" y="219" on="1"/>
        <pt x="423" y="262" on="0"/>
        <pt x="382" y="301" on="0"/>
        <pt x="347" y="301" on="1"/>
        <pt x="257" y="301" on="1"/>
      </contour>
    </TTGlyph>
    <TTGlyph name="B.swsh" xMin="96" yMin="0" xMax="830" yMax="723">
      <contour>
        <pt x="726" y="650" on="0"/>
        <pt x="830" y="563" on="0"/>
        <pt x="830" y="499" on="1"/>
        <pt x="830" y="441" on="0"/>
        <pt x="764" y="362" on="0"/>
        <pt x="713" y="338" on="1"/>
        <pt x="761" y="322" on="0"/>
        <pt x="817" y="254" on="0"/>
        <pt x="817" y="206" on="1"/>
        <pt x="817" y="147" on="0"/>
        <pt x="753" y="54" on="0"/>
        <pt x="627" y="0" on="0"/>
        <pt x="536" y="0" on="1"/>
        <pt x="322" y="0" on="1"/>
        <pt x="339" y="68" on="0"/>
        <pt x="371" y="265" on="0"/>
        <pt x="410" y="542" on="1"/>
        <pt x="414" y="572" on="0"/>
        <pt x="417" y="586" on="1"/>
        <pt x="416" y="586" on="1"/>
        <pt x="340" y="586" on="0"/>
        <pt x="229" y="531" on="0"/>
        <pt x="170" y="437" on="0"/>
        <pt x="170" y="381" on="1"/>
        <pt x="170" y="346" on="0"/>
        <pt x="182" y="310" on="1"/>
        <pt x="115" y="279" on="1"/>
        <pt x="96" y="327" on="0"/>
        <pt x="96" y="377" on="1"/>
        <pt x="96" y="451" on="0"/>
        <pt x="178" y="576" on="0"/>
        <pt x="328" y="650" on="0"/>
        <pt x="425" y="650" on="1"/>
        <pt x="432" y="650" on="1"/>
        <pt x="451" y="706" on="0"/>
        <pt x="479" y="723" on="1"/>
        <pt x="583" y="709" on="1"/>
        <pt x="574" y="684" on="0"/>
        <pt x="565" y="650" on="1"/>
        <pt x="622" y="650" on="1"/>
      </contour>
      <contour>
        <pt x="605" y="361" on="1"/>
        <pt x="624" y="361" on="0"/>
        <pt x="666" y="388" on="0"/>
        <pt x="695" y="450" on="0"/>
        <pt x="695" y="497" on="1"/>
        <pt x="695" y="542" on="0"/>
        <pt x="649" y="585" on="0"/>
        <pt x="610" y="585" on="1"/>
        <pt x="554" y="585" on="1"/>
        <pt x="548" y="541" on="1"/>
        <pt x="521" y="361" on="1"/>
      </contour>
      <contour>
        <pt x="482" y="131" on="0"/>
        <pt x="467" y="65" on="1"/>
        <pt x="542" y="65" on="1"/>
        <pt x="605" y="65" on="0"/>
        <pt x="679" y="143" on="0"/>
        <pt x="679" y="219" on="1"/>
        <pt x="679" y="301" on="0"/>
        <pt x="603" y="301" on="1"/>
        <pt x="511" y="301" on="1"/>
      </contour>
    </TTGlyph>
    <TTGlyph name="C" xMin="76" yMin="-11" xMax="614" yMax="660">
      <contour>
        <pt x="586" y="536" on="0"/>
        <pt x="536" y="561" on="0"/>
        <pt x="464" y="585" on="0"/>
        <pt x="431" y="585" on="1"/>
        <pt x="338" y="585" on="0"/>
        <pt x="225" y="421" on="0"/>
        <pt x="225" y="242" on="1"/>
        <pt x="225" y="151" on="0"/>
        <pt x="304" y="64" on="0"/>
        <pt x="375" y="64" on="1"/>
        <pt x="423" y="64" on="0"/>
        <pt x="498" y="104" on="0"/>
        <pt x="545" y="150" on="0"/>
        <pt x="545" y="153" on="1"/>
        <pt x="581" y="105" on="1"/>
        <pt x="581" y="100" on="0"/>
        <pt x="524" y="41" on="0"/>
        <pt x="419" y="-11" on="0"/>
        <pt x="345" y="-11" on="1"/>
        <pt x="216" y="-11" on="0"/>
        <pt x="76" y="131" on="0"/>
        <pt x="76" y="256" on="1"/>
        <pt x="76" y="373" on="0"/>
        <pt x="162" y="556" on="0"/>
        <pt x="319" y="660" on="0"/>
        <pt x="424" y="660" on="1"/>
        <pt x="470" y="660" on="0"/>
        <pt x="555" y="636" on="0"/>
        <pt x="614" y="606" on="0"/>
        <pt x="614" y="605" on="1"/>
        <pt x="593" y="532" on="1"/>
      </contour>
    </TTGlyph>
    <TTGlyph name="C.swsh" xMin="86" yMin="-116" xMax="667" yMax="660">
      <contour>
        <pt x="542" y="376" on="0"/>
        <pt x="586" y="453" on="0"/>
        <pt x="586" y="491" on="1"/>
        <pt x="586" y="532" on="0"/>
        <pt x="528" y="585" on="0"/>
        <pt x="468" y="585" on="1"/>
        <pt x="364" y="585" on="0"/>
        <pt x="235" y="394" on="0"/>
        <pt x="235" y="165" on="1"/>
        <pt x="235" y="53" on="0"/>
        <pt x="306" y="-41" on="0"/>
        <pt x="376" y="-41" on="1"/>
        <pt x="423" y="-41" on="0"/>
        <pt x="497" y="-5" on="0"/>
        <pt x="543" y="38" on="0"/>
        <pt x="543" y="41" on="1"/>
        <pt x="580" y="-7" on="1"/>
        <pt x="580" y="-12" on="0"/>
        <pt x="523" y="-68" on="0"/>
        <pt x="416" y="-116" on="0"/>
        <pt x="339" y="-116" on="1"/>
        <pt x="215" y="-116" on="0"/>
        <pt x="86" y="38" on="0"/>
        <pt x="86" y="184" on="1"/>
        <pt x="86" y="333" on="0"/>
        <pt x="184" y="548" on="0"/>
        <pt x="356" y="660" on="0"/>
        <pt x="465" y="660" on="1"/>
        <pt x="567" y="660" on="0"/>
        <pt x="667" y="574" on="0"/>
        <pt x="667" y="508" on="1"/>
        <pt x="667" y="456" on="0"/>
        <pt x="607" y="353" on="0"/>
        <pt x="558" y="323" on="1"/>
        <pt x="508" y="356" on="1"/>
      </contour>
    </TTGlyph>
    <TTGlyph name="Cacute" xMin="76" yMin="-11" xMax="614" yMax="865">
      <contour>
        <pt x="562" y="834" on="1"/>
        <pt x="423" y="704" on="1"/>
        <pt x="367" y="713" on="1"/>
        <pt x="458" y="865" on="1"/>
      </contour>
      <contour>
        <pt x="586" y="536" on="0"/>
        <pt x="536" y="561" on="0"/>
        <pt x="464" y="585" on="0"/>
        <pt x="431" y="585" on="1"/>
        <pt x="338" y="585" on="0"/>
        <pt x="225" y="421" on="0"/>
        <pt x="225" y="242" on="1"/>
        <pt x="225" y="151" on="0"/>
        <pt x="304" y="64" on="0"/>
        <pt x="375" y="64" on="1"/>
        <pt x="423" y="64" on="0"/>
        <pt x="498" y="104" on="0"/>
        <pt x="545" y="150" on="0"/>
        <pt x="545" y="153" on="1"/>
        <pt x="581" y="105" on="1"/>
        <pt x="581" y="100" on="0"/>
        <pt x="524" y="41" on="0"/>
        <pt x="419" y="-11" on="0"/>
        <pt x="345" y="-11" on="1"/>
        <pt x="216" y="-11" on="0"/>
        <pt x="76" y="131" on="0"/>
        <pt x="76" y="256" on="1"/>
        <pt x="76" y="373" on="0"/>
        <pt x="162" y="556" on="0"/>
        <pt x="319" y="660" on="0"/>
        <pt x="424" y="660" on="1"/>
        <pt x="470" y="660" on="0"/>
        <pt x="555" y="636" on="0"/>
        <pt x="614" y="606" on="0"/>
        <pt x="614" y="605" on="1"/>
        <pt x="593" y="532" on="1"/>
      </contour>
    </TTGlyph>
    <TTGlyph name="Ccaron" xMin="76" yMin="-11" xMax="614" yMax="880">
      <contour>
        <pt x="286" y="845" on="1"/>
        <pt x="333" y="880" on="1"/>
        <pt x="428" y="787" on="1"/>
        <pt x="549" y="880" on="1"/>
        <pt x="586" y="841" on="1"/>
        <pt x="452" y="707" on="1"/>
        <pt x="382" y="707" on="1"/>
      </contour>
      <contour>
        <pt x="586" y="536" on="0"/>
        <pt x="536" y="561" on="0"/>
        <pt x="464" y="585" on="0"/>
        <pt x="431" y="585" on="1"/>
        <pt x="338" y="585" on="0"/>
        <pt x="225" y="421" on="0"/>
        <pt x="225" y="242" on="1"/>
        <pt x="225" y="151" on="0"/>
        <pt x="304" y="64" on="0"/>
        <pt x="375" y="64" on="1"/>
        <pt x="423" y="64" on="0"/>
        <pt x="498" y="104" on="0"/>
        <pt x="545" y="150" on="0"/>
        <pt x="545" y="153" on="1"/>
        <pt x="581" y="105" on="1"/>
        <pt x="581" y="100" on="0"/>
        <pt x="524" y="41" on="0"/>
        <pt x="419" y="-11" on="0"/>
        <pt x="345" y="-11" on="1"/>
        <pt x="216" y="-11" on="0"/>
        <pt x="76" y="131" on="0"/>
        <pt x="76" y="256" on="1"/>
        <pt x="76" y="373" on="0"/>
        <pt x="162" y="556" on="0"/>
        <pt x="319" y="660" on="0"/>
        <pt x="424" y="660" on="1"/>
        <pt x="470" y="660" on="0"/>
        <pt x="555" y="636" on="0"/>
        <pt x="614" y="606" on="0"/>
        <pt x="614" y="605" on="1"/>
        <pt x="593" y="532" on="1"/>
      </contour>
    </TTGlyph>
    <TTGlyph name="Ccedilla" xMin="76" yMin="-251" xMax="614" yMax="660">
      <contour>
        <pt x="586" y="536" on="0"/>
        <pt x="536" y="561" on="0"/>
        <pt x="464" y="585" on="0"/>
        <pt x="431" y="585" on="1"/>
        <pt x="338" y="585" on="0"/>
        <pt x="225" y="421" on="0"/>
        <pt x="225" y="242" on="1"/>
        <pt x="225" y="151" on="0"/>
        <pt x="304" y="64" on="0"/>
        <pt x="375" y="64" on="1"/>
        <pt x="423" y="64" on="0"/>
        <pt x="498" y="104" on="0"/>
        <pt x="545" y="150" on="0"/>
        <pt x="545" y="153" on="1"/>
        <pt x="581" y="105" on="1"/>
        <pt x="581" y="100" on="0"/>
        <pt x="524" y="41" on="0"/>
        <pt x="420" y="-11" on="0"/>
        <pt x="346" y="-11" on="1"/>
        <pt x="336" y="-58" on="1"/>
        <pt x="336" y="-59" on="0"/>
        <pt x="377" y="-75" on="0"/>
        <pt x="412" y="-109" on="0"/>
        <pt x="412" y="-139" on="1"/>
        <pt x="412" y="-188" on="0"/>
        <pt x="345" y="-251" on="0"/>
        <pt x="282" y="-251" on="1"/>
        <pt x="249" y="-251" on="0"/>
        <pt x="210" y="-231" on="0"/>
        <pt x="193" y="-208" on="0"/>
        <pt x="193" y="-205" on="1"/>
        <pt x="223" y="-176" on="1"/>
        <pt x="224" y="-178" on="0"/>
        <pt x="235" y="-192" on="0"/>
        <pt x="257" y="-205" on="0"/>
        <pt x="273" y="-205" on="1"/>
        <pt x="333" y="-205" on="0"/>
        <pt x="333" y="-142" on="1"/>
        <pt x="333" y="-122" on="0"/>
        <pt x="306" y="-105" on="0"/>
        <pt x="279" y="-99" on="0"/>
        <pt x="279" y="-98" on="1"/>
        <pt x="302" y="-9" on="1"/>
        <pt x="193" y="2" on="0"/>
        <pt x="76" y="142" on="0"/>
        <pt x="76" y="256" on="1"/>
        <pt x="76" y="373" on="0"/>
        <pt x="162" y="556" on="0"/>
        <pt x="319" y="660" on="0"/>
        <pt x="424" y="660" on="1"/>
        <pt x="470" y="660" on="0"/>
        <pt x="555" y="636" on="0"/>
        <pt x="614" y="606" on="0"/>
        <pt x="614" y="605" on="1"/>
        <pt x="593" y="532" on="1"/>
      </contour>
    </TTGlyph>
    <TTGlyph name="D" xMin="77" yMin="0" xMax="662" yMax="650">
      <contour>
        <pt x="522" y="650" on="0"/>
        <pt x="662" y="517" on="0"/>
        <pt x="662" y="387" on="1"/>
        <pt x="662" y="204" on="0"/>
        <pt x="475" y="0" on="0"/>
        <pt x="299" y="0" on="1"/>
        <pt x="77" y="0" on="1"/>
        <pt x="168" y="650" on="1"/>
        <pt x="389" y="650" on="1"/>
      </contour>
      <contour>
        <pt x="225" y="71" on="1"/>
        <pt x="310" y="71" on="1"/>
        <pt x="514" y="71" on="0"/>
        <pt x="514" y="413" on="1"/>
        <pt x="514" y="499" on="0"/>
        <pt x="448" y="579" on="0"/>
        <pt x="379" y="579" on="1"/>
        <pt x="296" y="579" on="1"/>
      </contour>
    </TTGlyph>
    <TTGlyph name="D.swsh" xMin="96" yMin="0" xMax="919" yMax="723">
      <contour>
        <pt x="574" y="684" on="0"/>
        <pt x="565" y="650" on="1"/>
        <pt x="646" y="650" on="1"/>
        <pt x="778" y="650" on="0"/>
        <pt x="919" y="513" on="0"/>
        <pt x="919" y="383" on="1"/>
        <pt x="919" y="201" on="0"/>
        <pt x="732" y="0" on="0"/>
        <pt x="555" y="0" on="1"/>
        <pt x="322" y="0" on="1"/>
        <pt x="339" y="68" on="0"/>
        <pt x="371" y="265" on="0"/>
        <pt x="410" y="542" on="1"/>
        <pt x="414" y="572" on="0"/>
        <pt x="417" y="585" on="1"/>
        <pt x="416" y="585" on="0"/>
        <pt x="416" y="586" on="0"/>
        <pt x="416" y="586" on="1"/>
        <pt x="340" y="586" on="0"/>
        <pt x="229" y="531" on="0"/>
        <pt x="170" y="437" on="0"/>
        <pt x="170" y="381" on="1"/>
        <pt x="170" y="346" on="0"/>
        <pt x="182" y="310" on="1"/>
        <pt x="115" y="279" on="1"/>
        <pt x="96" y="327" on="0"/>
        <pt x="96" y="377" on="1"/>
        <pt x="96" y="451" on="0"/>
        <pt x="178" y="576" on="0"/>
        <pt x="328" y="650" on="0"/>
        <pt x="425" y="650" on="1"/>
        <pt x="432" y="650" on="1"/>
        <pt x="451" y="706" on="0"/>
        <pt x="479" y="723" on="1"/>
        <pt x="583" y="709" on="1"/>
      </contour>
      <contour>
        <pt x="548" y="541" on="1"/>
        <pt x="501" y="221" on="0"/>
        <pt x="468" y="71" on="1"/>
        <pt x="566" y="71" on="1"/>
        <pt x="664" y="71" on="0"/>
        <pt x="770" y="223" on="0"/>
        <pt x="770" y="413" on="1"/>
        <pt x="770" y="499" on="0"/>
        <pt x="705" y="579" on="0"/>
        <pt x="636" y="579" on="1"/>
        <pt x="553" y="579" on="1"/>
      </contour>
    </TTGlyph>
    <TTGlyph name="Dcaron" xMin="77" yMin="0" xMax="662" yMax="880">
      <contour>
        <pt x="261" y="845" on="1"/>
        <pt x="308" y="880" on="1"/>
        <pt x="403" y="787" on="1"/>
        <pt x="524" y="880" on="1"/>
        <pt x="561" y="841" on="1"/>
        <pt x="427" y="707" on="1"/>
        <pt x="357" y="707" on="1"/>
      </contour>
      <contour>
        <pt x="522" y="650" on="0"/>
        <pt x="662" y="517" on="0"/>
        <pt x="662" y="387" on="1"/>
        <pt x="662" y="204" on="0"/>
        <pt x="475" y="0" on="0"/>
        <pt x="299" y="0" on="1"/>
        <pt x="77" y="0" on="1"/>
        <pt x="168" y="650" on="1"/>
        <pt x="389" y="650" on="1"/>
      </contour>
      <contour>
        <pt x="225" y="71" on="1"/>
        <pt x="310" y="71" on="1"/>
        <pt x="514" y="71" on="0"/>
        <pt x="514" y="413" on="1"/>
        <pt x="514" y="499" on="0"/>
        <pt x="448" y="579" on="0"/>
        <pt x="379" y="579" on="1"/>
        <pt x="296" y="579" on="1"/>
      </contour>
    </TTGlyph>
    <TTGlyph name="Dcroat" xMin="62" yMin="0" xMax="662" yMax="650">
      <contour>
        <pt x="522" y="650" on="0"/>
        <pt x="662" y="517" on="0"/>
        <pt x="662" y="387" on="1"/>
        <pt x="662" y="204" on="0"/>
        <pt x="475" y="0" on="0"/>
        <pt x="299" y="0" on="1"/>
        <pt x="77" y="0" on="1"/>
        <pt x="117" y="289" on="1"/>
        <pt x="62" y="289" on="1"/>
        <pt x="71" y="355" on="1"/>
        <pt x="126" y="355" on="1"/>
        <pt x="168" y="650" on="1"/>
        <pt x="389" y="650" on="1"/>
      </contour>
      <contour>
        <pt x="264" y="355" on="1"/>
        <pt x="407" y="355" on="1"/>
        <pt x="398" y="289" on="1"/>
        <pt x="255" y="289" on="1"/>
        <pt x="225" y="71" on="1"/>
        <pt x="310" y="71" on="1"/>
        <pt x="514" y="71" on="0"/>
        <pt x="514" y="413" on="1"/>
        <pt x="514" y="499" on="0"/>
        <pt x="448" y="579" on="0"/>
        <pt x="379" y="579" on="1"/>
        <pt x="296" y="579" on="1"/>
      </contour>
    </TTGlyph>
    <TTGlyph name="E" xMin="77" yMin="0" xMax="558" yMax="650">
      <contour>
        <pt x="481" y="0" on="1"/>
        <pt x="77" y="0" on="1"/>
        <pt x="168" y="650" on="1"/>
        <pt x="558" y="650" on="1"/>
        <pt x="548" y="578" on="1"/>
        <pt x="296" y="578" on="1"/>
        <pt x="266" y="364" on="1"/>
        <pt x="489" y="364" on="1"/>
        <pt x="478" y="294" on="1"/>
        <pt x="257" y="294" on="1"/>
        <pt x="226" y="72" on="1"/>
        <pt x="491" y="72" on="1"/>
      </contour>
    </TTGlyph>
    <TTGlyph name="E.swsh" xMin="93" yMin="-111" xMax="631" yMax="660">
      <contour>
        <pt x="315" y="227" on="1"/>
        <pt x="280" y="223" on="0"/>
        <pt x="229" y="147" on="0"/>
        <pt x="229" y="57" on="1"/>
        <pt x="229" y="5" on="0"/>
        <pt x="280" y="-39" on="0"/>
        <pt x="332" y="-39" on="1"/>
        <pt x="376" y="-39" on="0"/>
        <pt x="448" y="-6" on="0"/>
        <pt x="493" y="33" on="0"/>
        <pt x="493" y="35" on="1"/>
        <pt x="524" y="-15" on="1"/>
        <pt x="524" y="-19" on="0"/>
        <pt x="470" y="-68" on="0"/>
        <pt x="368" y="-111" on="0"/>
        <pt x="295" y="-111" on="1"/>
        <pt x="200" y="-111" on="0"/>
        <pt x="93" y="-26" on="0"/>
        <pt x="93" y="57" on="1"/>
        <pt x="93" y="136" on="0"/>
        <pt x="168" y="234" on="0"/>
        <pt x="224" y="259" on="1"/>
        <pt x="177" y="277" on="0"/>
        <pt x="116" y="353" on="0"/>
        <pt x="116" y="414" on="1"/>
        <pt x="116" y="484" on="0"/>
        <pt x="182" y="596" on="0"/>
        <pt x="312" y="660" on="0"/>
        <pt x="404" y="660" on="1"/>
        <pt x="480" y="660" on="0"/>
        <pt x="582" y="618" on="0"/>
        <pt x="631" y="549" on="0"/>
        <pt x="631" y="508" on="1"/>
        <pt x="631" y="474" on="0"/>
        <pt x="599" y="408" on="0"/>
        <pt x="570" y="382" on="1"/>
        <pt x="514" y="410" on="1"/>
        <pt x="532" y="426" on="0"/>
        <pt x="551" y="469" on="0"/>
        <pt x="551" y="491" on="1"/>
        <pt x="551" y="533" on="0"/>
        <pt x="482" y="590" on="0"/>
        <pt x="416" y="590" on="1"/>
        <pt x="332" y="590" on="0"/>
        <pt x="256" y="500" on="0"/>
        <pt x="256" y="397" on="1"/>
        <pt x="256" y="349" on="0"/>
        <pt x="290" y="297" on="0"/>
        <pt x="318" y="294" on="1"/>
        <pt x="448" y="298" on="1"/>
        <pt x="438" y="224" on="1"/>
      </contour>
    </TTGlyph>
    <TTGlyph name="Eacute" xMin="77" yMin="0" xMax="558" yMax="865">
      <contour>
        <pt x="529" y="834" on="1"/>
        <pt x="390" y="704" on="1"/>
        <pt x="334" y="713" on="1"/>
        <pt x="425" y="865" on="1"/>
      </contour>
      <contour>
        <pt x="481" y="0" on="1"/>
        <pt x="77" y="0" on="1"/>
        <pt x="168" y="650" on="1"/>
        <pt x="558" y="650" on="1"/>
        <pt x="548" y="578" on="1"/>
        <pt x="296" y="578" on="1"/>
        <pt x="266" y="364" on="1"/>
        <pt x="489" y="364" on="1"/>
        <pt x="478" y="294" on="1"/>
        <pt x="257" y="294" on="1"/>
        <pt x="226" y="72" on="1"/>
        <pt x="491" y="72" on="1"/>
      </contour>
    </TTGlyph>
    <TTGlyph name="Ecaron" xMin="77" yMin="0" xMax="558" yMax="880">
      <contour>
        <pt x="248" y="845" on="1"/>
        <pt x="295" y="880" on="1"/>
        <pt x="390" y="787" on="1"/>
        <pt x="511" y="880" on="1"/>
        <pt x="548" y="841" on="1"/>
        <pt x="414" y="707" on="1"/>
        <pt x="344" y="707" on="1"/>
      </contour>
      <contour>
        <pt x="481" y="0" on="1"/>
        <pt x="77" y="0" on="1"/>
        <pt x="168" y="650" on="1"/>
        <pt x="558" y="650" on="1"/>
        <pt x="548" y="578" on="1"/>
        <pt x="296" y="578" on="1"/>
        <pt x="266" y="364" on="1"/>
        <pt x="489" y="364" on="1"/>
        <pt x="478" y="294" on="1"/>
        <pt x="257" y="294" on="1"/>
        <pt x="226" y="72" on="1"/>
        <pt x="491" y="72" on="1"/>
      </contour>
    </TTGlyph>
    <TTGlyph name="Ecircumflex" xMin="77" yMin="0" xMax="558" yMax="888">
      <contour>
        <pt x="518" y="766" on="1"/>
        <pt x="484" y="721" on="1"/>
        <pt x="392" y="806" on="1"/>
        <pt x="275" y="721" on="1"/>
        <pt x="253" y="766" on="1"/>
        <pt x="368" y="888" on="1"/>
        <pt x="438" y="888" on="1"/>
      </contour>
      <contour>
        <pt x="481" y="0" on="1"/>
        <pt x="77" y="0" on="1"/>
        <pt x="168" y="650" on="1"/>
        <pt x="558" y="650" on="1"/>
        <pt x="548" y="578" on="1"/>
        <pt x="296" y="578" on="1"/>
        <pt x="266" y="364" on="1"/>
        <pt x="489" y="364" on="1"/>
        <pt x="478" y="294" on="1"/>
        <pt x="257" y="294" on="1"/>
        <pt x="226" y="72" on="1"/>
        <pt x="491" y="72" on="1"/>
      </contour>
    </TTGlyph>
    <TTGlyph name="Edieresis" xMin="77" yMin="0" xMax="558" yMax="856">
      <contour>
        <pt x="265" y="856" on="0"/>
        <pt x="292" y="856" on="1"/>
        <pt x="318" y="856" on="0"/>
        <pt x="335" y="839" on="1"/>
        <pt x="349" y="820" on="0"/>
        <pt x="349" y="798" on="1"/>
        <pt x="349" y="761" on="0"/>
        <pt x="320" y="735" on="1"/>
        <pt x="298" y="717" on="0"/>
        <pt x="272" y="717" on="1"/>
        <pt x="245" y="717" on="0"/>
        <pt x="229" y="735" on="1"/>
        <pt x="215" y="752" on="0"/>
        <pt x="215" y="776" on="1"/>
        <pt x="215" y="793" on="0"/>
        <pt x="230" y="826" on="0"/>
        <pt x="243" y="839" on="1"/>
      </contour>
      <contour>
        <pt x="451" y="856" on="0"/>
        <pt x="477" y="856" on="1"/>
        <pt x="502" y="856" on="0"/>
        <pt x="521" y="839" on="1"/>
        <pt x="535" y="820" on="0"/>
        <pt x="535" y="798" on="1"/>
        <pt x="535" y="761" on="0"/>
        <pt x="506" y="735" on="1"/>
        <pt x="484" y="717" on="0"/>
        <pt x="457" y="717" on="1"/>
        <pt x="430" y="717" on="0"/>
        <pt x="415" y="735" on="1"/>
        <pt x="401" y="752" on="0"/>
        <pt x="401" y="776" on="1"/>
        <pt x="401" y="793" on="0"/>
        <pt x="416" y="826" on="0"/>
        <pt x="429" y="839" on="1"/>
      </contour>
      <contour>
        <pt x="481" y="0" on="1"/>
        <pt x="77" y="0" on="1"/>
        <pt x="168" y="650" on="1"/>
        <pt x="558" y="650" on="1"/>
        <pt x="548" y="578" on="1"/>
        <pt x="296" y="578" on="1"/>
        <pt x="266" y="364" on="1"/>
        <pt x="489" y="364" on="1"/>
        <pt x="478" y="294" on="1"/>
        <pt x="257" y="294" on="1"/>
        <pt x="226" y="72" on="1"/>
        <pt x="491" y="72" on="1"/>
      </contour>
    </TTGlyph>
    <TTGlyph name="Edotaccent" xMin="77" yMin="0" xMax="558" yMax="863">
      <contour>
        <pt x="362" y="863" on="0"/>
        <pt x="394" y="863" on="1"/>
        <pt x="425" y="863" on="0"/>
        <pt x="443" y="844" on="1"/>
        <pt x="458" y="825" on="0"/>
        <pt x="458" y="799" on="1"/>
        <pt x="458" y="780" on="0"/>
        <pt x="442" y="743" on="0"/>
        <pt x="427" y="729" on="1"/>
        <pt x="402" y="710" on="0"/>
        <pt x="372" y="710" on="1"/>
        <pt x="340" y="710" on="0"/>
        <pt x="323" y="730" on="1"/>
        <pt x="307" y="747" on="0"/>
        <pt x="307" y="775" on="1"/>
        <pt x="307" y="793" on="0"/>
        <pt x="324" y="830" on="0"/>
        <pt x="339" y="843" on="1"/>
      </contour>
      <contour>
        <pt x="481" y="0" on="1"/>
        <pt x="77" y="0" on="1"/>
        <pt x="168" y="650" on="1"/>
        <pt x="558" y="650" on="1"/>
        <pt x="548" y="578" on="1"/>
        <pt x="296" y="578" on="1"/>
        <pt x="266" y="364" on="1"/>
        <pt x="489" y="364" on="1"/>
        <pt x="478" y="294" on="1"/>
        <pt x="257" y="294" on="1"/>
        <pt x="226" y="72" on="1"/>
        <pt x="491" y="72" on="1"/>
      </contour>
    </TTGlyph>
    <TTGlyph name="Egrave" xMin="77" yMin="0" xMax="558" yMax="873">
      <contour>
        <pt x="369" y="873" on="1"/>
        <pt x="433" y="726" on="1"/>
        <pt x="369" y="709" on="1"/>
        <pt x="258" y="838" on="1"/>
      </contour>
      <contour>
        <pt x="481" y="0" on="1"/>
        <pt x="77" y="0" on="1"/>
        <pt x="168" y="650" on="1"/>
        <pt x="558" y="650" on="1"/>
        <pt x="548" y="578" on="1"/>
        <pt x="296" y="578" on="1"/>
        <pt x="266" y="364" on="1"/>
        <pt x="489" y="364" on="1"/>
        <pt x="478" y="294" on="1"/>
        <pt x="257" y="294" on="1"/>
        <pt x="226" y="72" on="1"/>
        <pt x="491" y="72" on="1"/>
      </contour>
    </TTGlyph>
    <TTGlyph name="Emacron" xMin="77" yMin="0" xMax="558" yMax="817">
      <contour>
        <pt x="494" y="759" on="1"/>
        <pt x="279" y="759" on="1"/>
        <pt x="287" y="817" on="1"/>
        <pt x="501" y="817" on="1"/>
      </contour>
      <contour>
        <pt x="481" y="0" on="1"/>
        <pt x="77" y="0" on="1"/>
        <pt x="168" y="650" on="1"/>
        <pt x="558" y="650" on="1"/>
        <pt x="548" y="578" on="1"/>
        <pt x="296" y="578" on="1"/>
        <pt x="266" y="364" on="1"/>
        <pt x="489" y="364" on="1"/>
        <pt x="478" y="294" on="1"/>
        <pt x="257" y="294" on="1"/>
        <pt x="226" y="72" on="1"/>
        <pt x="491" y="72" on="1"/>
      </contour>
    </TTGlyph>
    <TTGlyph name="Eogonek" xMin="77" yMin="-250" xMax="558" yMax="650">
      <contour>
        <pt x="463" y="0" on="1"/>
        <pt x="431" y="-16" on="0"/>
        <pt x="374" y="-88" on="0"/>
        <pt x="374" y="-148" on="1"/>
        <pt x="374" y="-178" on="0"/>
        <pt x="409" y="-201" on="0"/>
        <pt x="443" y="-201" on="1"/>
        <pt x="436" y="-250" on="1"/>
        <pt x="366" y="-250" on="0"/>
        <pt x="286" y="-208" on="0"/>
        <pt x="286" y="-152" on="1"/>
        <pt x="286" y="-105" on="0"/>
        <pt x="349" y="-28" on="0"/>
        <pt x="394" y="0" on="1"/>
        <pt x="77" y="0" on="1"/>
        <pt x="168" y="650" on="1"/>
        <pt x="558" y="650" on="1"/>
        <pt x="548" y="578" on="1"/>
        <pt x="296" y="578" on="1"/>
        <pt x="266" y="364" on="1"/>
        <pt x="489" y="364" on="1"/>
        <pt x="478" y="294" on="1"/>
        <pt x="257" y="294" on="1"/>
        <pt x="226" y="72" on="1"/>
        <pt x="491" y="72" on="1"/>
        <pt x="481" y="0" on="1"/>
      </contour>
    </TTGlyph>
    <TTGlyph name="Eth" xMin="62" yMin="0" xMax="662" yMax="650">
      <contour>
        <pt x="522" y="650" on="0"/>
        <pt x="662" y="517" on="0"/>
        <pt x="662" y="387" on="1"/>
        <pt x="662" y="204" on="0"/>
        <pt x="475" y="0" on="0"/>
        <pt x="299" y="0" on="1"/>
        <pt x="77" y="0" on="1"/>
        <pt x="117" y="289" on="1"/>
        <pt x="62" y="289" on="1"/>
        <pt x="71" y="355" on="1"/>
        <pt x="126" y="355" on="1"/>
        <pt x="168" y="650" on="1"/>
        <pt x="389" y="650" on="1"/>
      </contour>
      <contour>
        <pt x="264" y="355" on="1"/>
        <pt x="407" y="355" on="1"/>
        <pt x="398" y="289" on="1"/>
        <pt x="255" y="289" on="1"/>
        <pt x="225" y="71" on="1"/>
        <pt x="310" y="71" on="1"/>
        <pt x="514" y="71" on="0"/>
        <pt x="514" y="413" on="1"/>
        <pt x="514" y="499" on="0"/>
        <pt x="448" y="579" on="0"/>
        <pt x="379" y="579" on="1"/>
        <pt x="296" y="579" on="1"/>
      </contour>
    </TTGlyph>
    <TTGlyph name="Euro" xMin="71" yMin="-11" xMax="604" yMax="659">
      <contour>
        <pt x="270" y="212" on="1"/>
        <pt x="271" y="128" on="0"/>
        <pt x="336" y="57" on="0"/>
        <pt x="396" y="57" on="1"/>
        <pt x="433" y="57" on="0"/>
        <pt x="496" y="89" on="0"/>
        <pt x="537" y="127" on="0"/>
        <pt x="537" y="129" on="1"/>
        <pt x="556" y="79" on="1"/>
        <pt x="556" y="75" on="0"/>
        <pt x="508" y="29" on="0"/>
        <pt x="421" y="-11" on="0"/>
        <pt x="360" y="-11" on="1"/>
        <pt x="253" y="-11" on="0"/>
        <pt x="137" y="109" on="0"/>
        <pt x="129" y="217" on="1"/>
        <pt x="71" y="223" on="1"/>
        <pt x="80" y="282" on="1"/>
        <pt x="128" y="282" on="1"/>
        <pt x="129" y="316" on="0"/>
        <pt x="134" y="349" on="1"/>
        <pt x="90" y="354" on="1"/>
        <pt x="98" y="413" on="1"/>
        <pt x="145" y="413" on="1"/>
        <pt x="172" y="527" on="0"/>
        <pt x="317" y="659" on="0"/>
        <pt x="445" y="659" on="1"/>
        <pt x="488" y="659" on="0"/>
        <pt x="558" y="639" on="0"/>
        <pt x="604" y="616" on="0"/>
        <pt x="604" y="615" on="1"/>
        <pt x="580" y="546" on="1"/>
        <pt x="575" y="549" on="0"/>
        <pt x="539" y="569" on="0"/>
        <pt x="481" y="588" on="0"/>
        <pt x="451" y="588" on="1"/>
        <pt x="384" y="588" on="0"/>
        <pt x="302" y="510" on="0"/>
        <pt x="284" y="413" on="1"/>
        <pt x="514" y="413" on="1"/>
        <pt x="504" y="344" on="1"/>
        <pt x="275" y="344" on="1"/>
        <pt x="273" y="322" on="0"/>
        <pt x="271" y="282" on="1"/>
        <pt x="496" y="282" on="1"/>
        <pt x="486" y="212" on="1"/>
      </contour>
    </TTGlyph>
    <TTGlyph name="Euro.onum" xMin="49" yMin="-11" xMax="519" yMax="511">
      <contour>
        <pt x="489" y="73" on="0"/>
        <pt x="446" y="28" on="0"/>
        <pt x="365" y="-11" on="0"/>
        <pt x="307" y="-11" on="1"/>
        <pt x="206" y="-11" on="0"/>
        <pt x="102" y="91" on="0"/>
        <pt x="102" y="191" on="1"/>
        <pt x="102" y="208" on="0"/>
        <pt x="103" y="216" on="1"/>
        <pt x="49" y="227" on="1"/>
        <pt x="57" y="281" on="1"/>
        <pt x="111" y="281" on="1"/>
        <pt x="132" y="386" on="0"/>
        <pt x="272" y="511" on="0"/>
        <pt x="375" y="511" on="1"/>
        <pt x="415" y="511" on="0"/>
        <pt x="479" y="489" on="0"/>
        <pt x="519" y="463" on="0"/>
        <pt x="519" y="461" on="1"/>
        <pt x="493" y="404" on="1"/>
        <pt x="489" y="407" on="0"/>
        <pt x="458" y="426" on="0"/>
        <pt x="411" y="444" on="0"/>
        <pt x="386" y="444" on="1"/>
        <pt x="324" y="444" on="0"/>
        <pt x="258" y="363" on="0"/>
        <pt x="247" y="281" on="1"/>
        <pt x="496" y="281" on="1"/>
        <pt x="486" y="214" on="1"/>
        <pt x="241" y="214" on="1"/>
        <pt x="241" y="177" on="1"/>
        <pt x="241" y="56" on="0"/>
        <pt x="335" y="56" on="1"/>
        <pt x="369" y="56" on="0"/>
        <pt x="425" y="84" on="0"/>
        <pt x="461" y="118" on="0"/>
        <pt x="461" y="120" on="1"/>
        <pt x="489" y="77" on="1"/>
      </contour>
    </TTGlyph>
    <TTGlyph name="F" xMin="77" yMin="0" xMax="563" yMax="650">
      <contour>
        <pt x="476" y="268" on="1"/>
        <pt x="253" y="268" on="1"/>
        <pt x="215" y="0" on="1"/>
        <pt x="77" y="0" on="1"/>
        <pt x="168" y="650" on="1"/>
        <pt x="563" y="650" on="1"/>
        <pt x="553" y="578" on="1"/>
        <pt x="296" y="578" on="1"/>
        <pt x="263" y="338" on="1"/>
        <pt x="486" y="338" on="1"/>
      </contour>
    </TTGlyph>
    <TTGlyph name="F.swsh" xMin="94" yMin="0" xMax="802" yMax="650">
      <contour>
        <pt x="387" y="500" on="1"/>
        <pt x="393" y="548" on="0"/>
        <pt x="417" y="586" on="1"/>
        <pt x="416" y="586" on="1"/>
        <pt x="342" y="586" on="0"/>
        <pt x="232" y="526" on="0"/>
        <pt x="174" y="426" on="0"/>
        <pt x="174" y="367" on="1"/>
        <pt x="174" y="336" on="0"/>
        <pt x="181" y="309" on="1"/>
        <pt x="104" y="289" on="1"/>
        <pt x="94" y="331" on="0"/>
        <pt x="94" y="362" on="1"/>
        <pt x="94" y="440" on="0"/>
        <pt x="178" y="572" on="0"/>
        <pt x="330" y="650" on="0"/>
        <pt x="426" y="650" on="1"/>
        <pt x="802" y="650" on="1"/>
        <pt x="792" y="578" on="1"/>
        <pt x="536" y="578" on="1"/>
        <pt x="502" y="338" on="1"/>
        <pt x="725" y="338" on="1"/>
        <pt x="715" y="268" on="1"/>
        <pt x="492" y="268" on="1"/>
        <pt x="455" y="0" on="1"/>
        <pt x="316" y="0" on="1"/>
      </contour>
    </TTGlyph>
    <TTGlyph name="G" xMin="76" yMin="-11" xMax="622" yMax="660">
      <contour>
        <pt x="505" y="0" on="1"/>
        <pt x="478" y="58" on="1"/>
        <pt x="415" y="-11" on="0"/>
        <pt x="313" y="-11" on="1"/>
        <pt x="198" y="-11" on="0"/>
        <pt x="76" y="127" on="0"/>
        <pt x="76" y="254" on="1"/>
        <pt x="76" y="376" on="0"/>
        <pt x="162" y="560" on="0"/>
        <pt x="322" y="660" on="0"/>
        <pt x="429" y="660" on="1"/>
        <pt x="475" y="660" on="0"/>
        <pt x="561" y="636" on="0"/>
        <pt x="622" y="606" on="0"/>
        <pt x="622" y="605" on="1"/>
        <pt x="598" y="532" on="1"/>
        <pt x="591" y="536" on="0"/>
        <pt x="541" y="561" on="0"/>
        <pt x="469" y="585" on="0"/>
        <pt x="436" y="585" on="1"/>
        <pt x="225" y="585" on="0"/>
        <pt x="225" y="242" on="1"/>
        <pt x="225" y="151" on="0"/>
        <pt x="289" y="64" on="0"/>
        <pt x="348" y="64" on="1"/>
        <pt x="401" y="64" on="0"/>
        <pt x="458" y="121" on="0"/>
        <pt x="469" y="152" on="1"/>
        <pt x="486" y="275" on="1"/>
        <pt x="385" y="275" on="1"/>
        <pt x="395" y="343" on="1"/>
        <pt x="613" y="343" on="1"/>
        <pt x="565" y="0" on="1"/>
      </contour>
    </TTGlyph>
    <TTGlyph name="G.swsh" xMin="86" yMin="-226" xMax="667" yMax="660">
      <contour>
        <pt x="542" y="376" on="0"/>
        <pt x="586" y="453" on="0"/>
        <pt x="586" y="491" on="1"/>
        <pt x="586" y="532" on="0"/>
        <pt x="528" y="585" on="0"/>
        <pt x="468" y="585" on="1"/>
        <pt x="364" y="585" on="0"/>
        <pt x="235" y="394" on="0"/>
        <pt x="235" y="165" on="1"/>
        <pt x="235" y="53" on="0"/>
        <pt x="306" y="-41" on="0"/>
        <pt x="376" y="-41" on="1"/>
        <pt x="421" y="-41" on="0"/>
        <pt x="465" y="-20" on="1"/>
        <pt x="494" y="183" on="1"/>
        <pt x="392" y="183" on="1"/>
        <pt x="402" y="251" on="1"/>
        <pt x="620" y="251" on="1"/>
        <pt x="553" y="-226" on="1"/>
        <pt x="493" y="-226" on="1"/>
        <pt x="451" y="-121" on="1"/>
        <pt x="454" y="-97" on="1"/>
        <pt x="403" y="-116" on="0"/>
        <pt x="339" y="-116" on="1"/>
        <pt x="215" y="-116" on="0"/>
        <pt x="86" y="38" on="0"/>
        <pt x="86" y="184" on="1"/>
        <pt x="86" y="333" on="0"/>
        <pt x="184" y="548" on="0"/>
        <pt x="356" y="660" on="0"/>
        <pt x="465" y="660" on="1"/>
        <pt x="567" y="660" on="0"/>
        <pt x="667" y="574" on="0"/>
        <pt x="667" y="508" on="1"/>
        <pt x="667" y="456" on="0"/>
        <pt x="607" y="353" on="0"/>
        <pt x="558" y="323" on="1"/>
        <pt x="508" y="356" on="1"/>
      </contour>
    </TTGlyph>
    <TTGlyph name="Gbreve" xMin="76" yMin="-11" xMax="622" yMax="830">
      <contour>
        <pt x="476" y="771" on="0"/>
        <pt x="516" y="795" on="0"/>
        <pt x="531" y="822" on="0"/>
        <pt x="531" y="826" on="1"/>
        <pt x="532" y="830" on="1"/>
        <pt x="597" y="821" on="1"/>
        <pt x="597" y="811" on="0"/>
        <pt x="573" y="753" on="0"/>
        <pt x="498" y="698" on="0"/>
        <pt x="429" y="698" on="1"/>
        <pt x="351" y="698" on="0"/>
        <pt x="296" y="766" on="0"/>
        <pt x="296" y="805" on="1"/>
        <pt x="296" y="811" on="0"/>
        <pt x="297" y="820" on="0"/>
        <pt x="297" y="821" on="1"/>
        <pt x="364" y="830" on="1"/>
        <pt x="364" y="826" on="1"/>
        <pt x="364" y="811" on="0"/>
        <pt x="390" y="771" on="0"/>
        <pt x="440" y="771" on="1"/>
      </contour>
      <contour>
        <pt x="505" y="0" on="1"/>
        <pt x="478" y="58" on="1"/>
        <pt x="415" y="-11" on="0"/>
        <pt x="313" y="-11" on="1"/>
        <pt x="198" y="-11" on="0"/>
        <pt x="76" y="127" on="0"/>
        <pt x="76" y="254" on="1"/>
        <pt x="76" y="376" on="0"/>
        <pt x="162" y="560" on="0"/>
        <pt x="322" y="660" on="0"/>
        <pt x="429" y="660" on="1"/>
        <pt x="475" y="660" on="0"/>
        <pt x="561" y="636" on="0"/>
        <pt x="622" y="606" on="0"/>
        <pt x="622" y="605" on="1"/>
        <pt x="598" y="532" on="1"/>
        <pt x="591" y="536" on="0"/>
        <pt x="541" y="561" on="0"/>
        <pt x="469" y="585" on="0"/>
        <pt x="436" y="585" on="1"/>
        <pt x="225" y="585" on="0"/>
        <pt x="225" y="242" on="1"/>
        <pt x="225" y="151" on="0"/>
        <pt x="289" y="64" on="0"/>
        <pt x="348" y="64" on="1"/>
        <pt x="401" y="64" on="0"/>
        <pt x="458" y="121" on="0"/>
        <pt x="469" y="152" on="1"/>
        <pt x="486" y="275" on="1"/>
        <pt x="385" y="275" on="1"/>
        <pt x="395" y="343" on="1"/>
        <pt x="613" y="343" on="1"/>
        <pt x="565" y="0" on="1"/>
      </contour>
    </TTGlyph>
    <TTGlyph name="Gcommaaccent" xMin="76" yMin="-339" xMax="622" yMax="660">
      <contour>
        <pt x="505" y="0" on="1"/>
        <pt x="478" y="58" on="1"/>
        <pt x="415" y="-11" on="0"/>
        <pt x="313" y="-11" on="1"/>
        <pt x="198" y="-11" on="0"/>
        <pt x="76" y="127" on="0"/>
        <pt x="76" y="254" on="1"/>
        <pt x="76" y="376" on="0"/>
        <pt x="162" y="560" on="0"/>
        <pt x="322" y="660" on="0"/>
        <pt x="429" y="660" on="1"/>
        <pt x="475" y="660" on="0"/>
        <pt x="561" y="636" on="0"/>
        <pt x="622" y="606" on="0"/>
        <pt x="622" y="605" on="1"/>
        <pt x="598" y="532" on="1"/>
        <pt x="591" y="536" on="0"/>
        <pt x="541" y="561" on="0"/>
        <pt x="469" y="585" on="0"/>
        <pt x="436" y="585" on="1"/>
        <pt x="225" y="585" on="0"/>
        <pt x="225" y="242" on="1"/>
        <pt x="225" y="151" on="0"/>
        <pt x="289" y="64" on="0"/>
        <pt x="348" y="64" on="1"/>
        <pt x="401" y="64" on="0"/>
        <pt x="458" y="121" on="0"/>
        <pt x="469" y="152" on="1"/>
        <pt x="486" y="275" on="1"/>
        <pt x="385" y="275" on="1"/>
        <pt x="395" y="343" on="1"/>
        <pt x="613" y="343" on="1"/>
        <pt x="565" y="0" on="1"/>
      </contour>
      <contour>
        <pt x="308" y="-46" on="0"/>
        <pt x="334" y="-46" on="1"/>
        <pt x="359" y="-46" on="0"/>
        <pt x="375" y="-62" on="1"/>
        <pt x="395" y="-86" on="0"/>
        <pt x="395" y="-123" on="1"/>
        <pt x="395" y="-177" on="0"/>
        <pt x="319" y="-302" on="0"/>
        <pt x="264" y="-339" on="1"/>
        <pt x="239" y="-308" on="1"/>
        <pt x="279" y="-276" on="0"/>
        <pt x="322" y="-204" on="0"/>
        <pt x="323" y="-170" on="1"/>
        <pt x="316" y="-170" on="1"/>
        <pt x="292" y="-170" on="0"/>
        <pt x="276" y="-154" on="1"/>
        <pt x="263" y="-138" on="0"/>
        <pt x="263" y="-118" on="1"/>
        <pt x="263" y="-103" on="0"/>
        <pt x="276" y="-73" on="0"/>
        <pt x="289" y="-62" on="1"/>
      </contour>
    </TTGlyph>
    <TTGlyph name="H" xMin="77" yMin="0" xMax="669" yMax="650">
      <contour>
        <pt x="578" y="0" on="1"/>
        <pt x="440" y="0" on="1"/>
        <pt x="481" y="296" on="1"/>
        <pt x="256" y="296" on="1"/>
        <pt x="215" y="0" on="1"/>
        <pt x="77" y="0" on="1"/>
        <pt x="168" y="650" on="1"/>
        <pt x="306" y="650" on="1"/>
        <pt x="266" y="366" on="1"/>
        <pt x="491" y="366" on="1"/>
        <pt x="531" y="650" on="1"/>
        <pt x="669" y="650" on="1"/>
      </contour>
    </TTGlyph>
    <TTGlyph name="H.swsh" xMin="94" yMin="-11" xMax="929" yMax="723">
      <contour>
        <pt x="730" y="366" on="1"/>
        <pt x="755" y="542" on="1"/>
        <pt x="766" y="619" on="0"/>
        <pt x="799" y="708" on="0"/>
        <pt x="824" y="723" on="1"/>
        <pt x="929" y="709" on="1"/>
        <pt x="915" y="673" on="0"/>
        <pt x="904" y="614" on="0"/>
        <pt x="893" y="541" on="1"/>
        <pt x="817" y="0" on="1"/>
        <pt x="679" y="0" on="1"/>
        <pt x="720" y="296" on="1"/>
        <pt x="496" y="296" on="1"/>
        <pt x="485" y="214" on="1"/>
        <pt x="473" y="129" on="0"/>
        <pt x="417" y="31" on="0"/>
        <pt x="326" y="-11" on="0"/>
        <pt x="258" y="-11" on="1"/>
        <pt x="234" y="-11" on="0"/>
        <pt x="195" y="-4" on="0"/>
        <pt x="175" y="4" on="0"/>
        <pt x="172" y="5" on="1"/>
        <pt x="200" y="70" on="1"/>
        <pt x="200" y="69" on="0"/>
        <pt x="230" y="60" on="0"/>
        <pt x="250" y="60" on="1"/>
        <pt x="288" y="60" on="0"/>
        <pt x="333" y="125" on="0"/>
        <pt x="346" y="214" on="1"/>
        <pt x="387" y="500" on="1"/>
        <pt x="393" y="548" on="0"/>
        <pt x="417" y="586" on="1"/>
        <pt x="416" y="586" on="1"/>
        <pt x="342" y="586" on="0"/>
        <pt x="232" y="526" on="0"/>
        <pt x="174" y="426" on="0"/>
        <pt x="174" y="367" on="1"/>
        <pt x="174" y="336" on="0"/>
        <pt x="181" y="309" on="1"/>
        <pt x="104" y="289" on="1"/>
        <pt x="94" y="331" on="0"/>
        <pt x="94" y="362" on="1"/>
        <pt x="94" y="440" on="0"/>
        <pt x="178" y="572" on="0"/>
        <pt x="330" y="650" on="0"/>
        <pt x="426" y="650" on="1"/>
        <pt x="546" y="650" on="1"/>
        <pt x="506" y="366" on="1"/>
      </contour>
    </TTGlyph>
    <TTGlyph name="I" xMin="77" yMin="0" xMax="306" yMax="650">
      <contour>
        <pt x="215" y="0" on="1"/>
        <pt x="77" y="0" on="1"/>
        <pt x="168" y="650" on="1"/>
        <pt x="306" y="650" on="1"/>
      </contour>
    </TTGlyph>
    <TTGlyph name="I.swsh" xMin="94" yMin="-11" xMax="546" yMax="650">
      <contour>
        <pt x="473" y="129" on="0"/>
        <pt x="417" y="31" on="0"/>
        <pt x="326" y="-11" on="0"/>
        <pt x="258" y="-11" on="1"/>
        <pt x="234" y="-11" on="0"/>
        <pt x="195" y="-4" on="0"/>
        <pt x="175" y="4" on="0"/>
        <pt x="172" y="5" on="1"/>
        <pt x="200" y="70" on="1"/>
        <pt x="200" y="69" on="0"/>
        <pt x="230" y="60" on="0"/>
        <pt x="250" y="60" on="1"/>
        <pt x="288" y="60" on="0"/>
        <pt x="333" y="125" on="0"/>
        <pt x="346" y="214" on="1"/>
        <pt x="387" y="500" on="1"/>
        <pt x="393" y="548" on="0"/>
        <pt x="417" y="586" on="1"/>
        <pt x="416" y="586" on="1"/>
        <pt x="342" y="586" on="0"/>
        <pt x="232" y="526" on="0"/>
        <pt x="174" y="426" on="0"/>
        <pt x="174" y="367" on="1"/>
        <pt x="174" y="336" on="0"/>
        <pt x="181" y="309" on="1"/>
        <pt x="104" y="289" on="1"/>
        <pt x="94" y="331" on="0"/>
        <pt x="94" y="362" on="1"/>
        <pt x="94" y="440" on="0"/>
        <pt x="178" y="572" on="0"/>
        <pt x="330" y="650" on="0"/>
        <pt x="426" y="650" on="1"/>
        <pt x="546" y="650" on="1"/>
        <pt x="485" y="214" on="1"/>
      </contour>
    </TTGlyph>
    <TTGlyph name="Iacute" xMin="77" yMin="0" xMax="384" yMax="865">
      <contour>
        <pt x="384" y="834" on="1"/>
        <pt x="245" y="704" on="1"/>
        <pt x="189" y="713" on="1"/>
        <pt x="280" y="865" on="1"/>
      </contour>
      <contour>
        <pt x="215" y="0" on="1"/>
        <pt x="77" y="0" on="1"/>
        <pt x="168" y="650" on="1"/>
        <pt x="306" y="650" on="1"/>
      </contour>
    </TTGlyph>
    <TTGlyph name="Icircumflex" xMin="77" yMin="0" xMax="374" yMax="888">
      <contour>
        <pt x="374" y="766" on="1"/>
        <pt x="340" y="721" on="1"/>
        <pt x="248" y="806" on="1"/>
        <pt x="131" y="721" on="1"/>
        <pt x="109" y="766" on="1"/>
        <pt x="224" y="888" on="1"/>
        <pt x="294" y="888" on="1"/>
      </contour>
      <contour>
        <pt x="215" y="0" on="1"/>
        <pt x="77" y="0" on="1"/>
        <pt x="168" y="650" on="1"/>
        <pt x="306" y="650" on="1"/>
      </contour>
    </TTGlyph>
    <TTGlyph name="Idieresis" xMin="77" yMin="0" xMax="405" yMax="856">
      <contour>
        <pt x="135" y="856" on="0"/>
        <pt x="162" y="856" on="1"/>
        <pt x="188" y="856" on="0"/>
        <pt x="205" y="839" on="1"/>
        <pt x="219" y="820" on="0"/>
        <pt x="219" y="798" on="1"/>
        <pt x="219" y="761" on="0"/>
        <pt x="190" y="735" on="1"/>
        <pt x="168" y="717" on="0"/>
        <pt x="142" y="717" on="1"/>
        <pt x="116" y="717" on="0"/>
        <pt x="99" y="735" on="1"/>
        <pt x="85" y="752" on="0"/>
        <pt x="85" y="776" on="1"/>
        <pt x="85" y="793" on="0"/>
        <pt x="100" y="826" on="0"/>
        <pt x="113" y="839" on="1"/>
      </contour>
      <contour>
        <pt x="321" y="856" on="0"/>
        <pt x="347" y="856" on="1"/>
        <pt x="372" y="856" on="0"/>
        <pt x="391" y="839" on="1"/>
        <pt x="405" y="820" on="0"/>
        <pt x="405" y="798" on="1"/>
        <pt x="405" y="761" on="0"/>
        <pt x="376" y="735" on="1"/>
        <pt x="354" y="717" on="0"/>
        <pt x="327" y="717" on="1"/>
        <pt x="300" y="717" on="0"/>
        <pt x="285" y="735" on="1"/>
        <pt x="271" y="752" on="0"/>
        <pt x="271" y="776" on="1"/>
        <pt x="271" y="793" on="0"/>
        <pt x="286" y="826" on="0"/>
        <pt x="299" y="839" on="1"/>
      </contour>
      <contour>
        <pt x="215" y="0" on="1"/>
        <pt x="77" y="0" on="1"/>
        <pt x="168" y="650" on="1"/>
        <pt x="306" y="650" on="1"/>
      </contour>
    </TTGlyph>
    <TTGlyph name="Idotaccent" xMin="77" yMin="0" xMax="323" yMax="863">
      <contour>
        <pt x="227" y="863" on="0"/>
        <pt x="259" y="863" on="1"/>
        <pt x="290" y="863" on="0"/>
        <pt x="308" y="844" on="1"/>
        <pt x="323" y="825" on="0"/>
        <pt x="323" y="799" on="1"/>
        <pt x="323" y="780" on="0"/>
        <pt x="307" y="743" on="0"/>
        <pt x="292" y="729" on="1"/>
        <pt x="267" y="710" on="0"/>
        <pt x="237" y="710" on="1"/>
        <pt x="205" y="710" on="0"/>
        <pt x="188" y="730" on="1"/>
        <pt x="172" y="747" on="0"/>
        <pt x="172" y="775" on="1"/>
        <pt x="172" y="793" on="0"/>
        <pt x="189" y="830" on="0"/>
        <pt x="204" y="843" on="1"/>
      </contour>
      <contour>
        <pt x="215" y="0" on="1"/>
        <pt x="77" y="0" on="1"/>
        <pt x="168" y="650" on="1"/>
        <pt x="306" y="650" on="1"/>
      </contour>
    </TTGlyph>
    <TTGlyph name="Igrave" xMin="77" yMin="0" xMax="306" yMax="873">
      <contour>
        <pt x="224" y="873" on="1"/>
        <pt x="288" y="726" on="1"/>
        <pt x="224" y="709" on="1"/>
        <pt x="113" y="838" on="1"/>
      </contour>
      <contour>
        <pt x="215" y="0" on="1"/>
        <pt x="77" y="0" on="1"/>
        <pt x="168" y="650" on="1"/>
        <pt x="306" y="650" on="1"/>
      </contour>
    </TTGlyph>
    <TTGlyph name="Imacron" xMin="77" yMin="0" xMax="360" yMax="817">
      <contour>
        <pt x="353" y="759" on="1"/>
        <pt x="138" y="759" on="1"/>
        <pt x="146" y="817" on="1"/>
        <pt x="360" y="817" on="1"/>
      </contour>
      <contour>
        <pt x="215" y="0" on="1"/>
        <pt x="77" y="0" on="1"/>
        <pt x="168" y="650" on="1"/>
        <pt x="306" y="650" on="1"/>
      </contour>
    </TTGlyph>
    <TTGlyph name="Iogonek" xMin="-38" yMin="-250" xMax="306" yMax="650">
      <contour>
        <pt x="139" y="0" on="1"/>
        <pt x="106" y="-16" on="0"/>
        <pt x="50" y="-88" on="0"/>
        <pt x="50" y="-148" on="1"/>
        <pt x="50" y="-178" on="0"/>
        <pt x="85" y="-201" on="0"/>
        <pt x="119" y="-201" on="1"/>
        <pt x="112" y="-250" on="1"/>
        <pt x="42" y="-250" on="0"/>
        <pt x="-38" y="-208" on="0"/>
        <pt x="-38" y="-152" on="1"/>
        <pt x="-38" y="-103" on="0"/>
        <pt x="29" y="-24" on="0"/>
        <pt x="77" y="4" on="1"/>
        <pt x="168" y="650" on="1"/>
        <pt x="306" y="650" on="1"/>
        <pt x="215" y="0" on="1"/>
      </contour>
    </TTGlyph>
    <TTGlyph name="Itilde" xMin="77" yMin="0" xMax="443" yMax="870">
      <component glyphName="I" x="0" y="0" flags="0x0"/>
      <component glyphName="tildecomb" x="381" y="150" flags="0x4"/>
    </TTGlyph>
    <TTGlyph name="J" xMin="16" yMin="-11" xMax="407" yMax="650">
      <contour>
        <pt x="41" y="85" on="0"/>
        <pt x="58" y="72" on="0"/>
        <pt x="89" y="60" on="0"/>
        <pt x="108" y="60" on="1"/>
        <pt x="146" y="60" on="0"/>
        <pt x="194" y="126" on="0"/>
        <pt x="207" y="214" on="1"/>
        <pt x="268" y="650" on="1"/>
        <pt x="407" y="650" on="1"/>
        <pt x="345" y="214" on="1"/>
        <pt x="328" y="90" on="0"/>
        <pt x="227" y="-11" on="0"/>
        <pt x="137" y="-11" on="1"/>
        <pt x="98" y="-11" on="0"/>
        <pt x="45" y="7" on="0"/>
        <pt x="16" y="27" on="0"/>
        <pt x="16" y="29" on="1"/>
        <pt x="39" y="87" on="1"/>
      </contour>
    </TTGlyph>
    <TTGlyph name="J.swsh" xMin="46" yMin="-132" xMax="578" yMax="650">
      <contour>
        <pt x="494" y="51" on="0"/>
        <pt x="410" y="-73" on="0"/>
        <pt x="291" y="-132" on="0"/>
        <pt x="227" y="-132" on="1"/>
        <pt x="135" y="-132" on="0"/>
        <pt x="46" y="-53" on="0"/>
        <pt x="46" y="8" on="1"/>
        <pt x="46" y="49" on="0"/>
        <pt x="85" y="132" on="0"/>
        <pt x="119" y="163" on="1"/>
        <pt x="176" y="139" on="1"/>
        <pt x="153" y="117" on="0"/>
        <pt x="124" y="55" on="0"/>
        <pt x="124" y="25" on="1"/>
        <pt x="124" y="-12" on="0"/>
        <pt x="173" y="-59" on="0"/>
        <pt x="225" y="-59" on="1"/>
        <pt x="276" y="-59" on="0"/>
        <pt x="352" y="31" on="0"/>
        <pt x="364" y="114" on="1"/>
        <pt x="419" y="500" on="1"/>
        <pt x="426" y="551" on="0"/>
        <pt x="449" y="586" on="1"/>
        <pt x="375" y="586" on="0"/>
        <pt x="265" y="526" on="0"/>
        <pt x="206" y="425" on="0"/>
        <pt x="206" y="366" on="1"/>
        <pt x="206" y="336" on="0"/>
        <pt x="213" y="309" on="1"/>
        <pt x="136" y="289" on="1"/>
        <pt x="126" y="331" on="0"/>
        <pt x="126" y="362" on="1"/>
        <pt x="126" y="440" on="0"/>
        <pt x="210" y="572" on="0"/>
        <pt x="362" y="650" on="0"/>
        <pt x="458" y="650" on="1"/>
        <pt x="578" y="650" on="1"/>
        <pt x="507" y="142" on="1"/>
      </contour>
    </TTGlyph>
    <TTGlyph name="K" xMin="77" yMin="0" xMax="652" yMax="650">
      <contour>
        <pt x="168" y="650" on="1"/>
        <pt x="306" y="650" on="1"/>
        <pt x="263" y="348" on="1"/>
        <pt x="329" y="392" on="1"/>
        <pt x="556" y="650" on="1"/>
        <pt x="652" y="650" on="1"/>
        <pt x="419" y="396" on="1"/>
        <pt x="607" y="0" on="1"/>
        <pt x="432" y="0" on="1"/>
        <pt x="299" y="292" on="1"/>
        <pt x="251" y="262" on="1"/>
        <pt x="215" y="0" on="1"/>
        <pt x="77" y="0" on="1"/>
      </contour>
    </TTGlyph>
    <TTGlyph name="K.swsh" xMin="94" yMin="-111" xMax="997" yMax="650">
      <contour>
        <pt x="569" y="393" on="1"/>
        <pt x="796" y="650" on="1"/>
        <pt x="892" y="650" on="1"/>
        <pt x="646" y="383" on="1"/>
        <pt x="800" y="88" on="1"/>
        <pt x="864" y="-45" on="0"/>
        <pt x="942" y="-45" on="1"/>
        <pt x="960" y="-45" on="0"/>
        <pt x="991" y="-33" on="0"/>
        <pt x="991" y="-32" on="1"/>
        <pt x="997" y="-81" on="1"/>
        <pt x="994" y="-83" on="0"/>
        <pt x="969" y="-98" on="0"/>
        <pt x="923" y="-111" on="0"/>
        <pt x="893" y="-111" on="1"/>
        <pt x="739" y="-111" on="0"/>
        <pt x="669" y="35" on="1"/>
        <pt x="537" y="292" on="1"/>
        <pt x="492" y="263" on="1"/>
        <pt x="455" y="0" on="1"/>
        <pt x="317" y="0" on="1"/>
        <pt x="387" y="500" on="1"/>
        <pt x="394" y="551" on="0"/>
        <pt x="417" y="586" on="1"/>
        <pt x="416" y="586" on="1"/>
        <pt x="342" y="586" on="0"/>
        <pt x="232" y="526" on="0"/>
        <pt x="174" y="426" on="0"/>
        <pt x="174" y="367" on="1"/>
        <pt x="174" y="336" on="0"/>
        <pt x="181" y="309" on="1"/>
        <pt x="104" y="289" on="1"/>
        <pt x="94" y="331" on="0"/>
        <pt x="94" y="362" on="1"/>
        <pt x="94" y="440" on="0"/>
        <pt x="178" y="572" on="0"/>
        <pt x="330" y="650" on="0"/>
        <pt x="426" y="650" on="1"/>
        <pt x="546" y="650" on="1"/>
        <pt x="504" y="349" on="1"/>
      </contour>
    </TTGlyph>
    <TTGlyph name="Kcommaaccent" xMin="77" yMin="-339" xMax="652" yMax="650">
      <contour>
        <pt x="168" y="650" on="1"/>
        <pt x="306" y="650" on="1"/>
        <pt x="263" y="348" on="1"/>
        <pt x="329" y="392" on="1"/>
        <pt x="556" y="650" on="1"/>
        <pt x="652" y="650" on="1"/>
        <pt x="419" y="396" on="1"/>
        <pt x="607" y="0" on="1"/>
        <pt x="432" y="0" on="1"/>
        <pt x="299" y="292" on="1"/>
        <pt x="251" y="262" on="1"/>
        <pt x="215" y="0" on="1"/>
        <pt x="77" y="0" on="1"/>
      </contour>
      <contour>
        <pt x="288" y="-46" on="0"/>
        <pt x="314" y="-46" on="1"/>
        <pt x="339" y="-46" on="0"/>
        <pt x="355" y="-62" on="1"/>
        <pt x="375" y="-86" on="0"/>
        <pt x="375" y="-123" on="1"/>
        <pt x="375" y="-177" on="0"/>
        <pt x="299" y="-302" on="0"/>
        <pt x="244" y="-339" on="1"/>
        <pt x="219" y="-308" on="1"/>
        <pt x="259" y="-276" on="0"/>
        <pt x="302" y="-204" on="0"/>
        <pt x="303" y="-170" on="1"/>
        <pt x="296" y="-170" on="1"/>
        <pt x="272" y="-170" on="0"/>
        <pt x="256" y="-154" on="1"/>
        <pt x="243" y="-138" on="0"/>
        <pt x="243" y="-118" on="1"/>
        <pt x="243" y="-103" on="0"/>
        <pt x="256" y="-73" on="0"/>
        <pt x="269" y="-62" on="1"/>
      </contour>
    </TTGlyph>
    <TTGlyph name="L" xMin="77" yMin="0" xMax="477" yMax="650">
      <contour>
        <pt x="467" y="0" on="1"/>
        <pt x="77" y="0" on="1"/>
        <pt x="168" y="650" on="1"/>
        <pt x="306" y="650" on="1"/>
        <pt x="225" y="72" on="1"/>
        <pt x="477" y="72" on="1"/>
      </contour>
    </TTGlyph>
    <TTGlyph name="L.swsh" xMin="94" yMin="-43" xMax="790" yMax="650">
      <contour>
        <pt x="781" y="49" on="0"/>
        <pt x="702" y="-43" on="0"/>
        <pt x="636" y="-43" on="1"/>
        <pt x="601" y="-43" on="0"/>
        <pt x="513" y="-29" on="0"/>
        <pt x="450" y="-17" on="1"/>
        <pt x="363" y="0" on="0"/>
        <pt x="342" y="0" on="1"/>
        <pt x="337" y="0" on="1"/>
        <pt x="296" y="-11" on="0"/>
        <pt x="248" y="-11" on="1"/>
        <pt x="249" y="24" on="1"/>
        <pt x="249" y="48" on="0"/>
        <pt x="250" y="60" on="1"/>
        <pt x="271" y="62" on="1"/>
        <pt x="299" y="69" on="0"/>
        <pt x="335" y="138" on="0"/>
        <pt x="346" y="214" on="1"/>
        <pt x="387" y="500" on="1"/>
        <pt x="393" y="548" on="0"/>
        <pt x="417" y="586" on="1"/>
        <pt x="416" y="586" on="1"/>
        <pt x="342" y="586" on="0"/>
        <pt x="232" y="526" on="0"/>
        <pt x="174" y="426" on="0"/>
        <pt x="174" y="367" on="1"/>
        <pt x="174" y="336" on="0"/>
        <pt x="181" y="309" on="1"/>
        <pt x="104" y="289" on="1"/>
        <pt x="94" y="331" on="0"/>
        <pt x="94" y="362" on="1"/>
        <pt x="94" y="440" on="0"/>
        <pt x="178" y="572" on="0"/>
        <pt x="330" y="650" on="0"/>
        <pt x="426" y="650" on="1"/>
        <pt x="546" y="650" on="1"/>
        <pt x="485" y="214" on="1"/>
        <pt x="470" y="112" on="0"/>
        <pt x="429" y="61" on="1"/>
        <pt x="445" y="59" on="0"/>
        <pt x="479" y="53" on="1"/>
        <pt x="597" y="33" on="0"/>
        <pt x="637" y="33" on="1"/>
        <pt x="673" y="33" on="0"/>
        <pt x="719" y="87" on="0"/>
        <pt x="726" y="140" on="1"/>
        <pt x="790" y="132" on="1"/>
      </contour>
    </TTGlyph>
    <TTGlyph name="Lacute" xMin="77" yMin="0" xMax="477" yMax="865">
      <contour>
        <pt x="400" y="834" on="1"/>
        <pt x="261" y="704" on="1"/>
        <pt x="205" y="713" on="1"/>
        <pt x="296" y="865" on="1"/>
      </contour>
      <contour>
        <pt x="467" y="0" on="1"/>
        <pt x="77" y="0" on="1"/>
        <pt x="168" y="650" on="1"/>
        <pt x="306" y="650" on="1"/>
        <pt x="225" y="72" on="1"/>
        <pt x="477" y="72" on="1"/>
      </contour>
    </TTGlyph>
    <TTGlyph name="Lcaron" xMin="77" yMin="0" xMax="477" yMax="880">
      <contour>
        <pt x="116" y="845" on="1"/>
        <pt x="163" y="880" on="1"/>
        <pt x="258" y="787" on="1"/>
        <pt x="379" y="880" on="1"/>
        <pt x="416" y="841" on="1"/>
        <pt x="282" y="707" on="1"/>
        <pt x="212" y="707" on="1"/>
      </contour>
      <contour>
        <pt x="467" y="0" on="1"/>
        <pt x="77" y="0" on="1"/>
        <pt x="168" y="650" on="1"/>
        <pt x="306" y="650" on="1"/>
        <pt x="225" y="72" on="1"/>
        <pt x="477" y="72" on="1"/>
      </contour>
    </TTGlyph>
    <TTGlyph name="Lcommaaccent" xMin="77" yMin="-339" xMax="477" yMax="650">
      <contour>
        <pt x="467" y="0" on="1"/>
        <pt x="77" y="0" on="1"/>
        <pt x="168" y="650" on="1"/>
        <pt x="306" y="650" on="1"/>
        <pt x="225" y="72" on="1"/>
        <pt x="477" y="72" on="1"/>
      </contour>
      <contour>
        <pt x="244" y="-46" on="0"/>
        <pt x="270" y="-46" on="1"/>
        <pt x="295" y="-46" on="0"/>
        <pt x="311" y="-62" on="1"/>
        <pt x="331" y="-86" on="0"/>
        <pt x="331" y="-123" on="1"/>
        <pt x="331" y="-177" on="0"/>
        <pt x="255" y="-302" on="0"/>
        <pt x="200" y="-339" on="1"/>
        <pt x="175" y="-308" on="1"/>
        <pt x="215" y="-276" on="0"/>
        <pt x="258" y="-204" on="0"/>
        <pt x="259" y="-170" on="1"/>
        <pt x="252" y="-170" on="1"/>
        <pt x="228" y="-170" on="0"/>
        <pt x="212" y="-154" on="1"/>
        <pt x="199" y="-138" on="0"/>
        <pt x="199" y="-118" on="1"/>
        <pt x="199" y="-103" on="0"/>
        <pt x="212" y="-73" on="0"/>
        <pt x="225" y="-62" on="1"/>
      </contour>
    </TTGlyph>
    <TTGlyph name="Lslash" xMin="63" yMin="0" xMax="511" yMax="650">
      <contour>
        <pt x="501" y="0" on="1"/>
        <pt x="111" y="0" on="1"/>
        <pt x="141" y="217" on="1"/>
        <pt x="89" y="182" on="1"/>
        <pt x="63" y="224" on="1"/>
        <pt x="150" y="282" on="1"/>
        <pt x="202" y="650" on="1"/>
        <pt x="340" y="650" on="1"/>
        <pt x="303" y="384" on="1"/>
        <pt x="412" y="457" on="1"/>
        <pt x="439" y="415" on="1"/>
        <pt x="293" y="318" on="1"/>
        <pt x="259" y="72" on="1"/>
        <pt x="511" y="72" on="1"/>
      </contour>
    </TTGlyph>
    <TTGlyph name="M" xMin="77" yMin="0" xMax="863" yMax="650">
      <contour>
        <pt x="779" y="0" on="1"/>
        <pt x="644" y="0" on="1"/>
        <pt x="705" y="492" on="1"/>
        <pt x="703" y="492" on="1"/>
        <pt x="453" y="0" on="1"/>
        <pt x="350" y="0" on="1"/>
        <pt x="238" y="492" on="1"/>
        <pt x="235" y="492" on="1"/>
        <pt x="163" y="0" on="1"/>
        <pt x="77" y="0" on="1"/>
        <pt x="176" y="650" on="1"/>
        <pt x="343" y="650" on="1"/>
        <pt x="458" y="171" on="1"/>
        <pt x="462" y="171" on="1"/>
        <pt x="708" y="650" on="1"/>
        <pt x="863" y="650" on="1"/>
      </contour>
    </TTGlyph>
    <TTGlyph name="M.swsh" xMin="94" yMin="-122" xMax="1163" yMax="665">
      <contour>
        <pt x="944" y="0" on="1"/>
        <pt x="1005" y="492" on="1"/>
        <pt x="1003" y="492" on="1"/>
        <pt x="744" y="0" on="1"/>
        <pt x="641" y="0" on="1"/>
        <pt x="538" y="492" on="1"/>
        <pt x="533" y="492" on="1"/>
        <pt x="480" y="130" on="1"/>
        <pt x="448" y="-88" on="0"/>
        <pt x="302" y="-122" on="1"/>
        <pt x="299" y="-50" on="1"/>
        <pt x="367" y="-28" on="0"/>
        <pt x="392" y="130" on="1"/>
        <pt x="463" y="584" on="1"/>
        <pt x="369" y="577" on="0"/>
        <pt x="238" y="513" on="0"/>
        <pt x="172" y="417" on="0"/>
        <pt x="172" y="360" on="1"/>
        <pt x="172" y="339" on="0"/>
        <pt x="179" y="309" on="1"/>
        <pt x="103" y="289" on="1"/>
        <pt x="94" y="324" on="0"/>
        <pt x="94" y="358" on="1"/>
        <pt x="94" y="438" on="0"/>
        <pt x="191" y="570" on="0"/>
        <pt x="374" y="649" on="0"/>
        <pt x="497" y="649" on="1"/>
        <pt x="497" y="650" on="1"/>
        <pt x="548" y="650" on="1"/>
        <pt x="612" y="653" on="0"/>
        <pt x="646" y="665" on="1"/>
        <pt x="648" y="628" on="1"/>
        <pt x="748" y="171" on="1"/>
        <pt x="753" y="171" on="1"/>
        <pt x="1008" y="650" on="1"/>
        <pt x="1163" y="650" on="1"/>
        <pt x="1079" y="0" on="1"/>
      </contour>
    </TTGlyph>
    <TTGlyph name="N" xMin="77" yMin="0" xMax="665" yMax="650">
      <contour>
        <pt x="574" y="0" on="1"/>
        <pt x="466" y="0" on="1"/>
        <pt x="225" y="488" on="1"/>
        <pt x="223" y="488" on="1"/>
        <pt x="223" y="430" on="1"/>
        <pt x="163" y="0" on="1"/>
        <pt x="77" y="0" on="1"/>
        <pt x="168" y="650" on="1"/>
        <pt x="311" y="650" on="1"/>
        <pt x="522" y="209" on="1"/>
        <pt x="525" y="209" on="1"/>
        <pt x="524" y="254" on="1"/>
        <pt x="579" y="650" on="1"/>
        <pt x="665" y="650" on="1"/>
      </contour>
    </TTGlyph>
    <TTGlyph name="N.swsh" xMin="94" yMin="-122" xMax="965" yMax="665">
      <contour>
        <pt x="765" y="0" on="1"/>
        <pt x="531" y="475" on="1"/>
        <pt x="480" y="130" on="1"/>
        <pt x="448" y="-88" on="0"/>
        <pt x="302" y="-122" on="1"/>
        <pt x="299" y="-50" on="1"/>
        <pt x="368" y="-28" on="0"/>
        <pt x="391" y="130" on="1"/>
        <pt x="463" y="584" on="1"/>
        <pt x="369" y="577" on="0"/>
        <pt x="238" y="513" on="0"/>
        <pt x="172" y="417" on="0"/>
        <pt x="172" y="360" on="1"/>
        <pt x="172" y="339" on="0"/>
        <pt x="179" y="309" on="1"/>
        <pt x="103" y="289" on="1"/>
        <pt x="94" y="324" on="0"/>
        <pt x="94" y="358" on="1"/>
        <pt x="94" y="437" on="0"/>
        <pt x="191" y="570" on="0"/>
        <pt x="373" y="649" on="0"/>
        <pt x="497" y="650" on="1"/>
        <pt x="515" y="650" on="1"/>
        <pt x="580" y="652" on="0"/>
        <pt x="620" y="665" on="1"/>
        <pt x="627" y="616" on="1"/>
        <pt x="822" y="209" on="1"/>
        <pt x="824" y="209" on="1"/>
        <pt x="824" y="254" on="1"/>
        <pt x="879" y="650" on="1"/>
        <pt x="965" y="650" on="1"/>
        <pt x="873" y="0" on="1"/>
      </contour>
    </TTGlyph>
    <TTGlyph name="Nacute" xMin="77" yMin="0" xMax="665" yMax="865">
      <contour>
        <pt x="593" y="834" on="1"/>
        <pt x="454" y="704" on="1"/>
        <pt x="398" y="713" on="1"/>
        <pt x="489" y="865" on="1"/>
      </contour>
      <contour>
        <pt x="574" y="0" on="1"/>
        <pt x="466" y="0" on="1"/>
        <pt x="225" y="488" on="1"/>
        <pt x="223" y="488" on="1"/>
        <pt x="223" y="430" on="1"/>
        <pt x="163" y="0" on="1"/>
        <pt x="77" y="0" on="1"/>
        <pt x="168" y="650" on="1"/>
        <pt x="311" y="650" on="1"/>
        <pt x="522" y="209" on="1"/>
        <pt x="525" y="209" on="1"/>
        <pt x="524" y="254" on="1"/>
        <pt x="579" y="650" on="1"/>
        <pt x="665" y="650" on="1"/>
      </contour>
    </TTGlyph>
    <TTGlyph name="Ncaron" xMin="77" yMin="0" xMax="665" yMax="880">
      <contour>
        <pt x="327" y="845" on="1"/>
        <pt x="374" y="880" on="1"/>
        <pt x="469" y="787" on="1"/>
        <pt x="590" y="880" on="1"/>
        <pt x="627" y="841" on="1"/>
        <pt x="493" y="707" on="1"/>
        <pt x="423" y="707" on="1"/>
      </contour>
      <contour>
        <pt x="574" y="0" on="1"/>
        <pt x="466" y="0" on="1"/>
        <pt x="225" y="488" on="1"/>
        <pt x="223" y="488" on="1"/>
        <pt x="223" y="430" on="1"/>
        <pt x="163" y="0" on="1"/>
        <pt x="77" y="0" on="1"/>
        <pt x="168" y="650" on="1"/>
        <pt x="311" y="650" on="1"/>
        <pt x="522" y="209" on="1"/>
        <pt x="525" y="209" on="1"/>
        <pt x="524" y="254" on="1"/>
        <pt x="579" y="650" on="1"/>
        <pt x="665" y="650" on="1"/>
      </contour>
    </TTGlyph>
    <TTGlyph name="Ncommaaccent" xMin="77" yMin="-339" xMax="665" yMax="650">
      <contour>
        <pt x="574" y="0" on="1"/>
        <pt x="466" y="0" on="1"/>
        <pt x="225" y="488" on="1"/>
        <pt x="223" y="488" on="1"/>
        <pt x="223" y="430" on="1"/>
        <pt x="163" y="0" on="1"/>
        <pt x="77" y="0" on="1"/>
        <pt x="168" y="650" on="1"/>
        <pt x="311" y="650" on="1"/>
        <pt x="522" y="209" on="1"/>
        <pt x="525" y="209" on="1"/>
        <pt x="524" y="254" on="1"/>
        <pt x="579" y="650" on="1"/>
        <pt x="665" y="650" on="1"/>
      </contour>
      <contour>
        <pt x="292" y="-46" on="0"/>
        <pt x="318" y="-46" on="1"/>
        <pt x="343" y="-46" on="0"/>
        <pt x="359" y="-62" on="1"/>
        <pt x="379" y="-86" on="0"/>
        <pt x="379" y="-123" on="1"/>
        <pt x="379" y="-177" on="0"/>
        <pt x="303" y="-302" on="0"/>
        <pt x="248" y="-339" on="1"/>
        <pt x="223" y="-308" on="1"/>
        <pt x="263" y="-276" on="0"/>
        <pt x="306" y="-204" on="0"/>
        <pt x="307" y="-170" on="1"/>
        <pt x="300" y="-170" on="1"/>
        <pt x="276" y="-170" on="0"/>
        <pt x="260" y="-154" on="1"/>
        <pt x="247" y="-138" on="0"/>
        <pt x="247" y="-118" on="1"/>
        <pt x="247" y="-103" on="0"/>
        <pt x="260" y="-73" on="0"/>
        <pt x="273" y="-62" on="1"/>
      </contour>
    </TTGlyph>
    <TTGlyph name="Ntilde" xMin="77" yMin="0" xMax="665" yMax="855">
      <contour>
        <pt x="629" y="802" on="0"/>
        <pt x="599" y="761" on="0"/>
        <pt x="545" y="726" on="0"/>
        <pt x="506" y="726" on="1"/>
        <pt x="484" y="726" on="0"/>
        <pt x="452" y="738" on="0"/>
        <pt x="427" y="751" on="1"/>
        <pt x="407" y="762" on="0"/>
        <pt x="376" y="774" on="0"/>
        <pt x="357" y="774" on="1"/>
        <pt x="341" y="774" on="0"/>
        <pt x="313" y="754" on="0"/>
        <pt x="296" y="732" on="0"/>
        <pt x="294" y="729" on="1"/>
        <pt x="263" y="765" on="1"/>
        <pt x="263" y="768" on="0"/>
        <pt x="300" y="815" on="0"/>
        <pt x="360" y="855" on="0"/>
        <pt x="398" y="855" on="1"/>
        <pt x="424" y="855" on="0"/>
        <pt x="460" y="842" on="0"/>
        <pt x="484" y="829" on="1"/>
        <pt x="503" y="818" on="0"/>
        <pt x="528" y="808" on="0"/>
        <pt x="544" y="808" on="1"/>
        <pt x="560" y="808" on="0"/>
        <pt x="584" y="822" on="0"/>
        <pt x="597" y="838" on="0"/>
        <pt x="598" y="840" on="1"/>
        <pt x="629" y="805" on="1"/>
      </contour>
      <contour>
        <pt x="574" y="0" on="1"/>
        <pt x="466" y="0" on="1"/>
        <pt x="225" y="488" on="1"/>
        <pt x="223" y="488" on="1"/>
        <pt x="223" y="430" on="1"/>
        <pt x="163" y="0" on="1"/>
        <pt x="77" y="0" on="1"/>
        <pt x="168" y="650" on="1"/>
        <pt x="311" y="650" on="1"/>
        <pt x="522" y="209" on="1"/>
        <pt x="525" y="209" on="1"/>
        <pt x="524" y="254" on="1"/>
        <pt x="579" y="650" on="1"/>
        <pt x="665" y="650" on="1"/>
      </contour>
    </TTGlyph>
    <TTGlyph name="O" xMin="76" yMin="-11" xMax="677" yMax="660">
      <contour>
        <pt x="677" y="272" on="0"/>
        <pt x="587" y="89" on="0"/>
        <pt x="431" y="-11" on="0"/>
        <pt x="335" y="-11" on="1"/>
        <pt x="212" y="-11" on="0"/>
        <pt x="76" y="133" on="0"/>
        <pt x="76" y="259" on="1"/>
        <pt x="76" y="376" on="0"/>
        <pt x="156" y="558" on="0"/>
        <pt x="309" y="660" on="0"/>
        <pt x="416" y="660" on="1"/>
        <pt x="548" y="660" on="0"/>
        <pt x="677" y="510" on="0"/>
        <pt x="677" y="392" on="1"/>
      </contour>
      <contour>
        <pt x="530" y="497" on="0"/>
        <pt x="470" y="588" on="0"/>
        <pt x="409" y="588" on="1"/>
        <pt x="222" y="588" on="0"/>
        <pt x="222" y="225" on="1"/>
        <pt x="222" y="148" on="0"/>
        <pt x="284" y="60" on="0"/>
        <pt x="342" y="60" on="1"/>
        <pt x="427" y="60" on="0"/>
        <pt x="530" y="232" on="0"/>
        <pt x="530" y="421" on="1"/>
      </contour>
    </TTGlyph>
    <TTGlyph name="O.swsh" xMin="79" yMin="-11" xMax="695" yMax="660">
      <contour>
        <pt x="79" y="304" on="0"/>
        <pt x="150" y="408" on="0"/>
        <pt x="188" y="429" on="1"/>
        <pt x="187" y="436" on="0"/>
        <pt x="187" y="450" on="1"/>
        <pt x="187" y="506" on="0"/>
        <pt x="250" y="602" on="0"/>
        <pt x="365" y="660" on="0"/>
        <pt x="440" y="660" on="1"/>
        <pt x="519" y="660" on="0"/>
        <pt x="634" y="589" on="0"/>
        <pt x="695" y="462" on="0"/>
        <pt x="695" y="379" on="1"/>
        <pt x="695" y="272" on="0"/>
        <pt x="609" y="94" on="0"/>
        <pt x="445" y="-11" on="0"/>
        <pt x="333" y="-11" on="1"/>
        <pt x="250" y="-11" on="0"/>
        <pt x="136" y="53" on="0"/>
        <pt x="79" y="160" on="0"/>
        <pt x="79" y="226" on="1"/>
      </contour>
      <contour>
        <pt x="261" y="327" on="0"/>
        <pt x="246" y="337" on="1"/>
        <pt x="215" y="291" on="0"/>
        <pt x="215" y="223" on="1"/>
        <pt x="215" y="149" on="0"/>
        <pt x="286" y="64" on="0"/>
        <pt x="345" y="64" on="1"/>
        <pt x="410" y="64" on="0"/>
        <pt x="501" y="152" on="0"/>
        <pt x="547" y="307" on="0"/>
        <pt x="547" y="407" on="1"/>
        <pt x="547" y="498" on="0"/>
        <pt x="481" y="585" on="0"/>
        <pt x="421" y="585" on="1"/>
        <pt x="376" y="585" on="0"/>
        <pt x="305" y="547" on="0"/>
        <pt x="266" y="484" on="0"/>
        <pt x="266" y="450" on="1"/>
        <pt x="266" y="413" on="0"/>
        <pt x="304" y="368" on="0"/>
        <pt x="335" y="352" on="1"/>
        <pt x="276" y="319" on="1"/>
      </contour>
    </TTGlyph>
    <TTGlyph name="OE" xMin="76" yMin="-11" xMax="963" yMax="660">
      <contour>
        <pt x="676" y="364" on="1"/>
        <pt x="893" y="364" on="1"/>
        <pt x="883" y="294" on="1"/>
        <pt x="668" y="294" on="1"/>
        <pt x="662" y="258" on="0"/>
        <pt x="652" y="230" on="1"/>
        <pt x="630" y="72" on="1"/>
        <pt x="896" y="72" on="1"/>
        <pt x="886" y="0" on="1"/>
        <pt x="481" y="0" on="1"/>
        <pt x="484" y="24" on="1"/>
        <pt x="416" y="-11" on="0"/>
        <pt x="335" y="-11" on="1"/>
        <pt x="212" y="-11" on="0"/>
        <pt x="76" y="133" on="0"/>
        <pt x="76" y="259" on="1"/>
        <pt x="76" y="376" on="0"/>
        <pt x="156" y="558" on="0"/>
        <pt x="309" y="660" on="0"/>
        <pt x="416" y="660" on="1"/>
        <pt x="507" y="660" on="0"/>
        <pt x="568" y="621" on="1"/>
        <pt x="572" y="650" on="1"/>
        <pt x="963" y="650" on="1"/>
        <pt x="953" y="578" on="1"/>
        <pt x="701" y="578" on="1"/>
        <pt x="677" y="406" on="1"/>
        <pt x="677" y="392" on="1"/>
      </contour>
      <contour>
        <pt x="530" y="497" on="0"/>
        <pt x="470" y="588" on="0"/>
        <pt x="409" y="588" on="1"/>
        <pt x="222" y="588" on="0"/>
        <pt x="222" y="225" on="1"/>
        <pt x="222" y="148" on="0"/>
        <pt x="284" y="60" on="0"/>
        <pt x="342" y="60" on="1"/>
        <pt x="407" y="60" on="0"/>
        <pt x="500" y="162" on="0"/>
        <pt x="519" y="272" on="1"/>
        <pt x="524" y="309" on="1"/>
        <pt x="524" y="314" on="1"/>
        <pt x="530" y="362" on="0"/>
        <pt x="530" y="421" on="1"/>
      </contour>
    </TTGlyph>
    <TTGlyph name="Oacute" xMin="76" yMin="-11" xMax="677" yMax="865">
      <contour>
        <pt x="569" y="834" on="1"/>
        <pt x="430" y="704" on="1"/>
        <pt x="374" y="713" on="1"/>
        <pt x="465" y="865" on="1"/>
      </contour>
      <contour>
        <pt x="677" y="272" on="0"/>
        <pt x="587" y="89" on="0"/>
        <pt x="431" y="-11" on="0"/>
        <pt x="335" y="-11" on="1"/>
        <pt x="212" y="-11" on="0"/>
        <pt x="76" y="133" on="0"/>
        <pt x="76" y="259" on="1"/>
        <pt x="76" y="376" on="0"/>
        <pt x="156" y="558" on="0"/>
        <pt x="309" y="660" on="0"/>
        <pt x="416" y="660" on="1"/>
        <pt x="548" y="660" on="0"/>
        <pt x="677" y="510" on="0"/>
        <pt x="677" y="392" on="1"/>
      </contour>
      <contour>
        <pt x="530" y="497" on="0"/>
        <pt x="470" y="588" on="0"/>
        <pt x="409" y="588" on="1"/>
        <pt x="222" y="588" on="0"/>
        <pt x="222" y="225" on="1"/>
        <pt x="222" y="148" on="0"/>
        <pt x="284" y="60" on="0"/>
        <pt x="342" y="60" on="1"/>
        <pt x="427" y="60" on="0"/>
        <pt x="530" y="232" on="0"/>
        <pt x="530" y="421" on="1"/>
      </contour>
    </TTGlyph>
    <TTGlyph name="Ocircumflex" xMin="76" yMin="-11" xMax="677" yMax="888">
      <contour>
        <pt x="559" y="766" on="1"/>
        <pt x="525" y="721" on="1"/>
        <pt x="433" y="806" on="1"/>
        <pt x="316" y="721" on="1"/>
        <pt x="294" y="766" on="1"/>
        <pt x="409" y="888" on="1"/>
        <pt x="479" y="888" on="1"/>
      </contour>
      <contour>
        <pt x="677" y="272" on="0"/>
        <pt x="587" y="89" on="0"/>
        <pt x="431" y="-11" on="0"/>
        <pt x="335" y="-11" on="1"/>
        <pt x="212" y="-11" on="0"/>
        <pt x="76" y="133" on="0"/>
        <pt x="76" y="259" on="1"/>
        <pt x="76" y="376" on="0"/>
        <pt x="156" y="558" on="0"/>
        <pt x="309" y="660" on="0"/>
        <pt x="416" y="660" on="1"/>
        <pt x="548" y="660" on="0"/>
        <pt x="677" y="510" on="0"/>
        <pt x="677" y="392" on="1"/>
      </contour>
      <contour>
        <pt x="530" y="497" on="0"/>
        <pt x="470" y="588" on="0"/>
        <pt x="409" y="588" on="1"/>
        <pt x="222" y="588" on="0"/>
        <pt x="222" y="225" on="1"/>
        <pt x="222" y="148" on="0"/>
        <pt x="284" y="60" on="0"/>
        <pt x="342" y="60" on="1"/>
        <pt x="427" y="60" on="0"/>
        <pt x="530" y="232" on="0"/>
        <pt x="530" y="421" on="1"/>
      </contour>
    </TTGlyph>
    <TTGlyph name="Odieresis" xMin="76" yMin="-11" xMax="677" yMax="856">
      <contour>
        <pt x="320" y="856" on="0"/>
        <pt x="347" y="856" on="1"/>
        <pt x="373" y="856" on="0"/>
        <pt x="390" y="839" on="1"/>
        <pt x="404" y="820" on="0"/>
        <pt x="404" y="798" on="1"/>
        <pt x="404" y="761" on="0"/>
        <pt x="375" y="735" on="1"/>
        <pt x="353" y="717" on="0"/>
        <pt x="327" y="717" on="1"/>
        <pt x="300" y="717" on="0"/>
        <pt x="284" y="735" on="1"/>
        <pt x="270" y="752" on="0"/>
        <pt x="270" y="776" on="1"/>
        <pt x="270" y="793" on="0"/>
        <pt x="285" y="826" on="0"/>
        <pt x="298" y="839" on="1"/>
      </contour>
      <contour>
        <pt x="506" y="856" on="0"/>
        <pt x="532" y="856" on="1"/>
        <pt x="557" y="856" on="0"/>
        <pt x="576" y="839" on="1"/>
        <pt x="590" y="820" on="0"/>
        <pt x="590" y="798" on="1"/>
        <pt x="590" y="761" on="0"/>
        <pt x="561" y="735" on="1"/>
        <pt x="539" y="717" on="0"/>
        <pt x="512" y="717" on="1"/>
        <pt x="485" y="717" on="0"/>
        <pt x="470" y="735" on="1"/>
        <pt x="456" y="752" on="0"/>
        <pt x="456" y="776" on="1"/>
        <pt x="456" y="793" on="0"/>
        <pt x="471" y="826" on="0"/>
        <pt x="484" y="839" on="1"/>
      </contour>
      <contour>
        <pt x="677" y="272" on="0"/>
        <pt x="587" y="89" on="0"/>
        <pt x="431" y="-11" on="0"/>
        <pt x="335" y="-11" on="1"/>
        <pt x="212" y="-11" on="0"/>
        <pt x="76" y="133" on="0"/>
        <pt x="76" y="259" on="1"/>
        <pt x="76" y="376" on="0"/>
        <pt x="156" y="558" on="0"/>
        <pt x="309" y="660" on="0"/>
        <pt x="416" y="660" on="1"/>
        <pt x="548" y="660" on="0"/>
        <pt x="677" y="510" on="0"/>
        <pt x="677" y="392" on="1"/>
      </contour>
      <contour>
        <pt x="530" y="497" on="0"/>
        <pt x="470" y="588" on="0"/>
        <pt x="409" y="588" on="1"/>
        <pt x="222" y="588" on="0"/>
        <pt x="222" y="225" on="1"/>
        <pt x="222" y="148" on="0"/>
        <pt x="284" y="60" on="0"/>
        <pt x="342" y="60" on="1"/>
        <pt x="427" y="60" on="0"/>
        <pt x="530" y="232" on="0"/>
        <pt x="530" y="421" on="1"/>
      </contour>
    </TTGlyph>
    <TTGlyph name="Ograve" xMin="76" yMin="-11" xMax="677" yMax="873">
      <contour>
        <pt x="409" y="873" on="1"/>
        <pt x="473" y="726" on="1"/>
        <pt x="409" y="709" on="1"/>
        <pt x="298" y="838" on="1"/>
      </contour>
      <contour>
        <pt x="677" y="272" on="0"/>
        <pt x="587" y="89" on="0"/>
        <pt x="431" y="-11" on="0"/>
        <pt x="335" y="-11" on="1"/>
        <pt x="212" y="-11" on="0"/>
        <pt x="76" y="133" on="0"/>
        <pt x="76" y="259" on="1"/>
        <pt x="76" y="376" on="0"/>
        <pt x="156" y="558" on="0"/>
        <pt x="309" y="660" on="0"/>
        <pt x="416" y="660" on="1"/>
        <pt x="548" y="660" on="0"/>
        <pt x="677" y="510" on="0"/>
        <pt x="677" y="392" on="1"/>
      </contour>
      <contour>
        <pt x="530" y="497" on="0"/>
        <pt x="470" y="588" on="0"/>
        <pt x="409" y="588" on="1"/>
        <pt x="222" y="588" on="0"/>
        <pt x="222" y="225" on="1"/>
        <pt x="222" y="148" on="0"/>
        <pt x="284" y="60" on="0"/>
        <pt x="342" y="60" on="1"/>
        <pt x="427" y="60" on="0"/>
        <pt x="530" y="232" on="0"/>
        <pt x="530" y="421" on="1"/>
      </contour>
    </TTGlyph>
    <TTGlyph name="Ohorn" xMin="76" yMin="-11" xMax="677" yMax="739">
      <contour>
        <pt x="630" y="578" on="0"/>
        <pt x="677" y="462" on="0"/>
        <pt x="677" y="392" on="1"/>
        <pt x="677" y="272" on="0"/>
        <pt x="587" y="89" on="0"/>
        <pt x="431" y="-11" on="0"/>
        <pt x="335" y="-11" on="1"/>
        <pt x="212" y="-11" on="0"/>
        <pt x="76" y="133" on="0"/>
        <pt x="76" y="259" on="1"/>
        <pt x="76" y="376" on="0"/>
        <pt x="156" y="558" on="0"/>
        <pt x="309" y="660" on="0"/>
        <pt x="416" y="660" on="1"/>
        <pt x="464" y="660" on="0"/>
        <pt x="500" y="650" on="1"/>
        <pt x="532" y="652" on="0"/>
        <pt x="575" y="694" on="0"/>
        <pt x="584" y="739" on="1"/>
        <pt x="671" y="739" on="1"/>
        <pt x="663" y="698" on="0"/>
        <pt x="616" y="632" on="0"/>
        <pt x="581" y="613" on="1"/>
      </contour>
      <contour>
        <pt x="427" y="60" on="0"/>
        <pt x="530" y="232" on="0"/>
        <pt x="530" y="421" on="1"/>
        <pt x="530" y="497" on="0"/>
        <pt x="470" y="588" on="0"/>
        <pt x="409" y="588" on="1"/>
        <pt x="222" y="588" on="0"/>
        <pt x="222" y="225" on="1"/>
        <pt x="222" y="148" on="0"/>
        <pt x="284" y="60" on="0"/>
        <pt x="342" y="60" on="1"/>
      </contour>
    </TTGlyph>
    <TTGlyph name="Ohungarumlaut" xMin="76" yMin="-11" xMax="677" yMax="873">
      <contour>
        <pt x="380" y="873" on="1"/>
        <pt x="469" y="847" on="1"/>
        <pt x="353" y="697" on="1"/>
        <pt x="306" y="720" on="1"/>
      </contour>
      <contour>
        <pt x="536" y="873" on="1"/>
        <pt x="625" y="847" on="1"/>
        <pt x="509" y="697" on="1"/>
        <pt x="461" y="720" on="1"/>
      </contour>
      <contour>
        <pt x="677" y="272" on="0"/>
        <pt x="587" y="89" on="0"/>
        <pt x="431" y="-11" on="0"/>
        <pt x="335" y="-11" on="1"/>
        <pt x="212" y="-11" on="0"/>
        <pt x="76" y="133" on="0"/>
        <pt x="76" y="259" on="1"/>
        <pt x="76" y="376" on="0"/>
        <pt x="156" y="558" on="0"/>
        <pt x="309" y="660" on="0"/>
        <pt x="416" y="660" on="1"/>
        <pt x="548" y="660" on="0"/>
        <pt x="677" y="510" on="0"/>
        <pt x="677" y="392" on="1"/>
      </contour>
      <contour>
        <pt x="530" y="497" on="0"/>
        <pt x="470" y="588" on="0"/>
        <pt x="409" y="588" on="1"/>
        <pt x="222" y="588" on="0"/>
        <pt x="222" y="225" on="1"/>
        <pt x="222" y="148" on="0"/>
        <pt x="284" y="60" on="0"/>
        <pt x="342" y="60" on="1"/>
        <pt x="427" y="60" on="0"/>
        <pt x="530" y="232" on="0"/>
        <pt x="530" y="421" on="1"/>
      </contour>
    </TTGlyph>
    <TTGlyph name="Omacron" xMin="76" yMin="-11" xMax="677" yMax="817">
      <contour>
        <pt x="534" y="759" on="1"/>
        <pt x="319" y="759" on="1"/>
        <pt x="327" y="817" on="1"/>
        <pt x="541" y="817" on="1"/>
      </contour>
      <contour>
        <pt x="677" y="272" on="0"/>
        <pt x="587" y="89" on="0"/>
        <pt x="431" y="-11" on="0"/>
        <pt x="335" y="-11" on="1"/>
        <pt x="212" y="-11" on="0"/>
        <pt x="76" y="133" on="0"/>
        <pt x="76" y="259" on="1"/>
        <pt x="76" y="376" on="0"/>
        <pt x="156" y="558" on="0"/>
        <pt x="309" y="660" on="0"/>
        <pt x="416" y="660" on="1"/>
        <pt x="548" y="660" on="0"/>
        <pt x="677" y="510" on="0"/>
        <pt x="677" y="392" on="1"/>
      </contour>
      <contour>
        <pt x="530" y="497" on="0"/>
        <pt x="470" y="588" on="0"/>
        <pt x="409" y="588" on="1"/>
        <pt x="222" y="588" on="0"/>
        <pt x="222" y="225" on="1"/>
        <pt x="222" y="148" on="0"/>
        <pt x="284" y="60" on="0"/>
        <pt x="342" y="60" on="1"/>
        <pt x="427" y="60" on="0"/>
        <pt x="530" y="232" on="0"/>
        <pt x="530" y="421" on="1"/>
      </contour>
    </TTGlyph>
    <TTGlyph name="Oslash" xMin="76" yMin="-107" xMax="677" yMax="726">
      <contour>
        <pt x="677" y="272" on="0"/>
        <pt x="587" y="89" on="0"/>
        <pt x="431" y="-11" on="0"/>
        <pt x="335" y="-11" on="1"/>
        <pt x="281" y="-11" on="0"/>
        <pt x="231" y="5" on="1"/>
        <pt x="168" y="-107" on="1"/>
        <pt x="128" y="-96" on="1"/>
        <pt x="194" y="22" on="1"/>
        <pt x="136" y="54" on="0"/>
        <pt x="76" y="175" on="0"/>
        <pt x="76" y="259" on="1"/>
        <pt x="76" y="376" on="0"/>
        <pt x="156" y="558" on="0"/>
        <pt x="309" y="660" on="0"/>
        <pt x="416" y="660" on="1"/>
        <pt x="485" y="660" on="0"/>
        <pt x="541" y="636" on="1"/>
        <pt x="592" y="726" on="1"/>
        <pt x="632" y="715" on="1"/>
        <pt x="576" y="616" on="1"/>
        <pt x="627" y="581" on="0"/>
        <pt x="677" y="464" on="0"/>
        <pt x="677" y="392" on="1"/>
      </contour>
      <contour>
        <pt x="222" y="156" on="0"/>
        <pt x="246" y="114" on="1"/>
        <pt x="493" y="551" on="1"/>
        <pt x="462" y="588" on="0"/>
        <pt x="409" y="588" on="1"/>
        <pt x="222" y="588" on="0"/>
        <pt x="222" y="225" on="1"/>
      </contour>
      <contour>
        <pt x="530" y="470" on="0"/>
        <pt x="516" y="510" on="1"/>
        <pt x="274" y="81" on="1"/>
        <pt x="301" y="60" on="0"/>
        <pt x="342" y="60" on="1"/>
        <pt x="427" y="60" on="0"/>
        <pt x="530" y="232" on="0"/>
        <pt x="530" y="421" on="1"/>
      </contour>
    </TTGlyph>
    <TTGlyph name="Otilde" xMin="76" yMin="-11" xMax="677" yMax="855">
      <contour>
        <pt x="618" y="802" on="0"/>
        <pt x="588" y="761" on="0"/>
        <pt x="534" y="726" on="0"/>
        <pt x="495" y="726" on="1"/>
        <pt x="473" y="726" on="0"/>
        <pt x="441" y="738" on="0"/>
        <pt x="416" y="751" on="1"/>
        <pt x="396" y="762" on="0"/>
        <pt x="365" y="774" on="0"/>
        <pt x="346" y="774" on="1"/>
        <pt x="330" y="774" on="0"/>
        <pt x="302" y="754" on="0"/>
        <pt x="285" y="732" on="0"/>
        <pt x="283" y="729" on="1"/>
        <pt x="252" y="765" on="1"/>
        <pt x="252" y="768" on="0"/>
        <pt x="289" y="815" on="0"/>
        <pt x="349" y="855" on="0"/>
        <pt x="387" y="855" on="1"/>
        <pt x="413" y="855" on="0"/>
        <pt x="449" y="842" on="0"/>
        <pt x="473" y="829" on="1"/>
        <pt x="492" y="818" on="0"/>
        <pt x="517" y="808" on="0"/>
        <pt x="533" y="808" on="1"/>
        <pt x="549" y="808" on="0"/>
        <pt x="573" y="822" on="0"/>
        <pt x="586" y="838" on="0"/>
        <pt x="587" y="840" on="1"/>
        <pt x="618" y="805" on="1"/>
      </contour>
      <contour>
        <pt x="677" y="272" on="0"/>
        <pt x="587" y="89" on="0"/>
        <pt x="431" y="-11" on="0"/>
        <pt x="335" y="-11" on="1"/>
        <pt x="212" y="-11" on="0"/>
        <pt x="76" y="133" on="0"/>
        <pt x="76" y="259" on="1"/>
        <pt x="76" y="376" on="0"/>
        <pt x="156" y="558" on="0"/>
        <pt x="309" y="660" on="0"/>
        <pt x="416" y="660" on="1"/>
        <pt x="548" y="660" on="0"/>
        <pt x="677" y="510" on="0"/>
        <pt x="677" y="392" on="1"/>
      </contour>
      <contour>
        <pt x="530" y="497" on="0"/>
        <pt x="470" y="588" on="0"/>
        <pt x="409" y="588" on="1"/>
        <pt x="222" y="588" on="0"/>
        <pt x="222" y="225" on="1"/>
        <pt x="222" y="148" on="0"/>
        <pt x="284" y="60" on="0"/>
        <pt x="342" y="60" on="1"/>
        <pt x="427" y="60" on="0"/>
        <pt x="530" y="232" on="0"/>
        <pt x="530" y="421" on="1"/>
      </contour>
    </TTGlyph>
    <TTGlyph name="P" xMin="77" yMin="0" xMax="574" yMax="650">
      <contour>
        <pt x="367" y="650" on="1"/>
        <pt x="466" y="650" on="0"/>
        <pt x="574" y="561" on="0"/>
        <pt x="574" y="471" on="1"/>
        <pt x="574" y="380" on="0"/>
        <pt x="493" y="260" on="0"/>
        <pt x="371" y="203" on="0"/>
        <pt x="308" y="203" on="1"/>
        <pt x="244" y="203" on="1"/>
        <pt x="215" y="0" on="1"/>
        <pt x="77" y="0" on="1"/>
        <pt x="168" y="650" on="1"/>
      </contour>
      <contour>
        <pt x="253" y="267" on="1"/>
        <pt x="301" y="267" on="1"/>
        <pt x="357" y="267" on="0"/>
        <pt x="427" y="370" on="0"/>
        <pt x="427" y="485" on="1"/>
        <pt x="427" y="538" on="0"/>
        <pt x="385" y="585" on="0"/>
        <pt x="346" y="585" on="1"/>
        <pt x="298" y="585" on="1"/>
      </contour>
    </TTGlyph>
    <TTGlyph name="P.swsh" xMin="104" yMin="0" xMax="795" yMax="723">
      <contour>
        <pt x="538" y="684" on="0"/>
        <pt x="529" y="650" on="1"/>
        <pt x="588" y="650" on="1"/>
        <pt x="687" y="650" on="0"/>
        <pt x="795" y="558" on="0"/>
        <pt x="795" y="467" on="1"/>
        <pt x="795" y="377" on="0"/>
        <pt x="714" y="258" on="0"/>
        <pt x="592" y="203" on="0"/>
        <pt x="529" y="203" on="1"/>
        <pt x="461" y="203" on="1"/>
        <pt x="439" y="72" on="0"/>
        <pt x="421" y="0" on="1"/>
        <pt x="286" y="0" on="1"/>
        <pt x="303" y="63" on="0"/>
        <pt x="331" y="240" on="0"/>
        <pt x="364" y="469" on="1"/>
        <pt x="374" y="542" on="1"/>
        <pt x="378" y="572" on="0"/>
        <pt x="381" y="586" on="1"/>
        <pt x="380" y="586" on="1"/>
        <pt x="325" y="586" on="0"/>
        <pt x="236" y="547" on="0"/>
        <pt x="184" y="481" on="0"/>
        <pt x="184" y="441" on="1"/>
        <pt x="184" y="406" on="0"/>
        <pt x="206" y="369" on="1"/>
        <pt x="139" y="338" on="1"/>
        <pt x="104" y="391" on="0"/>
        <pt x="104" y="443" on="1"/>
        <pt x="104" y="500" on="0"/>
        <pt x="182" y="595" on="0"/>
        <pt x="314" y="650" on="0"/>
        <pt x="389" y="650" on="1"/>
        <pt x="397" y="650" on="1"/>
        <pt x="416" y="707" on="0"/>
        <pt x="443" y="723" on="1"/>
        <pt x="547" y="709" on="1"/>
      </contour>
      <contour>
        <pt x="512" y="541" on="1"/>
        <pt x="509" y="520" on="1"/>
        <pt x="479" y="315" on="0"/>
        <pt x="471" y="267" on="1"/>
        <pt x="521" y="267" on="1"/>
        <pt x="580" y="267" on="0"/>
        <pt x="648" y="361" on="0"/>
        <pt x="648" y="485" on="1"/>
        <pt x="648" y="538" on="0"/>
        <pt x="606" y="585" on="0"/>
        <pt x="567" y="585" on="1"/>
        <pt x="518" y="585" on="1"/>
      </contour>
    </TTGlyph>
    <TTGlyph name="Q" xMin="76" yMin="-198" xMax="677" yMax="660">
      <contour>
        <pt x="677" y="289" on="0"/>
        <pt x="610" y="124" on="0"/>
        <pt x="490" y="17" on="0"/>
        <pt x="414" y="-1" on="1"/>
        <pt x="457" y="-132" on="0"/>
        <pt x="529" y="-132" on="1"/>
        <pt x="545" y="-132" on="0"/>
        <pt x="561" y="-126" on="1"/>
        <pt x="559" y="-187" on="1"/>
        <pt x="526" y="-198" on="0"/>
        <pt x="498" y="-198" on="1"/>
        <pt x="425" y="-198" on="0"/>
        <pt x="308" y="-88" on="0"/>
        <pt x="285" y="-7" on="1"/>
        <pt x="184" y="6" on="0"/>
        <pt x="76" y="146" on="0"/>
        <pt x="76" y="259" on="1"/>
        <pt x="76" y="376" on="0"/>
        <pt x="156" y="558" on="0"/>
        <pt x="309" y="660" on="0"/>
        <pt x="416" y="660" on="1"/>
        <pt x="548" y="660" on="0"/>
        <pt x="677" y="510" on="0"/>
        <pt x="677" y="392" on="1"/>
      </contour>
      <contour>
        <pt x="530" y="497" on="0"/>
        <pt x="470" y="588" on="0"/>
        <pt x="409" y="588" on="1"/>
        <pt x="222" y="588" on="0"/>
        <pt x="222" y="225" on="1"/>
        <pt x="222" y="148" on="0"/>
        <pt x="284" y="60" on="0"/>
        <pt x="342" y="60" on="1"/>
        <pt x="427" y="60" on="0"/>
        <pt x="530" y="232" on="0"/>
        <pt x="530" y="421" on="1"/>
      </contour>
    </TTGlyph>
    <TTGlyph name="Q.swsh" xMin="99" yMin="-203" xMax="652" yMax="660">
      <contour>
        <pt x="616" y="-138" on="0"/>
        <pt x="536" y="-203" on="0"/>
        <pt x="480" y="-203" on="1"/>
        <pt x="426" y="-203" on="0"/>
        <pt x="349" y="-160" on="0"/>
        <pt x="302" y="-99" on="0"/>
        <pt x="275" y="-52" on="1"/>
        <pt x="257" y="-20" on="0"/>
        <pt x="248" y="-7" on="1"/>
        <pt x="193" y="1" on="0"/>
        <pt x="115" y="27" on="0"/>
        <pt x="113" y="28" on="1"/>
        <pt x="131" y="97" on="1"/>
        <pt x="164" y="110" on="0"/>
        <pt x="195" y="110" on="1"/>
        <pt x="257" y="110" on="0"/>
        <pt x="306" y="64" on="1"/>
        <pt x="402" y="69" on="0"/>
        <pt x="504" y="257" on="0"/>
        <pt x="504" y="407" on="1"/>
        <pt x="504" y="498" on="0"/>
        <pt x="438" y="585" on="0"/>
        <pt x="378" y="585" on="1"/>
        <pt x="330" y="585" on="0"/>
        <pt x="237" y="531" on="0"/>
        <pt x="178" y="433" on="0"/>
        <pt x="178" y="371" on="1"/>
        <pt x="178" y="314" on="0"/>
        <pt x="227" y="248" on="0"/>
        <pt x="260" y="232" on="1"/>
        <pt x="205" y="196" on="1"/>
        <pt x="163" y="212" on="0"/>
        <pt x="99" y="294" on="0"/>
        <pt x="99" y="369" on="1"/>
        <pt x="99" y="456" on="0"/>
        <pt x="183" y="589" on="0"/>
        <pt x="321" y="660" on="0"/>
        <pt x="397" y="660" on="1"/>
        <pt x="476" y="660" on="0"/>
        <pt x="591" y="589" on="0"/>
        <pt x="652" y="462" on="0"/>
        <pt x="652" y="379" on="1"/>
        <pt x="652" y="284" on="0"/>
        <pt x="583" y="120" on="0"/>
        <pt x="451" y="10" on="0"/>
        <pt x="361" y="-5" on="1"/>
        <pt x="378" y="-32" on="1"/>
        <pt x="409" y="-83" on="0"/>
        <pt x="454" y="-132" on="0"/>
        <pt x="486" y="-132" on="1"/>
        <pt x="511" y="-132" on="0"/>
        <pt x="554" y="-96" on="0"/>
        <pt x="559" y="-56" on="1"/>
        <pt x="624" y="-64" on="1"/>
      </contour>
    </TTGlyph>
    <TTGlyph name="R" xMin="77" yMin="0" xMax="577" yMax="650">
      <contour>
        <pt x="368" y="650" on="1"/>
        <pt x="467" y="650" on="0"/>
        <pt x="577" y="562" on="0"/>
        <pt x="577" y="480" on="1"/>
        <pt x="577" y="404" on="0"/>
        <pt x="498" y="294" on="0"/>
        <pt x="435" y="264" on="1"/>
        <pt x="549" y="0" on="1"/>
        <pt x="390" y="0" on="1"/>
        <pt x="301" y="236" on="1"/>
        <pt x="248" y="236" on="1"/>
        <pt x="215" y="0" on="1"/>
        <pt x="77" y="0" on="1"/>
        <pt x="168" y="650" on="1"/>
      </contour>
      <contour>
        <pt x="257" y="302" on="1"/>
        <pt x="309" y="302" on="1"/>
        <pt x="371" y="302" on="0"/>
        <pt x="430" y="396" on="0"/>
        <pt x="430" y="492" on="1"/>
        <pt x="430" y="539" on="0"/>
        <pt x="388" y="585" on="0"/>
        <pt x="345" y="585" on="1"/>
        <pt x="297" y="585" on="1"/>
      </contour>
    </TTGlyph>
    <TTGlyph name="R.swsh" xMin="104" yMin="-111" xMax="979" yMax="723">
      <contour>
        <pt x="538" y="684" on="0"/>
        <pt x="529" y="650" on="1"/>
        <pt x="589" y="650" on="1"/>
        <pt x="690" y="650" on="0"/>
        <pt x="801" y="570" on="0"/>
        <pt x="801" y="496" on="1"/>
        <pt x="801" y="430" on="0"/>
        <pt x="720" y="323" on="0"/>
        <pt x="658" y="292" on="1"/>
        <pt x="780" y="88" on="1"/>
        <pt x="817" y="25" on="0"/>
        <pt x="893" y="-45" on="0"/>
        <pt x="924" y="-45" on="1"/>
        <pt x="941" y="-45" on="0"/>
        <pt x="973" y="-33" on="0"/>
        <pt x="973" y="-32" on="1"/>
        <pt x="979" y="-81" on="1"/>
        <pt x="976" y="-83" on="0"/>
        <pt x="951" y="-98" on="0"/>
        <pt x="905" y="-111" on="0"/>
        <pt x="875" y="-111" on="1"/>
        <pt x="805" y="-111" on="0"/>
        <pt x="695" y="-38" on="0"/>
        <pt x="651" y="35" on="1"/>
        <pt x="515" y="262" on="1"/>
        <pt x="471" y="262" on="1"/>
        <pt x="442" y="77" on="0"/>
        <pt x="421" y="0" on="1"/>
        <pt x="286" y="0" on="1"/>
        <pt x="303" y="63" on="0"/>
        <pt x="331" y="240" on="0"/>
        <pt x="364" y="469" on="1"/>
        <pt x="374" y="542" on="1"/>
        <pt x="378" y="572" on="0"/>
        <pt x="381" y="586" on="1"/>
        <pt x="380" y="586" on="1"/>
        <pt x="325" y="586" on="0"/>
        <pt x="236" y="547" on="0"/>
        <pt x="184" y="481" on="0"/>
        <pt x="184" y="441" on="1"/>
        <pt x="184" y="406" on="0"/>
        <pt x="206" y="369" on="1"/>
        <pt x="139" y="338" on="1"/>
        <pt x="104" y="391" on="0"/>
        <pt x="104" y="443" on="1"/>
        <pt x="104" y="500" on="0"/>
        <pt x="182" y="595" on="0"/>
        <pt x="314" y="650" on="0"/>
        <pt x="389" y="650" on="1"/>
        <pt x="397" y="650" on="1"/>
        <pt x="416" y="707" on="0"/>
        <pt x="443" y="723" on="1"/>
        <pt x="547" y="709" on="1"/>
      </contour>
      <contour>
        <pt x="512" y="541" on="1"/>
        <pt x="508" y="512" on="1"/>
        <pt x="502" y="470" on="0"/>
        <pt x="489" y="378" on="0"/>
        <pt x="481" y="329" on="1"/>
        <pt x="533" y="329" on="1"/>
        <pt x="588" y="329" on="0"/>
        <pt x="652" y="416" on="0"/>
        <pt x="652" y="502" on="1"/>
        <pt x="652" y="545" on="0"/>
        <pt x="608" y="585" on="0"/>
        <pt x="566" y="585" on="1"/>
        <pt x="518" y="585" on="1"/>
      </contour>
    </TTGlyph>
    <TTGlyph name="Racute" xMin="77" yMin="0" xMax="577" yMax="865">
      <contour>
        <pt x="513" y="834" on="1"/>
        <pt x="374" y="704" on="1"/>
        <pt x="318" y="713" on="1"/>
        <pt x="409" y="865" on="1"/>
      </contour>
      <contour>
        <pt x="368" y="650" on="1"/>
        <pt x="467" y="650" on="0"/>
        <pt x="577" y="562" on="0"/>
        <pt x="577" y="480" on="1"/>
        <pt x="577" y="404" on="0"/>
        <pt x="498" y="294" on="0"/>
        <pt x="435" y="264" on="1"/>
        <pt x="549" y="0" on="1"/>
        <pt x="390" y="0" on="1"/>
        <pt x="301" y="236" on="1"/>
        <pt x="248" y="236" on="1"/>
        <pt x="215" y="0" on="1"/>
        <pt x="77" y="0" on="1"/>
        <pt x="168" y="650" on="1"/>
      </contour>
      <contour>
        <pt x="257" y="302" on="1"/>
        <pt x="309" y="302" on="1"/>
        <pt x="371" y="302" on="0"/>
        <pt x="430" y="396" on="0"/>
        <pt x="430" y="492" on="1"/>
        <pt x="430" y="539" on="0"/>
        <pt x="388" y="585" on="0"/>
        <pt x="345" y="585" on="1"/>
        <pt x="297" y="585" on="1"/>
      </contour>
    </TTGlyph>
    <TTGlyph name="Rcaron" xMin="77" yMin="0" xMax="577" yMax="880">
      <contour>
        <pt x="239" y="845" on="1"/>
        <pt x="286" y="880" on="1"/>
        <pt x="381" y="787" on="1"/>
        <pt x="502" y="880" on="1"/>
        <pt x="539" y="841" on="1"/>
        <pt x="405" y="707" on="1"/>
        <pt x="335" y="707" on="1"/>
      </contour>
      <contour>
        <pt x="368" y="650" on="1"/>
        <pt x="467" y="650" on="0"/>
        <pt x="577" y="562" on="0"/>
        <pt x="577" y="480" on="1"/>
        <pt x="577" y="404" on="0"/>
        <pt x="498" y="294" on="0"/>
        <pt x="435" y="264" on="1"/>
        <pt x="549" y="0" on="1"/>
        <pt x="390" y="0" on="1"/>
        <pt x="301" y="236" on="1"/>
        <pt x="248" y="236" on="1"/>
        <pt x="215" y="0" on="1"/>
        <pt x="77" y="0" on="1"/>
        <pt x="168" y="650" on="1"/>
      </contour>
      <contour>
        <pt x="257" y="302" on="1"/>
        <pt x="309" y="302" on="1"/>
        <pt x="371" y="302" on="0"/>
        <pt x="430" y="396" on="0"/>
        <pt x="430" y="492" on="1"/>
        <pt x="430" y="539" on="0"/>
        <pt x="388" y="585" on="0"/>
        <pt x="345" y="585" on="1"/>
        <pt x="297" y="585" on="1"/>
      </contour>
    </TTGlyph>
    <TTGlyph name="Rcommaaccent" xMin="77" yMin="-339" xMax="577" yMax="650">
      <contour>
        <pt x="368" y="650" on="1"/>
        <pt x="467" y="650" on="0"/>
        <pt x="577" y="562" on="0"/>
        <pt x="577" y="480" on="1"/>
        <pt x="577" y="404" on="0"/>
        <pt x="498" y="294" on="0"/>
        <pt x="435" y="264" on="1"/>
        <pt x="549" y="0" on="1"/>
        <pt x="390" y="0" on="1"/>
        <pt x="301" y="236" on="1"/>
        <pt x="248" y="236" on="1"/>
        <pt x="215" y="0" on="1"/>
        <pt x="77" y="0" on="1"/>
        <pt x="168" y="650" on="1"/>
      </contour>
      <contour>
        <pt x="257" y="302" on="1"/>
        <pt x="309" y="302" on="1"/>
        <pt x="371" y="302" on="0"/>
        <pt x="430" y="396" on="0"/>
        <pt x="430" y="492" on="1"/>
        <pt x="430" y="539" on="0"/>
        <pt x="388" y="585" on="0"/>
        <pt x="345" y="585" on="1"/>
        <pt x="297" y="585" on="1"/>
      </contour>
      <contour>
        <pt x="263" y="-46" on="0"/>
        <pt x="289" y="-46" on="1"/>
        <pt x="314" y="-46" on="0"/>
        <pt x="330" y="-62" on="1"/>
        <pt x="350" y="-86" on="0"/>
        <pt x="350" y="-123" on="1"/>
        <pt x="350" y="-177" on="0"/>
        <pt x="274" y="-302" on="0"/>
        <pt x="219" y="-339" on="1"/>
        <pt x="194" y="-308" on="1"/>
        <pt x="234" y="-276" on="0"/>
        <pt x="277" y="-204" on="0"/>
        <pt x="278" y="-170" on="1"/>
        <pt x="271" y="-170" on="1"/>
        <pt x="247" y="-170" on="0"/>
        <pt x="231" y="-154" on="1"/>
        <pt x="218" y="-138" on="0"/>
        <pt x="218" y="-118" on="1"/>
        <pt x="218" y="-103" on="0"/>
        <pt x="231" y="-73" on="0"/>
        <pt x="244" y="-62" on="1"/>
      </contour>
    </TTGlyph>
    <TTGlyph name="S" xMin="44" yMin="-11" xMax="512" yMax="660">
      <contour>
        <pt x="485" y="549" on="0"/>
        <pt x="449" y="570" on="0"/>
        <pt x="392" y="590" on="0"/>
        <pt x="361" y="590" on="1"/>
        <pt x="318" y="590" on="0"/>
        <pt x="265" y="542" on="0"/>
        <pt x="265" y="499" on="1"/>
        <pt x="265" y="463" on="0"/>
        <pt x="312" y="414" on="0"/>
        <pt x="360" y="383" on="1"/>
        <pt x="400" y="356" on="0"/>
        <pt x="450" y="314" on="0"/>
        <pt x="485" y="250" on="0"/>
        <pt x="485" y="206" on="1"/>
        <pt x="485" y="138" on="0"/>
        <pt x="417" y="40" on="0"/>
        <pt x="304" y="-11" on="0"/>
        <pt x="238" y="-11" on="1"/>
        <pt x="175" y="-11" on="0"/>
        <pt x="89" y="29" on="0"/>
        <pt x="44" y="76" on="0"/>
        <pt x="44" y="80" on="1"/>
        <pt x="90" y="138" on="1"/>
        <pt x="90" y="135" on="0"/>
        <pt x="126" y="96" on="0"/>
        <pt x="189" y="63" on="0"/>
        <pt x="232" y="63" on="1"/>
        <pt x="286" y="63" on="0"/>
        <pt x="341" y="119" on="0"/>
        <pt x="341" y="162" on="1"/>
        <pt x="341" y="194" on="0"/>
        <pt x="297" y="238" on="0"/>
        <pt x="251" y="267" on="1"/>
        <pt x="210" y="293" on="0"/>
        <pt x="159" y="335" on="0"/>
        <pt x="122" y="401" on="0"/>
        <pt x="122" y="447" on="1"/>
        <pt x="122" y="512" on="0"/>
        <pt x="185" y="608" on="0"/>
        <pt x="294" y="660" on="0"/>
        <pt x="362" y="660" on="1"/>
        <pt x="402" y="660" on="0"/>
        <pt x="468" y="640" on="0"/>
        <pt x="512" y="615" on="0"/>
        <pt x="512" y="614" on="1"/>
        <pt x="490" y="546" on="1"/>
      </contour>
    </TTGlyph>
    <TTGlyph name="S.swsh" xMin="50" yMin="-110" xMax="550" yMax="660">
      <contour>
        <pt x="473" y="465" on="0"/>
        <pt x="473" y="509" on="1"/>
        <pt x="473" y="544" on="0"/>
        <pt x="422" y="590" on="0"/>
        <pt x="376" y="590" on="1"/>
        <pt x="328" y="590" on="0"/>
        <pt x="272" y="529" on="0"/>
        <pt x="272" y="475" on="1"/>
        <pt x="272" y="437" on="0"/>
        <pt x="321" y="380" on="0"/>
        <pt x="370" y="341" on="1"/>
        <pt x="413" y="307" on="0"/>
        <pt x="465" y="256" on="0"/>
        <pt x="502" y="183" on="0"/>
        <pt x="502" y="136" on="1"/>
        <pt x="502" y="57" on="0"/>
        <pt x="431" y="-54" on="0"/>
        <pt x="312" y="-110" on="0"/>
        <pt x="241" y="-110" on="1"/>
        <pt x="146" y="-110" on="0"/>
        <pt x="50" y="-29" on="0"/>
        <pt x="50" y="31" on="1"/>
        <pt x="50" y="68" on="0"/>
        <pt x="86" y="143" on="0"/>
        <pt x="117" y="172" on="1"/>
        <pt x="174" y="147" on="1"/>
        <pt x="151" y="128" on="0"/>
        <pt x="127" y="77" on="0"/>
        <pt x="127" y="52" on="1"/>
        <pt x="127" y="14" on="0"/>
        <pt x="181" y="-37" on="0"/>
        <pt x="232" y="-37" on="1"/>
        <pt x="292" y="-37" on="0"/>
        <pt x="357" y="34" on="0"/>
        <pt x="357" y="85" on="1"/>
        <pt x="357" y="119" on="0"/>
        <pt x="311" y="171" on="0"/>
        <pt x="262" y="211" on="1"/>
        <pt x="219" y="246" on="0"/>
        <pt x="167" y="297" on="0"/>
        <pt x="129" y="371" on="0"/>
        <pt x="129" y="417" on="1"/>
        <pt x="129" y="494" on="0"/>
        <pt x="192" y="603" on="0"/>
        <pt x="304" y="660" on="0"/>
        <pt x="377" y="660" on="1"/>
        <pt x="432" y="660" on="0"/>
        <pt x="510" y="622" on="0"/>
        <pt x="550" y="559" on="0"/>
        <pt x="550" y="522" on="1"/>
        <pt x="550" y="490" on="0"/>
        <pt x="521" y="427" on="0"/>
        <pt x="492" y="401" on="1"/>
        <pt x="436" y="429" on="1"/>
      </contour>
    </TTGlyph>
    <TTGlyph name="Sacute" xMin="44" yMin="-11" xMax="512" yMax="865">
      <contour>
        <pt x="510" y="834" on="1"/>
        <pt x="371" y="704" on="1"/>
        <pt x="315" y="713" on="1"/>
        <pt x="406" y="865" on="1"/>
      </contour>
      <contour>
        <pt x="485" y="549" on="0"/>
        <pt x="449" y="570" on="0"/>
        <pt x="392" y="590" on="0"/>
        <pt x="361" y="590" on="1"/>
        <pt x="318" y="590" on="0"/>
        <pt x="265" y="542" on="0"/>
        <pt x="265" y="499" on="1"/>
        <pt x="265" y="463" on="0"/>
        <pt x="312" y="414" on="0"/>
        <pt x="360" y="383" on="1"/>
        <pt x="400" y="356" on="0"/>
        <pt x="450" y="314" on="0"/>
        <pt x="485" y="250" on="0"/>
        <pt x="485" y="206" on="1"/>
        <pt x="485" y="138" on="0"/>
        <pt x="417" y="40" on="0"/>
        <pt x="304" y="-11" on="0"/>
        <pt x="238" y="-11" on="1"/>
        <pt x="175" y="-11" on="0"/>
        <pt x="89" y="29" on="0"/>
        <pt x="44" y="76" on="0"/>
        <pt x="44" y="80" on="1"/>
        <pt x="90" y="138" on="1"/>
        <pt x="90" y="135" on="0"/>
        <pt x="126" y="96" on="0"/>
        <pt x="189" y="63" on="0"/>
        <pt x="232" y="63" on="1"/>
        <pt x="286" y="63" on="0"/>
        <pt x="341" y="119" on="0"/>
        <pt x="341" y="162" on="1"/>
        <pt x="341" y="194" on="0"/>
        <pt x="297" y="238" on="0"/>
        <pt x="251" y="267" on="1"/>
        <pt x="210" y="293" on="0"/>
        <pt x="159" y="335" on="0"/>
        <pt x="122" y="401" on="0"/>
        <pt x="122" y="447" on="1"/>
        <pt x="122" y="512" on="0"/>
        <pt x="185" y="608" on="0"/>
        <pt x="294" y="660" on="0"/>
        <pt x="362" y="660" on="1"/>
        <pt x="402" y="660" on="0"/>
        <pt x="468" y="640" on="0"/>
        <pt x="512" y="615" on="0"/>
        <pt x="512" y="614" on="1"/>
        <pt x="490" y="546" on="1"/>
      </contour>
    </TTGlyph>
    <TTGlyph name="Scaron" xMin="44" yMin="-11" xMax="533" yMax="880">
      <contour>
        <pt x="233" y="845" on="1"/>
        <pt x="280" y="880" on="1"/>
        <pt x="375" y="787" on="1"/>
        <pt x="496" y="880" on="1"/>
        <pt x="533" y="841" on="1"/>
        <pt x="399" y="707" on="1"/>
        <pt x="329" y="707" on="1"/>
      </contour>
      <contour>
        <pt x="485" y="549" on="0"/>
        <pt x="449" y="570" on="0"/>
        <pt x="392" y="590" on="0"/>
        <pt x="361" y="590" on="1"/>
        <pt x="318" y="590" on="0"/>
        <pt x="265" y="542" on="0"/>
        <pt x="265" y="499" on="1"/>
        <pt x="265" y="463" on="0"/>
        <pt x="312" y="414" on="0"/>
        <pt x="360" y="383" on="1"/>
        <pt x="400" y="356" on="0"/>
        <pt x="450" y="314" on="0"/>
        <pt x="485" y="250" on="0"/>
        <pt x="485" y="206" on="1"/>
        <pt x="485" y="138" on="0"/>
        <pt x="417" y="40" on="0"/>
        <pt x="304" y="-11" on="0"/>
        <pt x="238" y="-11" on="1"/>
        <pt x="175" y="-11" on="0"/>
        <pt x="89" y="29" on="0"/>
        <pt x="44" y="76" on="0"/>
        <pt x="44" y="80" on="1"/>
        <pt x="90" y="138" on="1"/>
        <pt x="90" y="135" on="0"/>
        <pt x="126" y="96" on="0"/>
        <pt x="189" y="63" on="0"/>
        <pt x="232" y="63" on="1"/>
        <pt x="286" y="63" on="0"/>
        <pt x="341" y="119" on="0"/>
        <pt x="341" y="162" on="1"/>
        <pt x="341" y="194" on="0"/>
        <pt x="297" y="238" on="0"/>
        <pt x="251" y="267" on="1"/>
        <pt x="210" y="293" on="0"/>
        <pt x="159" y="335" on="0"/>
        <pt x="122" y="401" on="0"/>
        <pt x="122" y="447" on="1"/>
        <pt x="122" y="512" on="0"/>
        <pt x="185" y="608" on="0"/>
        <pt x="294" y="660" on="0"/>
        <pt x="362" y="660" on="1"/>
        <pt x="402" y="660" on="0"/>
        <pt x="468" y="640" on="0"/>
        <pt x="512" y="615" on="0"/>
        <pt x="512" y="614" on="1"/>
        <pt x="490" y="546" on="1"/>
      </contour>
    </TTGlyph>
    <TTGlyph name="Scedilla" xMin="44" yMin="-251" xMax="512" yMax="660">
      <contour>
        <pt x="485" y="549" on="0"/>
        <pt x="449" y="570" on="0"/>
        <pt x="392" y="590" on="0"/>
        <pt x="361" y="590" on="1"/>
        <pt x="318" y="590" on="0"/>
        <pt x="265" y="542" on="0"/>
        <pt x="265" y="499" on="1"/>
        <pt x="265" y="463" on="0"/>
        <pt x="312" y="414" on="0"/>
        <pt x="360" y="383" on="1"/>
        <pt x="400" y="356" on="0"/>
        <pt x="450" y="314" on="0"/>
        <pt x="485" y="250" on="0"/>
        <pt x="485" y="206" on="1"/>
        <pt x="485" y="141" on="0"/>
        <pt x="424" y="46" on="0"/>
        <pt x="320" y="-6" on="0"/>
        <pt x="258" y="-10" on="1"/>
        <pt x="248" y="-58" on="1"/>
        <pt x="248" y="-59" on="0"/>
        <pt x="289" y="-75" on="0"/>
        <pt x="324" y="-109" on="0"/>
        <pt x="324" y="-139" on="1"/>
        <pt x="324" y="-188" on="0"/>
        <pt x="257" y="-251" on="0"/>
        <pt x="194" y="-251" on="1"/>
        <pt x="161" y="-251" on="0"/>
        <pt x="122" y="-231" on="0"/>
        <pt x="105" y="-208" on="0"/>
        <pt x="105" y="-205" on="1"/>
        <pt x="135" y="-176" on="1"/>
        <pt x="136" y="-178" on="0"/>
        <pt x="147" y="-192" on="0"/>
        <pt x="169" y="-205" on="0"/>
        <pt x="185" y="-205" on="1"/>
        <pt x="245" y="-205" on="0"/>
        <pt x="245" y="-142" on="1"/>
        <pt x="245" y="-122" on="0"/>
        <pt x="218" y="-105" on="0"/>
        <pt x="191" y="-99" on="0"/>
        <pt x="191" y="-98" on="1"/>
        <pt x="213" y="-10" on="1"/>
        <pt x="158" y="-6" on="0"/>
        <pt x="83" y="34" on="0"/>
        <pt x="44" y="77" on="0"/>
        <pt x="44" y="80" on="1"/>
        <pt x="90" y="138" on="1"/>
        <pt x="90" y="135" on="0"/>
        <pt x="126" y="96" on="0"/>
        <pt x="189" y="63" on="0"/>
        <pt x="232" y="63" on="1"/>
        <pt x="286" y="63" on="0"/>
        <pt x="341" y="119" on="0"/>
        <pt x="341" y="162" on="1"/>
        <pt x="341" y="194" on="0"/>
        <pt x="297" y="238" on="0"/>
        <pt x="251" y="267" on="1"/>
        <pt x="210" y="293" on="0"/>
        <pt x="159" y="335" on="0"/>
        <pt x="122" y="401" on="0"/>
        <pt x="122" y="447" on="1"/>
        <pt x="122" y="512" on="0"/>
        <pt x="185" y="608" on="0"/>
        <pt x="294" y="660" on="0"/>
        <pt x="362" y="660" on="1"/>
        <pt x="402" y="660" on="0"/>
        <pt x="468" y="640" on="0"/>
        <pt x="512" y="615" on="0"/>
        <pt x="512" y="614" on="1"/>
        <pt x="490" y="546" on="1"/>
      </contour>
    </TTGlyph>
    <TTGlyph name="T" xMin="95" yMin="0" xMax="594" yMax="650">
      <contour>
        <pt x="583" y="578" on="1"/>
        <pt x="409" y="578" on="1"/>
        <pt x="328" y="0" on="1"/>
        <pt x="189" y="0" on="1"/>
        <pt x="270" y="578" on="1"/>
        <pt x="95" y="578" on="1"/>
        <pt x="106" y="650" on="1"/>
        <pt x="594" y="650" on="1"/>
      </contour>
    </TTGlyph>
    <TTGlyph name="T.swsh" xMin="116" yMin="0" xMax="705" yMax="709">
      <contour>
        <pt x="326" y="482" on="1"/>
        <pt x="336" y="557" on="0"/>
        <pt x="381" y="595" on="1"/>
        <pt x="312" y="614" on="0"/>
        <pt x="271" y="614" on="1"/>
        <pt x="232" y="614" on="0"/>
        <pt x="186" y="577" on="0"/>
        <pt x="181" y="532" on="1"/>
        <pt x="116" y="535" on="1"/>
        <pt x="125" y="614" on="0"/>
        <pt x="197" y="678" on="0"/>
        <pt x="255" y="678" on="1"/>
        <pt x="286" y="678" on="0"/>
        <pt x="359" y="664" on="0"/>
        <pt x="410" y="650" on="1"/>
        <pt x="458" y="638" on="0"/>
        <pt x="521" y="625" on="0"/>
        <pt x="547" y="625" on="1"/>
        <pt x="587" y="625" on="0"/>
        <pt x="635" y="663" on="0"/>
        <pt x="641" y="709" on="1"/>
        <pt x="705" y="699" on="1"/>
        <pt x="697" y="622" on="0"/>
        <pt x="626" y="558" on="0"/>
        <pt x="568" y="558" on="1"/>
        <pt x="532" y="558" on="0"/>
        <pt x="477" y="570" on="1"/>
        <pt x="396" y="0" on="1"/>
        <pt x="258" y="0" on="1"/>
      </contour>
    </TTGlyph>
    <TTGlyph name="Tcaron" xMin="95" yMin="0" xMax="594" yMax="880">
      <contour>
        <pt x="225" y="845" on="1"/>
        <pt x="272" y="880" on="1"/>
        <pt x="367" y="787" on="1"/>
        <pt x="488" y="880" on="1"/>
        <pt x="525" y="841" on="1"/>
        <pt x="391" y="707" on="1"/>
        <pt x="321" y="707" on="1"/>
      </contour>
      <contour>
        <pt x="583" y="578" on="1"/>
        <pt x="409" y="578" on="1"/>
        <pt x="328" y="0" on="1"/>
        <pt x="189" y="0" on="1"/>
        <pt x="270" y="578" on="1"/>
        <pt x="95" y="578" on="1"/>
        <pt x="106" y="650" on="1"/>
        <pt x="594" y="650" on="1"/>
      </contour>
    </TTGlyph>
    <TTGlyph name="Thorn" xMin="98" yMin="0" xMax="586" yMax="650">
      <contour>
        <pt x="380" y="560" on="1"/>
        <pt x="479" y="560" on="0"/>
        <pt x="586" y="470" on="0"/>
        <pt x="586" y="376" on="1"/>
        <pt x="586" y="281" on="0"/>
        <pt x="504" y="154" on="0"/>
        <pt x="381" y="93" on="0"/>
        <pt x="318" y="93" on="1"/>
        <pt x="249" y="93" on="1"/>
        <pt x="236" y="0" on="1"/>
        <pt x="98" y="0" on="1"/>
        <pt x="189" y="650" on="1"/>
        <pt x="327" y="650" on="1"/>
        <pt x="314" y="560" on="1"/>
      </contour>
      <contour>
        <pt x="258" y="160" on="1"/>
        <pt x="317" y="160" on="1"/>
        <pt x="375" y="160" on="0"/>
        <pt x="446" y="265" on="0"/>
        <pt x="446" y="387" on="1"/>
        <pt x="446" y="444" on="0"/>
        <pt x="405" y="491" on="0"/>
        <pt x="364" y="491" on="1"/>
        <pt x="305" y="491" on="1"/>
      </contour>
    </TTGlyph>
    <TTGlyph name="U" xMin="97" yMin="-11" xMax="636" yMax="650">
      <contour>
        <pt x="201" y="-11" on="0"/>
        <pt x="97" y="90" on="0"/>
        <pt x="97" y="183" on="1"/>
        <pt x="97" y="211" on="0"/>
        <pt x="101" y="236" on="1"/>
        <pt x="159" y="650" on="1"/>
        <pt x="298" y="650" on="1"/>
        <pt x="244" y="267" on="1"/>
        <pt x="238" y="225" on="0"/>
        <pt x="238" y="192" on="1"/>
        <pt x="238" y="125" on="0"/>
        <pt x="287" y="65" on="0"/>
        <pt x="338" y="65" on="1"/>
        <pt x="405" y="65" on="0"/>
        <pt x="483" y="163" on="0"/>
        <pt x="497" y="267" on="1"/>
        <pt x="551" y="650" on="1"/>
        <pt x="636" y="650" on="1"/>
        <pt x="578" y="236" on="1"/>
        <pt x="561" y="118" on="0"/>
        <pt x="431" y="-11" on="0"/>
        <pt x="305" y="-11" on="1"/>
      </contour>
    </TTGlyph>
    <TTGlyph name="U.swsh" xMin="94" yMin="-11" xMax="885" yMax="650">
      <contour>
        <pt x="449" y="-11" on="0"/>
        <pt x="345" y="87" on="0"/>
        <pt x="345" y="181" on="1"/>
        <pt x="345" y="211" on="0"/>
        <pt x="349" y="236" on="1"/>
        <pt x="387" y="500" on="1"/>
        <pt x="393" y="548" on="0"/>
        <pt x="417" y="586" on="1"/>
        <pt x="416" y="586" on="1"/>
        <pt x="342" y="586" on="0"/>
        <pt x="232" y="526" on="0"/>
        <pt x="174" y="426" on="0"/>
        <pt x="174" y="367" on="1"/>
        <pt x="174" y="336" on="0"/>
        <pt x="181" y="309" on="1"/>
        <pt x="104" y="289" on="1"/>
        <pt x="94" y="331" on="0"/>
        <pt x="94" y="362" on="1"/>
        <pt x="94" y="440" on="0"/>
        <pt x="178" y="572" on="0"/>
        <pt x="330" y="650" on="0"/>
        <pt x="426" y="650" on="1"/>
        <pt x="546" y="650" on="1"/>
        <pt x="493" y="267" on="1"/>
        <pt x="487" y="224" on="0"/>
        <pt x="487" y="190" on="1"/>
        <pt x="487" y="124" on="0"/>
        <pt x="536" y="65" on="0"/>
        <pt x="586" y="65" on="1"/>
        <pt x="654" y="65" on="0"/>
        <pt x="732" y="164" on="0"/>
        <pt x="746" y="267" on="1"/>
        <pt x="800" y="650" on="1"/>
        <pt x="885" y="650" on="1"/>
        <pt x="827" y="236" on="1"/>
        <pt x="792" y="-11" on="0"/>
        <pt x="553" y="-11" on="1"/>
      </contour>
    </TTGlyph>
    <TTGlyph name="Uacute" xMin="97" yMin="-11" xMax="636" yMax="865">
      <contour>
        <pt x="556" y="834" on="1"/>
        <pt x="417" y="704" on="1"/>
        <pt x="361" y="713" on="1"/>
        <pt x="452" y="865" on="1"/>
      </contour>
      <contour>
        <pt x="201" y="-11" on="0"/>
        <pt x="97" y="90" on="0"/>
        <pt x="97" y="183" on="1"/>
        <pt x="97" y="211" on="0"/>
        <pt x="101" y="236" on="1"/>
        <pt x="159" y="650" on="1"/>
        <pt x="298" y="650" on="1"/>
        <pt x="244" y="267" on="1"/>
        <pt x="238" y="225" on="0"/>
        <pt x="238" y="192" on="1"/>
        <pt x="238" y="125" on="0"/>
        <pt x="287" y="65" on="0"/>
        <pt x="338" y="65" on="1"/>
        <pt x="405" y="65" on="0"/>
        <pt x="483" y="163" on="0"/>
        <pt x="497" y="267" on="1"/>
        <pt x="551" y="650" on="1"/>
        <pt x="636" y="650" on="1"/>
        <pt x="578" y="236" on="1"/>
        <pt x="561" y="118" on="0"/>
        <pt x="431" y="-11" on="0"/>
        <pt x="305" y="-11" on="1"/>
      </contour>
    </TTGlyph>
    <TTGlyph name="Ucircumflex" xMin="97" yMin="-11" xMax="636" yMax="888">
      <contour>
        <pt x="560" y="766" on="1"/>
        <pt x="526" y="721" on="1"/>
        <pt x="434" y="806" on="1"/>
        <pt x="317" y="721" on="1"/>
        <pt x="295" y="766" on="1"/>
        <pt x="410" y="888" on="1"/>
        <pt x="480" y="888" on="1"/>
      </contour>
      <contour>
        <pt x="201" y="-11" on="0"/>
        <pt x="97" y="90" on="0"/>
        <pt x="97" y="183" on="1"/>
        <pt x="97" y="211" on="0"/>
        <pt x="101" y="236" on="1"/>
        <pt x="159" y="650" on="1"/>
        <pt x="298" y="650" on="1"/>
        <pt x="244" y="267" on="1"/>
        <pt x="238" y="225" on="0"/>
        <pt x="238" y="192" on="1"/>
        <pt x="238" y="125" on="0"/>
        <pt x="287" y="65" on="0"/>
        <pt x="338" y="65" on="1"/>
        <pt x="405" y="65" on="0"/>
        <pt x="483" y="163" on="0"/>
        <pt x="497" y="267" on="1"/>
        <pt x="551" y="650" on="1"/>
        <pt x="636" y="650" on="1"/>
        <pt x="578" y="236" on="1"/>
        <pt x="561" y="118" on="0"/>
        <pt x="431" y="-11" on="0"/>
        <pt x="305" y="-11" on="1"/>
      </contour>
    </TTGlyph>
    <TTGlyph name="Udieresis" xMin="97" yMin="-11" xMax="636" yMax="856">
      <contour>
        <pt x="320" y="856" on="0"/>
        <pt x="347" y="856" on="1"/>
        <pt x="373" y="856" on="0"/>
        <pt x="390" y="839" on="1"/>
        <pt x="404" y="820" on="0"/>
        <pt x="404" y="798" on="1"/>
        <pt x="404" y="761" on="0"/>
        <pt x="375" y="735" on="1"/>
        <pt x="353" y="717" on="0"/>
        <pt x="327" y="717" on="1"/>
        <pt x="300" y="717" on="0"/>
        <pt x="284" y="735" on="1"/>
        <pt x="270" y="752" on="0"/>
        <pt x="270" y="776" on="1"/>
        <pt x="270" y="793" on="0"/>
        <pt x="285" y="826" on="0"/>
        <pt x="298" y="839" on="1"/>
      </contour>
      <contour>
        <pt x="506" y="856" on="0"/>
        <pt x="532" y="856" on="1"/>
        <pt x="557" y="856" on="0"/>
        <pt x="576" y="839" on="1"/>
        <pt x="590" y="820" on="0"/>
        <pt x="590" y="798" on="1"/>
        <pt x="590" y="761" on="0"/>
        <pt x="561" y="735" on="1"/>
        <pt x="539" y="717" on="0"/>
        <pt x="512" y="717" on="1"/>
        <pt x="485" y="717" on="0"/>
        <pt x="470" y="735" on="1"/>
        <pt x="456" y="752" on="0"/>
        <pt x="456" y="776" on="1"/>
        <pt x="456" y="793" on="0"/>
        <pt x="471" y="826" on="0"/>
        <pt x="484" y="839" on="1"/>
      </contour>
      <contour>
        <pt x="201" y="-11" on="0"/>
        <pt x="97" y="90" on="0"/>
        <pt x="97" y="183" on="1"/>
        <pt x="97" y="211" on="0"/>
        <pt x="101" y="236" on="1"/>
        <pt x="159" y="650" on="1"/>
        <pt x="298" y="650" on="1"/>
        <pt x="244" y="267" on="1"/>
        <pt x="238" y="225" on="0"/>
        <pt x="238" y="192" on="1"/>
        <pt x="238" y="125" on="0"/>
        <pt x="287" y="65" on="0"/>
        <pt x="338" y="65" on="1"/>
        <pt x="405" y="65" on="0"/>
        <pt x="483" y="163" on="0"/>
        <pt x="497" y="267" on="1"/>
        <pt x="551" y="650" on="1"/>
        <pt x="636" y="650" on="1"/>
        <pt x="578" y="236" on="1"/>
        <pt x="561" y="118" on="0"/>
        <pt x="431" y="-11" on="0"/>
        <pt x="305" y="-11" on="1"/>
      </contour>
    </TTGlyph>
    <TTGlyph name="Ugrave" xMin="97" yMin="-11" xMax="636" yMax="873">
      <contour>
        <pt x="427" y="873" on="1"/>
        <pt x="491" y="726" on="1"/>
        <pt x="427" y="709" on="1"/>
        <pt x="316" y="838" on="1"/>
      </contour>
      <contour>
        <pt x="201" y="-11" on="0"/>
        <pt x="97" y="90" on="0"/>
        <pt x="97" y="183" on="1"/>
        <pt x="97" y="211" on="0"/>
        <pt x="101" y="236" on="1"/>
        <pt x="159" y="650" on="1"/>
        <pt x="298" y="650" on="1"/>
        <pt x="244" y="267" on="1"/>
        <pt x="238" y="225" on="0"/>
        <pt x="238" y="192" on="1"/>
        <pt x="238" y="125" on="0"/>
        <pt x="287" y="65" on="0"/>
        <pt x="338" y="65" on="1"/>
        <pt x="405" y="65" on="0"/>
        <pt x="483" y="163" on="0"/>
        <pt x="497" y="267" on="1"/>
        <pt x="551" y="650" on="1"/>
        <pt x="636" y="650" on="1"/>
        <pt x="578" y="236" on="1"/>
        <pt x="561" y="118" on="0"/>
        <pt x="431" y="-11" on="0"/>
        <pt x="305" y="-11" on="1"/>
      </contour>
    </TTGlyph>
    <TTGlyph name="Uhorn" xMin="97" yMin="-11" xMax="752" yMax="739">
      <contour>
        <pt x="742" y="688" on="0"/>
        <pt x="677" y="614" on="0"/>
        <pt x="629" y="598" on="1"/>
        <pt x="578" y="236" on="1"/>
        <pt x="561" y="118" on="0"/>
        <pt x="431" y="-11" on="0"/>
        <pt x="305" y="-11" on="1"/>
        <pt x="201" y="-11" on="0"/>
        <pt x="97" y="90" on="0"/>
        <pt x="97" y="183" on="1"/>
        <pt x="97" y="211" on="0"/>
        <pt x="101" y="236" on="1"/>
        <pt x="159" y="650" on="1"/>
        <pt x="298" y="650" on="1"/>
        <pt x="244" y="267" on="1"/>
        <pt x="238" y="225" on="0"/>
        <pt x="238" y="192" on="1"/>
        <pt x="238" y="125" on="0"/>
        <pt x="287" y="65" on="0"/>
        <pt x="338" y="65" on="1"/>
        <pt x="405" y="65" on="0"/>
        <pt x="483" y="163" on="0"/>
        <pt x="497" y="267" on="1"/>
        <pt x="551" y="650" on="1"/>
        <pt x="576" y="650" on="1"/>
        <pt x="610" y="650" on="0"/>
        <pt x="655" y="692" on="0"/>
        <pt x="665" y="739" on="1"/>
        <pt x="752" y="739" on="1"/>
      </contour>
    </TTGlyph>
    <TTGlyph name="Uhungarumlaut" xMin="97" yMin="-11" xMax="636" yMax="873">
      <contour>
        <pt x="365" y="873" on="1"/>
        <pt x="454" y="847" on="1"/>
        <pt x="338" y="697" on="1"/>
        <pt x="291" y="720" on="1"/>
      </contour>
      <contour>
        <pt x="521" y="873" on="1"/>
        <pt x="610" y="847" on="1"/>
        <pt x="494" y="697" on="1"/>
        <pt x="446" y="720" on="1"/>
      </contour>
      <contour>
        <pt x="201" y="-11" on="0"/>
        <pt x="97" y="90" on="0"/>
        <pt x="97" y="183" on="1"/>
        <pt x="97" y="211" on="0"/>
        <pt x="101" y="236" on="1"/>
        <pt x="159" y="650" on="1"/>
        <pt x="298" y="650" on="1"/>
        <pt x="244" y="267" on="1"/>
        <pt x="238" y="225" on="0"/>
        <pt x="238" y="192" on="1"/>
        <pt x="238" y="125" on="0"/>
        <pt x="287" y="65" on="0"/>
        <pt x="338" y="65" on="1"/>
        <pt x="405" y="65" on="0"/>
        <pt x="483" y="163" on="0"/>
        <pt x="497" y="267" on="1"/>
        <pt x="551" y="650" on="1"/>
        <pt x="636" y="650" on="1"/>
        <pt x="578" y="236" on="1"/>
        <pt x="561" y="118" on="0"/>
        <pt x="431" y="-11" on="0"/>
        <pt x="305" y="-11" on="1"/>
      </contour>
    </TTGlyph>
    <TTGlyph name="Umacron" xMin="97" yMin="-11" xMax="636" yMax="817">
      <contour>
        <pt x="531" y="759" on="1"/>
        <pt x="316" y="759" on="1"/>
        <pt x="324" y="817" on="1"/>
        <pt x="538" y="817" on="1"/>
      </contour>
      <contour>
        <pt x="201" y="-11" on="0"/>
        <pt x="97" y="90" on="0"/>
        <pt x="97" y="183" on="1"/>
        <pt x="97" y="211" on="0"/>
        <pt x="101" y="236" on="1"/>
        <pt x="159" y="650" on="1"/>
        <pt x="298" y="650" on="1"/>
        <pt x="244" y="267" on="1"/>
        <pt x="238" y="225" on="0"/>
        <pt x="238" y="192" on="1"/>
        <pt x="238" y="125" on="0"/>
        <pt x="287" y="65" on="0"/>
        <pt x="338" y="65" on="1"/>
        <pt x="405" y="65" on="0"/>
        <pt x="483" y="163" on="0"/>
        <pt x="497" y="267" on="1"/>
        <pt x="551" y="650" on="1"/>
        <pt x="636" y="650" on="1"/>
        <pt x="578" y="236" on="1"/>
        <pt x="561" y="118" on="0"/>
        <pt x="431" y="-11" on="0"/>
        <pt x="305" y="-11" on="1"/>
      </contour>
    </TTGlyph>
    <TTGlyph name="Uogonek" xMin="97" yMin="-250" xMax="636" yMax="650">
      <contour>
        <pt x="201" y="-11" on="0"/>
        <pt x="97" y="90" on="0"/>
        <pt x="97" y="183" on="1"/>
        <pt x="97" y="211" on="0"/>
        <pt x="101" y="236" on="1"/>
        <pt x="159" y="650" on="1"/>
        <pt x="298" y="650" on="1"/>
        <pt x="244" y="267" on="1"/>
        <pt x="238" y="225" on="0"/>
        <pt x="238" y="192" on="1"/>
        <pt x="238" y="125" on="0"/>
        <pt x="287" y="65" on="0"/>
        <pt x="338" y="65" on="1"/>
        <pt x="405" y="65" on="0"/>
        <pt x="483" y="163" on="0"/>
        <pt x="497" y="267" on="1"/>
        <pt x="551" y="650" on="1"/>
        <pt x="636" y="650" on="1"/>
        <pt x="578" y="236" on="1"/>
        <pt x="550" y="36" on="0"/>
        <pt x="391" y="-1" on="1"/>
        <pt x="358" y="-19" on="0"/>
        <pt x="305" y="-90" on="0"/>
        <pt x="305" y="-148" on="1"/>
        <pt x="305" y="-178" on="0"/>
        <pt x="340" y="-201" on="0"/>
        <pt x="374" y="-201" on="1"/>
        <pt x="367" y="-250" on="1"/>
        <pt x="297" y="-250" on="0"/>
        <pt x="217" y="-208" on="0"/>
        <pt x="217" y="-152" on="1"/>
        <pt x="217" y="-76" on="0"/>
        <pt x="308" y="-11" on="1"/>
        <pt x="305" y="-11" on="1"/>
      </contour>
    </TTGlyph>
    <TTGlyph name="Uring" xMin="97" yMin="-11" xMax="636" yMax="898">
      <contour>
        <pt x="530" y="751" on="0"/>
        <pt x="463" y="683" on="0"/>
        <pt x="411" y="683" on="1"/>
        <pt x="368" y="683" on="0"/>
        <pt x="318" y="731" on="0"/>
        <pt x="318" y="774" on="1"/>
        <pt x="318" y="831" on="0"/>
        <pt x="385" y="898" on="0"/>
        <pt x="437" y="898" on="1"/>
        <pt x="478" y="898" on="0"/>
        <pt x="530" y="849" on="0"/>
        <pt x="530" y="807" on="1"/>
      </contour>
      <contour>
        <pt x="485" y="829" on="0"/>
        <pt x="455" y="856" on="0"/>
        <pt x="432" y="856" on="1"/>
        <pt x="402" y="856" on="0"/>
        <pt x="364" y="817" on="0"/>
        <pt x="364" y="780" on="1"/>
        <pt x="364" y="754" on="0"/>
        <pt x="393" y="726" on="0"/>
        <pt x="417" y="726" on="1"/>
        <pt x="448" y="726" on="0"/>
        <pt x="485" y="766" on="0"/>
        <pt x="485" y="803" on="1"/>
      </contour>
      <contour>
        <pt x="201" y="-11" on="0"/>
        <pt x="97" y="90" on="0"/>
        <pt x="97" y="183" on="1"/>
        <pt x="97" y="211" on="0"/>
        <pt x="101" y="236" on="1"/>
        <pt x="159" y="650" on="1"/>
        <pt x="298" y="650" on="1"/>
        <pt x="244" y="267" on="1"/>
        <pt x="238" y="225" on="0"/>
        <pt x="238" y="192" on="1"/>
        <pt x="238" y="125" on="0"/>
        <pt x="287" y="65" on="0"/>
        <pt x="338" y="65" on="1"/>
        <pt x="405" y="65" on="0"/>
        <pt x="483" y="163" on="0"/>
        <pt x="497" y="267" on="1"/>
        <pt x="551" y="650" on="1"/>
        <pt x="636" y="650" on="1"/>
        <pt x="578" y="236" on="1"/>
        <pt x="561" y="118" on="0"/>
        <pt x="431" y="-11" on="0"/>
        <pt x="305" y="-11" on="1"/>
      </contour>
    </TTGlyph>
    <TTGlyph name="Utilde" xMin="97" yMin="-11" xMax="636" yMax="870">
      <component glyphName="U" x="0" y="0" flags="0x0"/>
      <component glyphName="tildecomb" x="567" y="150" flags="0x4"/>
    </TTGlyph>
    <TTGlyph name="V" xMin="100" yMin="0" xMax="657" yMax="650">
      <contour>
        <pt x="204" y="0" on="1"/>
        <pt x="100" y="650" on="1"/>
        <pt x="246" y="650" on="1"/>
        <pt x="323" y="101" on="1"/>
        <pt x="326" y="101" on="1"/>
        <pt x="570" y="650" on="1"/>
        <pt x="657" y="650" on="1"/>
        <pt x="357" y="0" on="1"/>
      </contour>
    </TTGlyph>
    <TTGlyph name="V.swsh" xMin="93" yMin="0" xMax="955" yMax="665">
      <contour>
        <pt x="621" y="101" on="1"/>
        <pt x="623" y="101" on="1"/>
        <pt x="868" y="650" on="1"/>
        <pt x="955" y="650" on="1"/>
        <pt x="654" y="0" on="1"/>
        <pt x="501" y="0" on="1"/>
        <pt x="407" y="583" on="1"/>
        <pt x="335" y="575" on="0"/>
        <pt x="228" y="512" on="0"/>
        <pt x="172" y="417" on="0"/>
        <pt x="172" y="362" on="1"/>
        <pt x="172" y="334" on="0"/>
        <pt x="179" y="309" on="1"/>
        <pt x="102" y="289" on="1"/>
        <pt x="93" y="322" on="0"/>
        <pt x="93" y="355" on="1"/>
        <pt x="93" y="433" on="0"/>
        <pt x="184" y="568" on="0"/>
        <pt x="340" y="649" on="0"/>
        <pt x="435" y="650" on="1"/>
        <pt x="462" y="650" on="0"/>
        <pt x="526" y="658" on="0"/>
        <pt x="545" y="665" on="1"/>
        <pt x="547" y="620" on="1"/>
      </contour>
    </TTGlyph>
    <TTGlyph name="W" xMin="100" yMin="0" xMax="954" yMax="650">
      <contour>
        <pt x="954" y="650" on="1"/>
        <pt x="693" y="0" on="1"/>
        <pt x="575" y="0" on="1"/>
        <pt x="506" y="480" on="1"/>
        <pt x="503" y="480" on="1"/>
        <pt x="302" y="0" on="1"/>
        <pt x="182" y="0" on="1"/>
        <pt x="100" y="650" on="1"/>
        <pt x="247" y="650" on="1"/>
        <pt x="298" y="158" on="1"/>
        <pt x="300" y="158" on="1"/>
        <pt x="502" y="650" on="1"/>
        <pt x="613" y="650" on="1"/>
        <pt x="682" y="161" on="1"/>
        <pt x="684" y="161" on="1"/>
        <pt x="866" y="650" on="1"/>
      </contour>
    </TTGlyph>
    <TTGlyph name="W.swsh" xMin="93" yMin="0" xMax="1251" yMax="665">
      <contour>
        <pt x="990" y="0" on="1"/>
        <pt x="872" y="0" on="1"/>
        <pt x="803" y="480" on="1"/>
        <pt x="800" y="480" on="1"/>
        <pt x="599" y="0" on="1"/>
        <pt x="479" y="0" on="1"/>
        <pt x="405" y="583" on="1"/>
        <pt x="334" y="574" on="0"/>
        <pt x="228" y="511" on="0"/>
        <pt x="172" y="416" on="0"/>
        <pt x="172" y="362" on="1"/>
        <pt x="172" y="334" on="0"/>
        <pt x="179" y="309" on="1"/>
        <pt x="102" y="289" on="1"/>
        <pt x="93" y="322" on="0"/>
        <pt x="93" y="355" on="1"/>
        <pt x="93" y="433" on="0"/>
        <pt x="184" y="568" on="0"/>
        <pt x="340" y="649" on="0"/>
        <pt x="435" y="650" on="1"/>
        <pt x="462" y="650" on="0"/>
        <pt x="526" y="658" on="0"/>
        <pt x="546" y="665" on="1"/>
        <pt x="546" y="630" on="1"/>
        <pt x="595" y="158" on="1"/>
        <pt x="597" y="158" on="1"/>
        <pt x="799" y="650" on="1"/>
        <pt x="910" y="650" on="1"/>
        <pt x="979" y="161" on="1"/>
        <pt x="981" y="161" on="1"/>
        <pt x="1164" y="650" on="1"/>
        <pt x="1251" y="650" on="1"/>
      </contour>
    </TTGlyph>
    <TTGlyph name="X" xMin="8" yMin="0" xMax="641" yMax="650">
      <contour>
        <pt x="254" y="316" on="1"/>
        <pt x="108" y="650" on="1"/>
        <pt x="281" y="650" on="1"/>
        <pt x="368" y="417" on="1"/>
        <pt x="371" y="417" on="1"/>
        <pt x="543" y="650" on="1"/>
        <pt x="641" y="650" on="1"/>
        <pt x="410" y="350" on="1"/>
        <pt x="573" y="0" on="1"/>
        <pt x="401" y="0" on="1"/>
        <pt x="296" y="248" on="1"/>
        <pt x="294" y="248" on="1"/>
        <pt x="112" y="0" on="1"/>
        <pt x="8" y="0" on="1"/>
      </contour>
    </TTGlyph>
    <TTGlyph name="X.swsh" xMin="93" yMin="-109" xMax="968" yMax="665">
      <contour>
        <pt x="630" y="427" on="1"/>
        <pt x="632" y="427" on="1"/>
        <pt x="794" y="650" on="1"/>
        <pt x="892" y="650" on="1"/>
        <pt x="666" y="357" on="1"/>
        <pt x="785" y="115" on="1"/>
        <pt x="823" y="34" on="0"/>
        <pt x="884" y="-43" on="0"/>
        <pt x="918" y="-43" on="1"/>
        <pt x="932" y="-43" on="0"/>
        <pt x="961" y="-31" on="0"/>
        <pt x="961" y="-30" on="1"/>
        <pt x="968" y="-79" on="1"/>
        <pt x="965" y="-81" on="0"/>
        <pt x="940" y="-96" on="0"/>
        <pt x="894" y="-109" on="0"/>
        <pt x="864" y="-109" on="1"/>
        <pt x="789" y="-109" on="0"/>
        <pt x="681" y="-40" on="0"/>
        <pt x="647" y="41" on="1"/>
        <pt x="552" y="254" on="1"/>
        <pt x="551" y="254" on="1"/>
        <pt x="363" y="0" on="1"/>
        <pt x="259" y="0" on="1"/>
        <pt x="514" y="325" on="1"/>
        <pt x="391" y="581" on="1"/>
        <pt x="324" y="570" on="0"/>
        <pt x="225" y="507" on="0"/>
        <pt x="172" y="415" on="0"/>
        <pt x="172" y="362" on="1"/>
        <pt x="172" y="334" on="0"/>
        <pt x="179" y="309" on="1"/>
        <pt x="102" y="289" on="1"/>
        <pt x="93" y="322" on="0"/>
        <pt x="93" y="355" on="1"/>
        <pt x="93" y="433" on="0"/>
        <pt x="184" y="568" on="0"/>
        <pt x="340" y="649" on="0"/>
        <pt x="435" y="650" on="1"/>
        <pt x="461" y="650" on="0"/>
        <pt x="519" y="658" on="0"/>
        <pt x="539" y="665" on="1"/>
        <pt x="545" y="621" on="1"/>
      </contour>
    </TTGlyph>
    <TTGlyph name="Y" xMin="84" yMin="0" xMax="620" yMax="650">
      <contour>
        <pt x="342" y="355" on="1"/>
        <pt x="524" y="650" on="1"/>
        <pt x="620" y="650" on="1"/>
        <pt x="370" y="267" on="1"/>
        <pt x="334" y="0" on="1"/>
        <pt x="195" y="0" on="1"/>
        <pt x="230" y="251" on="1"/>
        <pt x="84" y="650" on="1"/>
        <pt x="239" y="650" on="1"/>
        <pt x="341" y="355" on="1"/>
      </contour>
    </TTGlyph>
    <TTGlyph name="Y.swsh" xMin="93" yMin="0" xMax="917" yMax="665">
      <contour>
        <pt x="637" y="355" on="1"/>
        <pt x="638" y="355" on="1"/>
        <pt x="821" y="650" on="1"/>
        <pt x="917" y="650" on="1"/>
        <pt x="666" y="265" on="1"/>
        <pt x="629" y="0" on="1"/>
        <pt x="491" y="0" on="1"/>
        <pt x="526" y="251" on="1"/>
        <pt x="403" y="583" on="1"/>
        <pt x="332" y="574" on="0"/>
        <pt x="228" y="510" on="0"/>
        <pt x="172" y="416" on="0"/>
        <pt x="172" y="362" on="1"/>
        <pt x="172" y="334" on="0"/>
        <pt x="179" y="309" on="1"/>
        <pt x="102" y="289" on="1"/>
        <pt x="93" y="322" on="0"/>
        <pt x="93" y="355" on="1"/>
        <pt x="93" y="433" on="0"/>
        <pt x="184" y="568" on="0"/>
        <pt x="340" y="649" on="0"/>
        <pt x="435" y="650" on="1"/>
        <pt x="461" y="650" on="0"/>
        <pt x="519" y="658" on="0"/>
        <pt x="539" y="665" on="1"/>
        <pt x="546" y="618" on="1"/>
      </contour>
    </TTGlyph>
    <TTGlyph name="Yacute" xMin="84" yMin="0" xMax="620" yMax="865">
      <contour>
        <pt x="523" y="834" on="1"/>
        <pt x="384" y="704" on="1"/>
        <pt x="328" y="713" on="1"/>
        <pt x="419" y="865" on="1"/>
      </contour>
      <contour>
        <pt x="342" y="355" on="1"/>
        <pt x="524" y="650" on="1"/>
        <pt x="620" y="650" on="1"/>
        <pt x="370" y="267" on="1"/>
        <pt x="334" y="0" on="1"/>
        <pt x="195" y="0" on="1"/>
        <pt x="230" y="251" on="1"/>
        <pt x="84" y="650" on="1"/>
        <pt x="239" y="650" on="1"/>
        <pt x="341" y="355" on="1"/>
      </contour>
    </TTGlyph>
    <TTGlyph name="Ydieresis" xMin="84" yMin="0" xMax="620" yMax="856">
      <contour>
        <pt x="279" y="856" on="0"/>
        <pt x="306" y="856" on="1"/>
        <pt x="332" y="856" on="0"/>
        <pt x="349" y="839" on="1"/>
        <pt x="363" y="820" on="0"/>
        <pt x="363" y="798" on="1"/>
        <pt x="363" y="761" on="0"/>
        <pt x="334" y="735" on="1"/>
        <pt x="312" y="717" on="0"/>
        <pt x="286" y="717" on="1"/>
        <pt x="259" y="717" on="0"/>
        <pt x="243" y="735" on="1"/>
        <pt x="229" y="752" on="0"/>
        <pt x="229" y="776" on="1"/>
        <pt x="229" y="793" on="0"/>
        <pt x="244" y="826" on="0"/>
        <pt x="257" y="839" on="1"/>
      </contour>
      <contour>
        <pt x="465" y="856" on="0"/>
        <pt x="491" y="856" on="1"/>
        <pt x="516" y="856" on="0"/>
        <pt x="535" y="839" on="1"/>
        <pt x="549" y="820" on="0"/>
        <pt x="549" y="798" on="1"/>
        <pt x="549" y="761" on="0"/>
        <pt x="520" y="735" on="1"/>
        <pt x="498" y="717" on="0"/>
        <pt x="471" y="717" on="1"/>
        <pt x="444" y="717" on="0"/>
        <pt x="429" y="735" on="1"/>
        <pt x="415" y="752" on="0"/>
        <pt x="415" y="776" on="1"/>
        <pt x="415" y="793" on="0"/>
        <pt x="430" y="826" on="0"/>
        <pt x="443" y="839" on="1"/>
      </contour>
      <contour>
        <pt x="342" y="355" on="1"/>
        <pt x="524" y="650" on="1"/>
        <pt x="620" y="650" on="1"/>
        <pt x="370" y="267" on="1"/>
        <pt x="334" y="0" on="1"/>
        <pt x="195" y="0" on="1"/>
        <pt x="230" y="251" on="1"/>
        <pt x="84" y="650" on="1"/>
        <pt x="239" y="650" on="1"/>
        <pt x="341" y="355" on="1"/>
      </contour>
    </TTGlyph>
    <TTGlyph name="Ygrave" xMin="84" yMin="0" xMax="620" yMax="888">
      <component glyphName="Y" x="0" y="0" flags="0x0"/>
      <component glyphName="gravecomb" x="494" y="150" flags="0x4"/>
    </TTGlyph>
    <TTGlyph name="Z" xMin="42" yMin="0" xMax="613" yMax="650">
      <contour>
        <pt x="604" y="590" on="1"/>
        <pt x="219" y="72" on="1"/>
        <pt x="531" y="72" on="1"/>
        <pt x="521" y="0" on="1"/>
        <pt x="42" y="0" on="1"/>
        <pt x="51" y="58" on="1"/>
        <pt x="437" y="578" on="1"/>
        <pt x="141" y="578" on="1"/>
        <pt x="151" y="650" on="1"/>
        <pt x="613" y="650" on="1"/>
      </contour>
    </TTGlyph>
    <TTGlyph name="Z.swsh" xMin="51" yMin="-43" xMax="633" yMax="650">
      <contour>
        <pt x="590" y="48" on="0"/>
        <pt x="504" y="-43" on="0"/>
        <pt x="427" y="-43" on="1"/>
        <pt x="391" y="-43" on="0"/>
        <pt x="296" y="-29" on="0"/>
        <pt x="211" y="-14" on="1"/>
        <pt x="138" y="0" on="0"/>
        <pt x="123" y="0" on="1"/>
        <pt x="107" y="0" on="0"/>
        <pt x="63" y="-7" on="0"/>
        <pt x="51" y="-11" on="1"/>
        <pt x="51" y="60" on="1"/>
        <pt x="150" y="171" on="0"/>
        <pt x="330" y="403" on="0"/>
        <pt x="457" y="578" on="1"/>
        <pt x="161" y="578" on="1"/>
        <pt x="171" y="650" on="1"/>
        <pt x="633" y="650" on="1"/>
        <pt x="624" y="590" on="1"/>
        <pt x="604" y="562" on="0"/>
        <pt x="569" y="513" on="0"/>
        <pt x="554" y="493" on="1"/>
        <pt x="443" y="337" on="0"/>
        <pt x="281" y="137" on="0"/>
        <pt x="191" y="63" on="1"/>
        <pt x="223" y="58" on="1"/>
        <pt x="382" y="33" on="0"/>
        <pt x="432" y="33" on="1"/>
        <pt x="473" y="33" on="0"/>
        <pt x="528" y="88" on="0"/>
        <pt x="535" y="140" on="1"/>
        <pt x="599" y="132" on="1"/>
      </contour>
    </TTGlyph>
    <TTGlyph name="Zacute" xMin="42" yMin="0" xMax="613" yMax="865">
      <contour>
        <pt x="524" y="834" on="1"/>
        <pt x="385" y="704" on="1"/>
        <pt x="329" y="713" on="1"/>
        <pt x="420" y="865" on="1"/>
      </contour>
      <contour>
        <pt x="604" y="590" on="1"/>
        <pt x="219" y="72" on="1"/>
        <pt x="531" y="72" on="1"/>
        <pt x="521" y="0" on="1"/>
        <pt x="42" y="0" on="1"/>
        <pt x="51" y="58" on="1"/>
        <pt x="437" y="578" on="1"/>
        <pt x="141" y="578" on="1"/>
        <pt x="151" y="650" on="1"/>
        <pt x="613" y="650" on="1"/>
      </contour>
    </TTGlyph>
    <TTGlyph name="Zcaron" xMin="42" yMin="0" xMax="613" yMax="880">
      <contour>
        <pt x="252" y="845" on="1"/>
        <pt x="299" y="880" on="1"/>
        <pt x="394" y="787" on="1"/>
        <pt x="515" y="880" on="1"/>
        <pt x="552" y="841" on="1"/>
        <pt x="418" y="707" on="1"/>
        <pt x="348" y="707" on="1"/>
      </contour>
      <contour>
        <pt x="604" y="590" on="1"/>
        <pt x="219" y="72" on="1"/>
        <pt x="531" y="72" on="1"/>
        <pt x="521" y="0" on="1"/>
        <pt x="42" y="0" on="1"/>
        <pt x="51" y="58" on="1"/>
        <pt x="437" y="578" on="1"/>
        <pt x="141" y="578" on="1"/>
        <pt x="151" y="650" on="1"/>
        <pt x="613" y="650" on="1"/>
      </contour>
    </TTGlyph>
    <TTGlyph name="Zdotaccent" xMin="42" yMin="0" xMax="613" yMax="863">
      <contour>
        <pt x="363" y="863" on="0"/>
        <pt x="395" y="863" on="1"/>
        <pt x="426" y="863" on="0"/>
        <pt x="444" y="844" on="1"/>
        <pt x="459" y="825" on="0"/>
        <pt x="459" y="799" on="1"/>
        <pt x="459" y="780" on="0"/>
        <pt x="443" y="743" on="0"/>
        <pt x="428" y="729" on="1"/>
        <pt x="403" y="710" on="0"/>
        <pt x="373" y="710" on="1"/>
        <pt x="341" y="710" on="0"/>
        <pt x="324" y="730" on="1"/>
        <pt x="308" y="747" on="0"/>
        <pt x="308" y="775" on="1"/>
        <pt x="308" y="793" on="0"/>
        <pt x="325" y="830" on="0"/>
        <pt x="340" y="843" on="1"/>
      </contour>
      <contour>
        <pt x="604" y="590" on="1"/>
        <pt x="219" y="72" on="1"/>
        <pt x="531" y="72" on="1"/>
        <pt x="521" y="0" on="1"/>
        <pt x="42" y="0" on="1"/>
        <pt x="51" y="58" on="1"/>
        <pt x="437" y="578" on="1"/>
        <pt x="141" y="578" on="1"/>
        <pt x="151" y="650" on="1"/>
        <pt x="613" y="650" on="1"/>
      </contour>
    </TTGlyph>
    <TTGlyph name="a" xMin="59" yMin="-11" xMax="554" yMax="511">
      <contour>
        <pt x="382" y="0" on="1"/>
        <pt x="366" y="44" on="1"/>
        <pt x="365" y="44" on="1"/>
        <pt x="365" y="41" on="0"/>
        <pt x="338" y="13" on="0"/>
        <pt x="279" y="-11" on="0"/>
        <pt x="234" y="-11" on="1"/>
        <pt x="155" y="-11" on="0"/>
        <pt x="59" y="100" on="0"/>
        <pt x="59" y="195" on="1"/>
        <pt x="59" y="284" on="0"/>
        <pt x="124" y="428" on="0"/>
        <pt x="242" y="511" on="0"/>
        <pt x="317" y="511" on="1"/>
        <pt x="358" y="511" on="0"/>
        <pt x="407" y="493" on="0"/>
        <pt x="428" y="472" on="0"/>
        <pt x="428" y="470" on="1"/>
        <pt x="432" y="470" on="1"/>
        <pt x="456" y="500" on="1"/>
        <pt x="554" y="500" on="1"/>
        <pt x="484" y="0" on="1"/>
      </contour>
      <contour>
        <pt x="311" y="67" on="0"/>
        <pt x="356" y="98" on="0"/>
        <pt x="365" y="112" on="1"/>
        <pt x="406" y="395" on="1"/>
        <pt x="386" y="435" on="0"/>
        <pt x="335" y="435" on="1"/>
        <pt x="271" y="435" on="0"/>
        <pt x="199" y="305" on="0"/>
        <pt x="199" y="175" on="1"/>
        <pt x="199" y="67" on="0"/>
        <pt x="277" y="67" on="1"/>
      </contour>
    </TTGlyph>
    <TTGlyph name="a.sc" xMin="24" yMin="0" xMax="498" yMax="500">
      <contour>
        <pt x="411" y="500" on="1"/>
        <pt x="498" y="0" on="1"/>
        <pt x="358" y="0" on="1"/>
        <pt x="335" y="132" on="1"/>
        <pt x="167" y="132" on="1"/>
        <pt x="104" y="0" on="1"/>
        <pt x="24" y="0" on="1"/>
        <pt x="265" y="500" on="1"/>
      </contour>
      <contour>
        <pt x="293" y="408" on="1"/>
        <pt x="195" y="191" on="1"/>
        <pt x="326" y="191" on="1"/>
        <pt x="295" y="408" on="1"/>
      </contour>
    </TTGlyph>
    <TTGlyph name="aacute" xMin="59" yMin="-11" xMax="554" yMax="730">
      <contour>
        <pt x="517" y="699" on="1"/>
        <pt x="378" y="569" on="1"/>
        <pt x="322" y="578" on="1"/>
        <pt x="413" y="730" on="1"/>
      </contour>
      <contour>
        <pt x="382" y="0" on="1"/>
        <pt x="366" y="44" on="1"/>
        <pt x="365" y="44" on="1"/>
        <pt x="365" y="41" on="0"/>
        <pt x="338" y="13" on="0"/>
        <pt x="279" y="-11" on="0"/>
        <pt x="234" y="-11" on="1"/>
        <pt x="155" y="-11" on="0"/>
        <pt x="59" y="100" on="0"/>
        <pt x="59" y="195" on="1"/>
        <pt x="59" y="284" on="0"/>
        <pt x="124" y="428" on="0"/>
        <pt x="242" y="511" on="0"/>
        <pt x="317" y="511" on="1"/>
        <pt x="358" y="511" on="0"/>
        <pt x="407" y="493" on="0"/>
        <pt x="428" y="472" on="0"/>
        <pt x="428" y="470" on="1"/>
        <pt x="432" y="470" on="1"/>
        <pt x="456" y="500" on="1"/>
        <pt x="554" y="500" on="1"/>
        <pt x="484" y="0" on="1"/>
      </contour>
      <contour>
        <pt x="311" y="67" on="0"/>
        <pt x="356" y="98" on="0"/>
        <pt x="365" y="112" on="1"/>
        <pt x="406" y="395" on="1"/>
        <pt x="386" y="435" on="0"/>
        <pt x="335" y="435" on="1"/>
        <pt x="271" y="435" on="0"/>
        <pt x="199" y="305" on="0"/>
        <pt x="199" y="175" on="1"/>
        <pt x="199" y="67" on="0"/>
        <pt x="277" y="67" on="1"/>
      </contour>
    </TTGlyph>
    <TTGlyph name="aacute.sc" xMin="24" yMin="0" xMax="498" yMax="730">
      <contour>
        <pt x="486" y="699" on="1"/>
        <pt x="347" y="569" on="1"/>
        <pt x="291" y="578" on="1"/>
        <pt x="382" y="730" on="1"/>
      </contour>
      <contour>
        <pt x="411" y="500" on="1"/>
        <pt x="498" y="0" on="1"/>
        <pt x="358" y="0" on="1"/>
        <pt x="335" y="132" on="1"/>
        <pt x="167" y="132" on="1"/>
        <pt x="104" y="0" on="1"/>
        <pt x="24" y="0" on="1"/>
        <pt x="265" y="500" on="1"/>
      </contour>
      <contour>
        <pt x="293" y="408" on="1"/>
        <pt x="195" y="191" on="1"/>
        <pt x="326" y="191" on="1"/>
        <pt x="295" y="408" on="1"/>
      </contour>
    </TTGlyph>
    <TTGlyph name="abreve" xMin="59" yMin="-11" xMax="554" yMax="695">
      <contour>
        <pt x="412" y="636" on="0"/>
        <pt x="452" y="660" on="0"/>
        <pt x="467" y="687" on="0"/>
        <pt x="467" y="691" on="1"/>
        <pt x="468" y="695" on="1"/>
        <pt x="533" y="686" on="1"/>
        <pt x="533" y="676" on="0"/>
        <pt x="509" y="618" on="0"/>
        <pt x="434" y="563" on="0"/>
        <pt x="365" y="563" on="1"/>
        <pt x="287" y="563" on="0"/>
        <pt x="232" y="631" on="0"/>
        <pt x="232" y="670" on="1"/>
        <pt x="232" y="676" on="0"/>
        <pt x="233" y="685" on="0"/>
        <pt x="233" y="686" on="1"/>
        <pt x="300" y="695" on="1"/>
        <pt x="300" y="691" on="1"/>
        <pt x="300" y="676" on="0"/>
        <pt x="326" y="636" on="0"/>
        <pt x="376" y="636" on="1"/>
      </contour>
      <contour>
        <pt x="382" y="0" on="1"/>
        <pt x="366" y="44" on="1"/>
        <pt x="365" y="44" on="1"/>
        <pt x="365" y="41" on="0"/>
        <pt x="338" y="13" on="0"/>
        <pt x="279" y="-11" on="0"/>
        <pt x="234" y="-11" on="1"/>
        <pt x="155" y="-11" on="0"/>
        <pt x="59" y="100" on="0"/>
        <pt x="59" y="195" on="1"/>
        <pt x="59" y="284" on="0"/>
        <pt x="124" y="428" on="0"/>
        <pt x="242" y="511" on="0"/>
        <pt x="317" y="511" on="1"/>
        <pt x="358" y="511" on="0"/>
        <pt x="407" y="493" on="0"/>
        <pt x="428" y="472" on="0"/>
        <pt x="428" y="470" on="1"/>
        <pt x="432" y="470" on="1"/>
        <pt x="456" y="500" on="1"/>
        <pt x="554" y="500" on="1"/>
        <pt x="484" y="0" on="1"/>
      </contour>
      <contour>
        <pt x="311" y="67" on="0"/>
        <pt x="356" y="98" on="0"/>
        <pt x="365" y="112" on="1"/>
        <pt x="406" y="395" on="1"/>
        <pt x="386" y="435" on="0"/>
        <pt x="335" y="435" on="1"/>
        <pt x="271" y="435" on="0"/>
        <pt x="199" y="305" on="0"/>
        <pt x="199" y="175" on="1"/>
        <pt x="199" y="67" on="0"/>
        <pt x="277" y="67" on="1"/>
      </contour>
    </TTGlyph>
    <TTGlyph name="abreve.sc" xMin="24" yMin="0" xMax="506" yMax="695">
      <contour>
        <pt x="385" y="636" on="0"/>
        <pt x="425" y="660" on="0"/>
        <pt x="440" y="687" on="0"/>
        <pt x="440" y="691" on="1"/>
        <pt x="441" y="695" on="1"/>
        <pt x="506" y="686" on="1"/>
        <pt x="506" y="676" on="0"/>
        <pt x="482" y="618" on="0"/>
        <pt x="407" y="563" on="0"/>
        <pt x="338" y="563" on="1"/>
        <pt x="260" y="563" on="0"/>
        <pt x="205" y="631" on="0"/>
        <pt x="205" y="670" on="1"/>
        <pt x="205" y="676" on="0"/>
        <pt x="206" y="685" on="0"/>
        <pt x="206" y="686" on="1"/>
        <pt x="273" y="695" on="1"/>
        <pt x="273" y="691" on="1"/>
        <pt x="273" y="676" on="0"/>
        <pt x="299" y="636" on="0"/>
        <pt x="349" y="636" on="1"/>
      </contour>
      <contour>
        <pt x="411" y="500" on="1"/>
        <pt x="498" y="0" on="1"/>
        <pt x="358" y="0" on="1"/>
        <pt x="335" y="132" on="1"/>
        <pt x="167" y="132" on="1"/>
        <pt x="104" y="0" on="1"/>
        <pt x="24" y="0" on="1"/>
        <pt x="265" y="500" on="1"/>
      </contour>
      <contour>
        <pt x="293" y="408" on="1"/>
        <pt x="195" y="191" on="1"/>
        <pt x="326" y="191" on="1"/>
        <pt x="295" y="408" on="1"/>
      </contour>
    </TTGlyph>
    <TTGlyph name="acircumflex" xMin="59" yMin="-11" xMax="554" yMax="753">
      <contour>
        <pt x="507" y="631" on="1"/>
        <pt x="473" y="586" on="1"/>
        <pt x="381" y="671" on="1"/>
        <pt x="264" y="586" on="1"/>
        <pt x="242" y="631" on="1"/>
        <pt x="357" y="753" on="1"/>
        <pt x="427" y="753" on="1"/>
      </contour>
      <contour>
        <pt x="382" y="0" on="1"/>
        <pt x="366" y="44" on="1"/>
        <pt x="365" y="44" on="1"/>
        <pt x="365" y="41" on="0"/>
        <pt x="338" y="13" on="0"/>
        <pt x="279" y="-11" on="0"/>
        <pt x="234" y="-11" on="1"/>
        <pt x="155" y="-11" on="0"/>
        <pt x="59" y="100" on="0"/>
        <pt x="59" y="195" on="1"/>
        <pt x="59" y="284" on="0"/>
        <pt x="124" y="428" on="0"/>
        <pt x="242" y="511" on="0"/>
        <pt x="317" y="511" on="1"/>
        <pt x="358" y="511" on="0"/>
        <pt x="407" y="493" on="0"/>
        <pt x="428" y="472" on="0"/>
        <pt x="428" y="470" on="1"/>
        <pt x="432" y="470" on="1"/>
        <pt x="456" y="500" on="1"/>
        <pt x="554" y="500" on="1"/>
        <pt x="484" y="0" on="1"/>
      </contour>
      <contour>
        <pt x="311" y="67" on="0"/>
        <pt x="356" y="98" on="0"/>
        <pt x="365" y="112" on="1"/>
        <pt x="406" y="395" on="1"/>
        <pt x="386" y="435" on="0"/>
        <pt x="335" y="435" on="1"/>
        <pt x="271" y="435" on="0"/>
        <pt x="199" y="305" on="0"/>
        <pt x="199" y="175" on="1"/>
        <pt x="199" y="67" on="0"/>
        <pt x="277" y="67" on="1"/>
      </contour>
    </TTGlyph>
    <TTGlyph name="acircumflex.sc" xMin="24" yMin="0" xMax="498" yMax="753">
      <contour>
        <pt x="482" y="631" on="1"/>
        <pt x="448" y="586" on="1"/>
        <pt x="356" y="671" on="1"/>
        <pt x="239" y="586" on="1"/>
        <pt x="217" y="631" on="1"/>
        <pt x="332" y="753" on="1"/>
        <pt x="402" y="753" on="1"/>
      </contour>
      <contour>
        <pt x="411" y="500" on="1"/>
        <pt x="498" y="0" on="1"/>
        <pt x="358" y="0" on="1"/>
        <pt x="335" y="132" on="1"/>
        <pt x="167" y="132" on="1"/>
        <pt x="104" y="0" on="1"/>
        <pt x="24" y="0" on="1"/>
        <pt x="265" y="500" on="1"/>
      </contour>
      <contour>
        <pt x="293" y="408" on="1"/>
        <pt x="195" y="191" on="1"/>
        <pt x="326" y="191" on="1"/>
        <pt x="295" y="408" on="1"/>
      </contour>
    </TTGlyph>
    <TTGlyph name="acute" xMin="142" yMin="569" xMax="337" yMax="730">
      <contour>
        <pt x="337" y="699" on="1"/>
        <pt x="198" y="569" on="1"/>
        <pt x="142" y="578" on="1"/>
        <pt x="233" y="730" on="1"/>
      </contour>
    </TTGlyph>
    <TTGlyph name="acutecomb" xMin="-100" yMin="569" xMax="95" yMax="730">
      <contour>
        <pt x="95" y="699" on="1"/>
        <pt x="-44" y="569" on="1"/>
        <pt x="-100" y="578" on="1"/>
        <pt x="-9" y="730" on="1"/>
      </contour>
    </TTGlyph>
    <TTGlyph name="adieresis" xMin="59" yMin="-11" xMax="554" yMax="721">
      <contour>
        <pt x="266" y="721" on="0"/>
        <pt x="293" y="721" on="1"/>
        <pt x="319" y="721" on="0"/>
        <pt x="336" y="704" on="1"/>
        <pt x="350" y="685" on="0"/>
        <pt x="350" y="663" on="1"/>
        <pt x="350" y="626" on="0"/>
        <pt x="321" y="600" on="1"/>
        <pt x="299" y="582" on="0"/>
        <pt x="273" y="582" on="1"/>
        <pt x="247" y="582" on="0"/>
        <pt x="230" y="600" on="1"/>
        <pt x="216" y="617" on="0"/>
        <pt x="216" y="641" on="1"/>
        <pt x="216" y="658" on="0"/>
        <pt x="231" y="691" on="0"/>
        <pt x="244" y="704" on="1"/>
      </contour>
      <contour>
        <pt x="452" y="721" on="0"/>
        <pt x="478" y="721" on="1"/>
        <pt x="503" y="721" on="0"/>
        <pt x="522" y="704" on="1"/>
        <pt x="536" y="685" on="0"/>
        <pt x="536" y="663" on="1"/>
        <pt x="536" y="626" on="0"/>
        <pt x="507" y="600" on="1"/>
        <pt x="485" y="582" on="0"/>
        <pt x="458" y="582" on="1"/>
        <pt x="431" y="582" on="0"/>
        <pt x="416" y="600" on="1"/>
        <pt x="402" y="617" on="0"/>
        <pt x="402" y="641" on="1"/>
        <pt x="402" y="658" on="0"/>
        <pt x="417" y="691" on="0"/>
        <pt x="430" y="704" on="1"/>
      </contour>
      <contour>
        <pt x="382" y="0" on="1"/>
        <pt x="366" y="44" on="1"/>
        <pt x="365" y="44" on="1"/>
        <pt x="365" y="41" on="0"/>
        <pt x="338" y="13" on="0"/>
        <pt x="279" y="-11" on="0"/>
        <pt x="234" y="-11" on="1"/>
        <pt x="155" y="-11" on="0"/>
        <pt x="59" y="100" on="0"/>
        <pt x="59" y="195" on="1"/>
        <pt x="59" y="284" on="0"/>
        <pt x="124" y="428" on="0"/>
        <pt x="242" y="511" on="0"/>
        <pt x="317" y="511" on="1"/>
        <pt x="358" y="511" on="0"/>
        <pt x="407" y="493" on="0"/>
        <pt x="428" y="472" on="0"/>
        <pt x="428" y="470" on="1"/>
        <pt x="432" y="470" on="1"/>
        <pt x="456" y="500" on="1"/>
        <pt x="554" y="500" on="1"/>
        <pt x="484" y="0" on="1"/>
      </contour>
      <contour>
        <pt x="311" y="67" on="0"/>
        <pt x="356" y="98" on="0"/>
        <pt x="365" y="112" on="1"/>
        <pt x="406" y="395" on="1"/>
        <pt x="386" y="435" on="0"/>
        <pt x="335" y="435" on="1"/>
        <pt x="271" y="435" on="0"/>
        <pt x="199" y="305" on="0"/>
        <pt x="199" y="175" on="1"/>
        <pt x="199" y="67" on="0"/>
        <pt x="277" y="67" on="1"/>
      </contour>
    </TTGlyph>
    <TTGlyph name="adieresis.sc" xMin="24" yMin="0" xMax="511" yMax="721">
      <contour>
        <pt x="241" y="721" on="0"/>
        <pt x="268" y="721" on="1"/>
        <pt x="294" y="721" on="0"/>
        <pt x="311" y="704" on="1"/>
        <pt x="325" y="685" on="0"/>
        <pt x="325" y="663" on="1"/>
        <pt x="325" y="626" on="0"/>
        <pt x="296" y="600" on="1"/>
        <pt x="274" y="582" on="0"/>
        <pt x="248" y="582" on="1"/>
        <pt x="222" y="582" on="0"/>
        <pt x="205" y="600" on="1"/>
        <pt x="191" y="617" on="0"/>
        <pt x="191" y="641" on="1"/>
        <pt x="191" y="658" on="0"/>
        <pt x="206" y="691" on="0"/>
        <pt x="219" y="704" on="1"/>
      </contour>
      <contour>
        <pt x="427" y="721" on="0"/>
        <pt x="453" y="721" on="1"/>
        <pt x="478" y="721" on="0"/>
        <pt x="497" y="704" on="1"/>
        <pt x="511" y="685" on="0"/>
        <pt x="511" y="663" on="1"/>
        <pt x="511" y="626" on="0"/>
        <pt x="482" y="600" on="1"/>
        <pt x="460" y="582" on="0"/>
        <pt x="433" y="582" on="1"/>
        <pt x="406" y="582" on="0"/>
        <pt x="391" y="600" on="1"/>
        <pt x="377" y="617" on="0"/>
        <pt x="377" y="641" on="1"/>
        <pt x="377" y="658" on="0"/>
        <pt x="392" y="691" on="0"/>
        <pt x="405" y="704" on="1"/>
      </contour>
      <contour>
        <pt x="411" y="500" on="1"/>
        <pt x="498" y="0" on="1"/>
        <pt x="358" y="0" on="1"/>
        <pt x="335" y="132" on="1"/>
        <pt x="167" y="132" on="1"/>
        <pt x="104" y="0" on="1"/>
        <pt x="24" y="0" on="1"/>
        <pt x="265" y="500" on="1"/>
      </contour>
      <contour>
        <pt x="293" y="408" on="1"/>
        <pt x="195" y="191" on="1"/>
        <pt x="326" y="191" on="1"/>
        <pt x="295" y="408" on="1"/>
      </contour>
    </TTGlyph>
    <TTGlyph name="ae" xMin="59" yMin="-11" xMax="777" yMax="511">
      <contour>
        <pt x="742" y="71" on="0"/>
        <pt x="698" y="27" on="0"/>
        <pt x="616" y="-11" on="0"/>
        <pt x="557" y="-11" on="1"/>
        <pt x="442" y="-11" on="0"/>
        <pt x="385" y="56" on="1"/>
        <pt x="381" y="56" on="1"/>
        <pt x="381" y="53" on="0"/>
        <pt x="353" y="19" on="0"/>
        <pt x="293" y="-11" on="0"/>
        <pt x="247" y="-11" on="1"/>
        <pt x="159" y="-11" on="0"/>
        <pt x="59" y="99" on="0"/>
        <pt x="59" y="195" on="1"/>
        <pt x="59" y="285" on="0"/>
        <pt x="126" y="429" on="0"/>
        <pt x="251" y="511" on="0"/>
        <pt x="335" y="511" on="1"/>
        <pt x="376" y="511" on="0"/>
        <pt x="429" y="491" on="0"/>
        <pt x="454" y="467" on="0"/>
        <pt x="454" y="465" on="1"/>
        <pt x="459" y="465" on="1"/>
        <pt x="524" y="510" on="0"/>
        <pt x="609" y="510" on="1"/>
        <pt x="687" y="510" on="0"/>
        <pt x="777" y="430" on="0"/>
        <pt x="777" y="370" on="1"/>
        <pt x="777" y="271" on="0"/>
        <pt x="601" y="211" on="0"/>
        <pt x="479" y="211" on="1"/>
        <pt x="478" y="197" on="0"/>
        <pt x="478" y="167" on="1"/>
        <pt x="478" y="107" on="0"/>
        <pt x="533" y="56" on="0"/>
        <pt x="583" y="56" on="1"/>
        <pt x="617" y="56" on="0"/>
        <pt x="670" y="80" on="0"/>
        <pt x="702" y="109" on="0"/>
        <pt x="702" y="111" on="1"/>
        <pt x="742" y="75" on="1"/>
      </contour>
      <contour>
        <pt x="551" y="446" on="0"/>
        <pt x="493" y="356" on="0"/>
        <pt x="483" y="268" on="1"/>
        <pt x="535" y="268" on="0"/>
        <pt x="609" y="283" on="0"/>
        <pt x="658" y="333" on="0"/>
        <pt x="658" y="383" on="1"/>
        <pt x="658" y="446" on="0"/>
        <pt x="593" y="446" on="1"/>
      </contour>
      <contour>
        <pt x="307" y="67" on="0"/>
        <pt x="346" y="87" on="0"/>
        <pt x="358" y="101" on="1"/>
        <pt x="341" y="141" on="0"/>
        <pt x="341" y="195" on="1"/>
        <pt x="341" y="323" on="0"/>
        <pt x="401" y="407" on="1"/>
        <pt x="378" y="435" on="0"/>
        <pt x="335" y="435" on="1"/>
        <pt x="271" y="435" on="0"/>
        <pt x="199" y="305" on="0"/>
        <pt x="199" y="175" on="1"/>
        <pt x="199" y="67" on="0"/>
        <pt x="282" y="67" on="1"/>
      </contour>
    </TTGlyph>
    <TTGlyph name="ae.sc" xMin="-2" yMin="0" xMax="714" yMax="500">
      <contour>
        <pt x="714" y="500" on="1"/>
        <pt x="705" y="433" on="1"/>
        <pt x="512" y="433" on="1"/>
        <pt x="491" y="285" on="1"/>
        <pt x="658" y="285" on="1"/>
        <pt x="649" y="220" on="1"/>
        <pt x="481" y="220" on="1"/>
        <pt x="460" y="67" on="1"/>
        <pt x="662" y="67" on="1"/>
        <pt x="652" y="0" on="1"/>
        <pt x="319" y="0" on="1"/>
        <pt x="338" y="138" on="1"/>
        <pt x="178" y="138" on="1"/>
        <pt x="81" y="0" on="1"/>
        <pt x="-2" y="0" on="1"/>
        <pt x="354" y="500" on="1"/>
      </contour>
      <contour>
        <pt x="346" y="197" on="1"/>
        <pt x="379" y="433" on="1"/>
        <pt x="373" y="433" on="1"/>
        <pt x="217" y="197" on="1"/>
      </contour>
    </TTGlyph>
    <TTGlyph name="agrave" xMin="59" yMin="-11" xMax="554" yMax="738">
      <contour>
        <pt x="356" y="738" on="1"/>
        <pt x="420" y="591" on="1"/>
        <pt x="356" y="574" on="1"/>
        <pt x="245" y="703" on="1"/>
      </contour>
      <contour>
        <pt x="382" y="0" on="1"/>
        <pt x="366" y="44" on="1"/>
        <pt x="365" y="44" on="1"/>
        <pt x="365" y="41" on="0"/>
        <pt x="338" y="13" on="0"/>
        <pt x="279" y="-11" on="0"/>
        <pt x="234" y="-11" on="1"/>
        <pt x="155" y="-11" on="0"/>
        <pt x="59" y="100" on="0"/>
        <pt x="59" y="195" on="1"/>
        <pt x="59" y="284" on="0"/>
        <pt x="124" y="428" on="0"/>
        <pt x="242" y="511" on="0"/>
        <pt x="317" y="511" on="1"/>
        <pt x="358" y="511" on="0"/>
        <pt x="407" y="493" on="0"/>
        <pt x="428" y="472" on="0"/>
        <pt x="428" y="470" on="1"/>
        <pt x="432" y="470" on="1"/>
        <pt x="456" y="500" on="1"/>
        <pt x="554" y="500" on="1"/>
        <pt x="484" y="0" on="1"/>
      </contour>
      <contour>
        <pt x="311" y="67" on="0"/>
        <pt x="356" y="98" on="0"/>
        <pt x="365" y="112" on="1"/>
        <pt x="406" y="395" on="1"/>
        <pt x="386" y="435" on="0"/>
        <pt x="335" y="435" on="1"/>
        <pt x="271" y="435" on="0"/>
        <pt x="199" y="305" on="0"/>
        <pt x="199" y="175" on="1"/>
        <pt x="199" y="67" on="0"/>
        <pt x="277" y="67" on="1"/>
      </contour>
    </TTGlyph>
    <TTGlyph name="agrave.sc" xMin="24" yMin="0" xMax="498" yMax="738">
      <contour>
        <pt x="339" y="738" on="1"/>
        <pt x="403" y="591" on="1"/>
        <pt x="339" y="574" on="1"/>
        <pt x="228" y="703" on="1"/>
      </contour>
      <contour>
        <pt x="411" y="500" on="1"/>
        <pt x="498" y="0" on="1"/>
        <pt x="358" y="0" on="1"/>
        <pt x="335" y="132" on="1"/>
        <pt x="167" y="132" on="1"/>
        <pt x="104" y="0" on="1"/>
        <pt x="24" y="0" on="1"/>
        <pt x="265" y="500" on="1"/>
      </contour>
      <contour>
        <pt x="293" y="408" on="1"/>
        <pt x="195" y="191" on="1"/>
        <pt x="326" y="191" on="1"/>
        <pt x="295" y="408" on="1"/>
      </contour>
    </TTGlyph>
    <TTGlyph name="amacron" xMin="59" yMin="-11" xMax="554" yMax="682">
      <contour>
        <pt x="484" y="624" on="1"/>
        <pt x="269" y="624" on="1"/>
        <pt x="277" y="682" on="1"/>
        <pt x="491" y="682" on="1"/>
      </contour>
      <contour>
        <pt x="382" y="0" on="1"/>
        <pt x="366" y="44" on="1"/>
        <pt x="365" y="44" on="1"/>
        <pt x="365" y="41" on="0"/>
        <pt x="338" y="13" on="0"/>
        <pt x="279" y="-11" on="0"/>
        <pt x="234" y="-11" on="1"/>
        <pt x="155" y="-11" on="0"/>
        <pt x="59" y="100" on="0"/>
        <pt x="59" y="195" on="1"/>
        <pt x="59" y="284" on="0"/>
        <pt x="124" y="428" on="0"/>
        <pt x="242" y="511" on="0"/>
        <pt x="317" y="511" on="1"/>
        <pt x="358" y="511" on="0"/>
        <pt x="407" y="493" on="0"/>
        <pt x="428" y="472" on="0"/>
        <pt x="428" y="470" on="1"/>
        <pt x="432" y="470" on="1"/>
        <pt x="456" y="500" on="1"/>
        <pt x="554" y="500" on="1"/>
        <pt x="484" y="0" on="1"/>
      </contour>
      <contour>
        <pt x="311" y="67" on="0"/>
        <pt x="356" y="98" on="0"/>
        <pt x="365" y="112" on="1"/>
        <pt x="406" y="395" on="1"/>
        <pt x="386" y="435" on="0"/>
        <pt x="335" y="435" on="1"/>
        <pt x="271" y="435" on="0"/>
        <pt x="199" y="305" on="0"/>
        <pt x="199" y="175" on="1"/>
        <pt x="199" y="67" on="0"/>
        <pt x="277" y="67" on="1"/>
      </contour>
    </TTGlyph>
    <TTGlyph name="amacron.sc" xMin="24" yMin="0" xMax="498" yMax="682">
      <contour>
        <pt x="453" y="624" on="1"/>
        <pt x="238" y="624" on="1"/>
        <pt x="246" y="682" on="1"/>
        <pt x="460" y="682" on="1"/>
      </contour>
      <contour>
        <pt x="411" y="500" on="1"/>
        <pt x="498" y="0" on="1"/>
        <pt x="358" y="0" on="1"/>
        <pt x="335" y="132" on="1"/>
        <pt x="167" y="132" on="1"/>
        <pt x="104" y="0" on="1"/>
        <pt x="24" y="0" on="1"/>
        <pt x="265" y="500" on="1"/>
      </contour>
      <contour>
        <pt x="293" y="408" on="1"/>
        <pt x="195" y="191" on="1"/>
        <pt x="326" y="191" on="1"/>
        <pt x="295" y="408" on="1"/>
      </contour>
    </TTGlyph>
</ttFont>
